<?xml version="1.0" encoding="UTF-8" standalone="no"?><svg xmlns="http://www.w3.org/2000/svg" xmlns:xlink="http://www.w3.org/1999/xlink" contentStyleType="text/css" height="887px" preserveAspectRatio="none" style="width:403px;height:887px;background:#FFFFFF;" version="1.1" viewBox="0 0 403 887" width="403px" zoomAndPan="magnify"><defs/><g><!--MD5=[e5713ecc3602858e5061702e1e4a291d]
cluster SystemUsers--><g id="cluster_SystemUsers"><path d="M8.5,330 L100.5,330 A3.75,3.75 0 0 1 103,332.5 L110,353.6094 L168.5,353.6094 A2.5,2.5 0 0 1 171,356.1094 L171,683.5 A2.5,2.5 0 0 1 168.5,686 L8.5,686 A2.5,2.5 0 0 1 6,683.5 L6,332.5 A2.5,2.5 0 0 1 8.5,330 " fill="none" style="stroke:#000000;stroke-width:1.5;"/><line style="stroke:#000000;stroke-width:1.5;" x1="6" x2="110" y1="353.6094" y2="353.6094"/><text fill="#000000" font-family="sans-serif" font-size="14" font-weight="bold" lengthAdjust="spacing" textLength="91" x="10" y="346.5332">SystemUsers</text></g><!--MD5=[1884200dc22ed3c550fccd23648b75db]
cluster WarehouseManagement--><g id="cluster_WarehouseManagement"><path d="M201.5,6 L373.5,6 A3.75,3.75 0 0 1 376,8.5 L383,29.6094 L393.5,29.6094 A2.5,2.5 0 0 1 396,32.1094 L396,436.5 A2.5,2.5 0 0 1 393.5,439 L201.5,439 A2.5,2.5 0 0 1 199,436.5 L199,8.5 A2.5,2.5 0 0 1 201.5,6 " fill="none" style="stroke:#000000;stroke-width:1.5;"/><line style="stroke:#000000;stroke-width:1.5;" x1="199" x2="383" y1="29.6094" y2="29.6094"/><text fill="#000000" font-family="sans-serif" font-size="14" font-weight="bold" lengthAdjust="spacing" textLength="171" x="203" y="22.5332">WarehouseManagement</text></g><!--MD5=[31a1161e5ccd55112f62faa2a6ab15d7]
cluster Logistics--><g id="cluster_Logistics"><path d="M215,463 L279,463 A3.75,3.75 0 0 1 281.5,465.5 L288.5,486.6094 L380,486.6094 A2.5,2.5 0 0 1 382.5,489.1094 L382.5,877.5 A2.5,2.5 0 0 1 380,880 L215,880 A2.5,2.5 0 0 1 212.5,877.5 L212.5,465.5 A2.5,2.5 0 0 1 215,463 " fill="none" style="stroke:#000000;stroke-width:1.5;"/><line style="stroke:#000000;stroke-width:1.5;" x1="212.5" x2="288.5" y1="486.6094" y2="486.6094"/><text fill="#000000" font-family="sans-serif" font-size="14" font-weight="bold" lengthAdjust="spacing" textLength="63" x="216.5" y="479.5332">Logistics</text></g><!--MD5=[34d31f55fcb8b2e5dee86c97beff104b]
entity WM--><g id="elem_WM"><ellipse cx="88.5" cy="374.5" fill="#F1F1F1" rx="8" ry="8" style="stroke:#181818;stroke-width:0.5;"/><path d="M88.5,382.5 L88.5,409.5 M75.5,390.5 L101.5,390.5 M88.5,409.5 L75.5,424.5 M88.5,409.5 L101.5,424.5 " fill="none" style="stroke:#181818;stroke-width:0.5;"/><text fill="#000000" font-family="sans-serif" font-size="14" lengthAdjust="spacing" textLength="133" x="22" y="440.5332">Warehouse Manager</text></g><!--MD5=[a89ee74bb4979dbed373b93afc1c36e4]
entity FM--><g id="elem_FM"><ellipse cx="88.5" cy="487.5" fill="#F1F1F1" rx="8" ry="8" style="stroke:#181818;stroke-width:0.5;"/><path d="M88.5,495.5 L88.5,522.5 M75.5,503.5 L101.5,503.5 M88.5,522.5 L75.5,537.5 M88.5,522.5 L101.5,537.5 " fill="none" style="stroke:#181818;stroke-width:0.5;"/><text fill="#000000" font-family="sans-serif" font-size="14" lengthAdjust="spacing" textLength="92" x="42.5" y="553.5332">Fleet Manager</text></g><!--MD5=[4ff3548512ed7536ef7376856685bd64]
entity LM--><g id="elem_LM"><ellipse cx="88.5" cy="600.5" fill="#F1F1F1" rx="8" ry="8" style="stroke:#181818;stroke-width:0.5;"/><path d="M88.5,608.5 L88.5,635.5 M75.5,616.5 L101.5,616.5 M88.5,635.5 L75.5,650.5 M88.5,635.5 L101.5,650.5 " fill="none" style="stroke:#181818;stroke-width:0.5;"/><text fill="#000000" font-family="sans-serif" font-size="14" lengthAdjust="spacing" textLength="115" x="31" y="666.5332">Logistics Manager</text></g><g id="elem_UC1C"><ellipse cx="297.3351" cy="60.867" fill="#F1F1F1" rx="82.3351" ry="18.867" style="stroke:#181818;stroke-width:0.5;"/><text fill="#000000" font-family="sans-serif" font-size="14" lengthAdjust="spacing" textLength="120" x="237.3351" y="64.5955">Create Warehouse</text></g><g id="elem_UC1L"><ellipse cx="297.6111" cy="132.2222" fill="#F1F1F1" rx="74.1111" ry="17.2222" style="stroke:#181818;stroke-width:0.5;"/><text fill="#000000" font-family="sans-serif" font-size="14" lengthAdjust="spacing" textLength="99" x="245.1111" y="136.7388">List Warehouse</text></g><g id="elem_UC1E"><ellipse cx="297.3525" cy="201.8705" fill="#F1F1F1" rx="74.8525" ry="17.3705" style="stroke:#181818;stroke-width:0.5;"/><text fill="#000000" font-family="sans-serif" font-size="14" lengthAdjust="spacing" textLength="101" x="243.8525" y="206.3871">Edit Warehouse</text></g><g id="elem_UC2C"><ellipse cx="297.7427" cy="272.1485" fill="#F1F1F1" rx="73.7427" ry="17.1485" style="stroke:#181818;stroke-width:0.5;"/><text fill="#000000" font-family="sans-serif" font-size="14" lengthAdjust="spacing" textLength="98" x="245.7427" y="276.6651">Create Delivery</text></g><g id="elem_UC2L"><ellipse cx="297.4254" cy="340.1851" fill="#F1F1F1" rx="66.4254" ry="15.6851" style="stroke:#181818;stroke-width:0.5;"/><text fill="#000000" font-family="sans-serif" font-size="14" lengthAdjust="spacing" textLength="77" x="255.9254" y="344.7017">List Delivery</text></g><g id="elem_UC2E"><ellipse cx="297.5842" cy="406.8168" fill="#F1F1F1" rx="67.0842" ry="15.8168" style="stroke:#181818;stroke-width:0.5;"/><text fill="#000000" font-family="sans-serif" font-size="14" lengthAdjust="spacing" textLength="79" x="255.0842" y="411.3334">Edit Delivery</text></g><g id="elem_UC3C"><ellipse cx="297.4277" cy="515.0855" fill="#F1F1F1" rx="68.4277" ry="16.0855" style="stroke:#181818;stroke-width:0.5;"/><text fill="#000000" font-family="sans-serif" font-size="14" lengthAdjust="spacing" textLength="83" x="252.9277" y="519.6021">Create Truck</text></g><g id="elem_UC3L"><ellipse cx="297.7356" cy="582.0492" fill="#F1F1F1" rx="55.7356" ry="15.5492" style="stroke:#181818;stroke-width:0.5;"/><text fill="#000000" font-family="sans-serif" font-size="14" lengthAdjust="spacing" textLength="62" x="263.7356" y="586.5658">List Truck</text></g><g id="elem_UC3E"><ellipse cx="297.7132" cy="648.0613" fill="#F1F1F1" rx="57.2132" ry="15.5613" style="stroke:#181818;stroke-width:0.5;"/><text fill="#000000" font-family="sans-serif" font-size="14" lengthAdjust="spacing" textLength="64" x="262.7132" y="652.5779">Edit Truck</text></g><g id="elem_UC4C"><ellipse cx="297.6119" cy="715.2224" fill="#F1F1F1" rx="69.1119" ry="16.2224" style="stroke:#181818;stroke-width:0.5;"/><text fill="#000000" font-family="sans-serif" font-size="14" lengthAdjust="spacing" textLength="85" x="252.1119" y="719.739">Create Route</text></g><g id="elem_UC4L"><ellipse cx="297.7132" cy="782.0613" fill="#F1F1F1" rx="57.2132" ry="15.5613" style="stroke:#181818;stroke-width:0.5;"/><text fill="#000000" font-family="sans-serif" font-size="14" lengthAdjust="spacing" textLength="64" x="262.7132" y="786.5779">List Route</text></g><g id="elem_UC4E"><ellipse cx="297.6908" cy="848.0728" fill="#F1F1F1" rx="58.6908" ry="15.5728" style="stroke:#181818;stroke-width:0.5;"/><text fill="#000000" font-family="sans-serif" font-size="14" lengthAdjust="spacing" textLength="66" x="261.6908" y="852.5894">Edit Route</text></g><!--MD5=[5bdd412f3071822e5ce93f551a60d9ff]
link WM to UC1C--><g id="link_WM_UC1C"><path d="M91.53,365.99 C96.98,301.34 117.04,171.74 191,97 C200.94,86.95 213.8,79.71 227.09,74.49 " fill="none" id="WM-to-UC1C" style="stroke:#181818;stroke-width:1.0;"/><polygon fill="#181818" points="232.01,72.65,222.1785,72.0648,227.3284,74.4056,224.9875,79.5554,232.01,72.65" style="stroke:#181818;stroke-width:1.0;"/></g><!--MD5=[80bbadb4a8d1d8c1e88322f7ef4f8613]
link WM to UC1L--><g id="link_WM_UC1L"><path d="M95.91,365.93 C106.52,313.48 132.67,220.69 191,167 C202.61,156.31 217.56,148.89 232.54,143.72 " fill="none" id="WM-to-UC1L" style="stroke:#181818;stroke-width:1.0;"/><polygon fill="#181818" points="237.62,142.05,227.8222,141.0482,232.8681,143.6054,230.3109,148.6513,237.62,142.05" style="stroke:#181818;stroke-width:1.0;"/></g><!--MD5=[f3922c389b4685d372ca3513001baf62]
link WM to UC1E--><g id="link_WM_UC1E"><path d="M103.79,365.84 C119.58,327.78 148.53,270.91 191,237 C203.46,227.05 218.88,219.87 234.04,214.72 " fill="none" id="WM-to-UC1E" style="stroke:#181818;stroke-width:1.0;"/><polygon fill="#181818" points="239.16,213.05,229.365,212.0217,234.4039,214.5925,231.833,219.6314,239.16,213.05" style="stroke:#181818;stroke-width:1.0;"/></g><!--MD5=[45faf411cd2eacde7d69e8b9d4790e3e]
link WM to UC2C--><g id="link_WM_UC2C"><path d="M122.35,365.76 C140.78,345.83 165.22,322.6 191,307 C205.96,297.95 223.55,290.92 240.04,285.61 " fill="none" id="WM-to-UC2C" style="stroke:#181818;stroke-width:1.0;"/><polygon fill="#181818" points="245.11,284.02,235.3277,282.8765,240.3361,285.5065,237.7061,290.5148,245.11,284.02" style="stroke:#181818;stroke-width:1.0;"/></g><!--MD5=[65243f79532ff2c7fbdf28b546cfcd16]
link WM to UC2L--><g id="link_WM_UC2L"><path d="M155.01,384.32 C166.98,380.55 179.37,376.65 191,373 C210.92,366.75 232.95,359.85 251.72,353.98 " fill="none" id="WM-to-UC2L" style="stroke:#181818;stroke-width:1.0;"/><polygon fill="#181818" points="256.92,352.36,247.1347,351.2432,252.1501,353.8595,249.5339,358.875,256.92,352.36" style="stroke:#181818;stroke-width:1.0;"/></g><!--MD5=[cfc6e276fbdc093fc204bfad15529097]
link WM to UC2E--><g id="link_WM_UC2E"><path d="M155.28,405.64 C177.62,405.85 202.68,406.09 225.42,406.31 " fill="none" id="WM-to-UC2E" style="stroke:#181818;stroke-width:1.0;"/><polygon fill="#181818" points="230.54,406.36,221.5746,402.283,225.5402,406.3171,221.506,410.2827,230.54,406.36" style="stroke:#181818;stroke-width:1.0;"/></g><!--MD5=[211618c910d555766ef4d6a3a94d81e8]
link FM to UC3C--><g id="link_FM_UC3C"><path d="M134.67,517.35 C160.76,516.97 194.19,516.48 223.89,516.05 " fill="none" id="FM-to-UC3C" style="stroke:#181818;stroke-width:1.0;"/><polygon fill="#181818" points="229,515.98,219.9438,512.109,224.0005,516.0514,220.0581,520.1082,229,515.98" style="stroke:#181818;stroke-width:1.0;"/></g><!--MD5=[0ef37f248d5e2b052fb716bb02b4369a]
link FM to UC3L--><g id="link_FM_UC3L"><path d="M134.67,531.97 C170.39,543.01 219.86,558.31 254.68,569.07 " fill="none" id="FM-to-UC3L" style="stroke:#181818;stroke-width:1.0;"/><polygon fill="#181818" points="259.71,570.62,252.3061,564.1252,254.9361,569.1335,249.9277,571.7635,259.71,570.62" style="stroke:#181818;stroke-width:1.0;"/></g><!--MD5=[3efa87b9ea2d26961e99ea1f97587630]
link FM to UC3E--><g id="link_FM_UC3E"><path d="M134.52,537.71 C150.56,546.71 167.49,558.8 179,574 C190.46,589.14 177.7,601.45 191,615 C203.9,628.14 221.96,636.07 239.49,640.84 " fill="none" id="FM-to-UC3E" style="stroke:#181818;stroke-width:1.0;"/><polygon fill="#181818" points="244.42,642.11,236.6968,635.9983,239.5769,640.8671,234.7082,643.7472,244.42,642.11" style="stroke:#181818;stroke-width:1.0;"/></g><!--MD5=[1c7ed2f13fc1e127d1d787adf0d2b3f5]
link LM to UC4C--><g id="link_LM_UC4C"><path d="M146,660.65 C160.48,667.74 176.16,674.99 191,681 C209.42,688.46 230.15,695.44 248.33,701.1 " fill="none" id="LM-to-UC4C" style="stroke:#181818;stroke-width:1.0;"/><polygon fill="#181818" points="253.39,702.67,245.9861,696.1752,248.6161,701.1835,243.6077,703.8135,253.39,702.67" style="stroke:#181818;stroke-width:1.0;"/></g><!--MD5=[da2fc6d5bf740e1f40ff76418659acd1]
link LM to UC4L--><g id="link_LM_UC4L"><path d="M114.98,670.17 C133.36,695.61 160.27,727.69 191,748 C207.36,758.81 227.42,766.41 245.63,771.63 " fill="none" id="LM-to-UC4L" style="stroke:#181818;stroke-width:1.0;"/><polygon fill="#181818" points="250.72,773.04,243.1256,766.769,245.9038,771.6966,240.9762,774.4748,250.72,773.04" style="stroke:#181818;stroke-width:1.0;"/></g><!--MD5=[92f42c8f5decebb5e50189ea65bc2aa3]
link LM to UC4E--><g id="link_LM_UC4E"><path d="M101.32,670.16 C115.87,711.89 144.52,777.03 191,815 C205.33,826.71 223.84,834.28 241.34,839.17 " fill="none" id="LM-to-UC4E" style="stroke:#181818;stroke-width:1.0;"/><polygon fill="#181818" points="246.24,840.47,238.5677,834.2945,241.4074,839.187,236.5149,842.0267,246.24,840.47" style="stroke:#181818;stroke-width:1.0;"/></g><!--MD5=[e1e5bd1084ff00f938fdfae9da83f81c]
@startuml diagram
left to right direction

package SystemUsers {
    actor "Warehouse Manager" as WM
    actor "Fleet Manager" as FM
    actor "Logistics Manager" as LM
}
package WarehouseManagement {
  usecase "Create Warehouse" as UC1C
  usecase "List Warehouse" as UC1L
  usecase "Edit Warehouse" as UC1E
  usecase "Create Delivery" as UC2C
  usecase "List Delivery" as UC2L
  usecase "Edit Delivery" as UC2E
}

package Logistics {
  usecase "Create Truck" as UC3C
  usecase "List Truck" as UC3L
  usecase "Edit Truck" as UC3E
  usecase "Create Route" as UC4C
  usecase "List Route" as UC4L
  usecase "Edit Route" as UC4E

}

WM - -> UC1C
WM - -> UC1L
WM - -> UC1E
WM - -> UC2C
WM - -> UC2L
WM - -> UC2E
FM - -> UC3C
FM - -> UC3L
FM - -> UC3E
LM - -> UC4C
LM - -> UC4L
LM - -> UC4E
@enduml

PlantUML version 1.2022.7(Mon Aug 22 18:01:30 BST 2022)
(GPL source distribution)
Java Runtime: Java(TM) SE Runtime Environment
JVM: Java HotSpot(TM) 64-Bit Server VM
Default Encoding: Cp1252
Language: pt
Country: PT
--></g></svg>