<?xml version="1.0" encoding="UTF-8" standalone="no"?><svg xmlns="http://www.w3.org/2000/svg" xmlns:xlink="http://www.w3.org/1999/xlink" contentStyleType="text/css" height="779px" preserveAspectRatio="none" style="width:723px;height:779px;background:#FFFFFF;" version="1.1" viewBox="0 0 723 779" width="723px" zoomAndPan="magnify"><defs/><g><!--MD5=[e5713ecc3602858e5061702e1e4a291d]
cluster SystemUsers--><g id="cluster_SystemUsers"><path d="M8.5,66 L100.5,66 A3.75,3.75 0 0 1 103,68.5 L110,89.6094 L168.5,89.6094 A2.5,2.5 0 0 1 171,92.1094 L171,419.5 A2.5,2.5 0 0 1 168.5,422 L8.5,422 A2.5,2.5 0 0 1 6,419.5 L6,68.5 A2.5,2.5 0 0 1 8.5,66 " fill="none" style="stroke:#000000;stroke-width:1.5;"/><line style="stroke:#000000;stroke-width:1.5;" x1="6" x2="110" y1="89.6094" y2="89.6094"/><text fill="#000000" font-family="sans-serif" font-size="14" font-weight="bold" lengthAdjust="spacing" textLength="91" x="10" y="82.5332">SystemUsers</text></g><!--MD5=[8ae77ada6169822435c3d3bcb01b6727]
cluster system--><g id="cluster_system"><path d="M201.5,6 L251.5,6 A3.75,3.75 0 0 1 254,8.5 L261,29.6094 L713.5,29.6094 A2.5,2.5 0 0 1 716,32.1094 L716,769.5 A2.5,2.5 0 0 1 713.5,772 L201.5,772 A2.5,2.5 0 0 1 199,769.5 L199,8.5 A2.5,2.5 0 0 1 201.5,6 " fill="none" style="stroke:#000000;stroke-width:1.5;"/><line style="stroke:#000000;stroke-width:1.5;" x1="199" x2="261" y1="29.6094" y2="29.6094"/><text fill="#000000" font-family="sans-serif" font-size="14" font-weight="bold" lengthAdjust="spacing" textLength="49" x="203" y="22.5332">system</text></g><!--MD5=[34d31f55fcb8b2e5dee86c97beff104b]
entity WM--><g id="elem_WM"><ellipse cx="88.5" cy="110.5" fill="#F1F1F1" rx="8" ry="8" style="stroke:#181818;stroke-width:0.5;"/><path d="M88.5,118.5 L88.5,145.5 M75.5,126.5 L101.5,126.5 M88.5,145.5 L75.5,160.5 M88.5,145.5 L101.5,160.5 " fill="none" style="stroke:#181818;stroke-width:0.5;"/><text fill="#000000" font-family="sans-serif" font-size="14" lengthAdjust="spacing" textLength="133" x="22" y="176.5332">Warehouse Manager</text></g><!--MD5=[a89ee74bb4979dbed373b93afc1c36e4]
entity FM--><g id="elem_FM"><ellipse cx="88.5" cy="223.5" fill="#F1F1F1" rx="8" ry="8" style="stroke:#181818;stroke-width:0.5;"/><path d="M88.5,231.5 L88.5,258.5 M75.5,239.5 L101.5,239.5 M88.5,258.5 L75.5,273.5 M88.5,258.5 L101.5,273.5 " fill="none" style="stroke:#181818;stroke-width:0.5;"/><text fill="#000000" font-family="sans-serif" font-size="14" lengthAdjust="spacing" textLength="92" x="42.5" y="289.5332">Fleet Manager</text></g><!--MD5=[4ff3548512ed7536ef7376856685bd64]
entity LM--><g id="elem_LM"><ellipse cx="88.5" cy="336.5" fill="#F1F1F1" rx="8" ry="8" style="stroke:#181818;stroke-width:0.5;"/><path d="M88.5,344.5 L88.5,371.5 M75.5,352.5 L101.5,352.5 M88.5,371.5 L75.5,386.5 M88.5,371.5 L101.5,386.5 " fill="none" style="stroke:#181818;stroke-width:0.5;"/><text fill="#000000" font-family="sans-serif" font-size="14" lengthAdjust="spacing" textLength="115" x="31" y="402.5332">Logistics Manager</text></g><g id="elem_UC1C"><ellipse cx="457.3351" cy="60.867" fill="#F1F1F1" rx="82.3351" ry="18.867" style="stroke:#181818;stroke-width:0.5;"/><text fill="#000000" font-family="sans-serif" font-size="14" lengthAdjust="spacing" textLength="120" x="397.3351" y="64.5955">Create Warehouse</text></g><g id="elem_UC2C"><ellipse cx="457.7427" cy="132.1485" fill="#F1F1F1" rx="73.7427" ry="17.1485" style="stroke:#181818;stroke-width:0.5;"/><text fill="#000000" font-family="sans-serif" font-size="14" lengthAdjust="spacing" textLength="98" x="405.7427" y="136.6651">Create Delivery</text></g><g id="elem_UC3C"><ellipse cx="457.4277" cy="200.0855" fill="#F1F1F1" rx="68.4277" ry="16.0855" style="stroke:#181818;stroke-width:0.5;"/><text fill="#000000" font-family="sans-serif" font-size="14" lengthAdjust="spacing" textLength="83" x="412.9277" y="204.6021">Create Truck</text></g><g id="elem_UC3L"><ellipse cx="457.4138" cy="280.8828" fill="#F1F1F1" rx="137.4138" ry="29.8828" style="stroke:#181818;stroke-width:0.5;"/><text fill="#000000" font-family="sans-serif" font-size="14" lengthAdjust="spacing" textLength="242" x="336.4138" y="284.6113">Create route between two warehouses</text></g><g id="elem_UC3E"><ellipse cx="457.4974" cy="376.0995" fill="#F1F1F1" rx="135.9974" ry="29.5995" style="stroke:#181818;stroke-width:0.5;"/><text fill="#000000" font-family="sans-serif" font-size="14" lengthAdjust="spacing" textLength="239" x="337.9974" y="379.828">Plan route for a truck on a certain day</text></g><g id="elem_UC4C"><ellipse cx="457.2518" cy="470.9504" fill="#F1F1F1" rx="140.2518" ry="30.4504" style="stroke:#181818;stroke-width:0.5;"/><text fill="#000000" font-family="sans-serif" font-size="14" lengthAdjust="spacing" textLength="248" x="333.2518" y="474.6789">View the road network graphically in 3D</text></g><g id="elem_UC4L"><ellipse cx="457.5795" cy="587.9159" fill="#F1F1F1" rx="242.5795" ry="50.9159" style="stroke:#181818;stroke-width:0.5;"/><text fill="#000000" font-family="sans-serif" font-size="14" lengthAdjust="spacing" textLength="459" x="228.0795" y="591.6444">View graphically the existing warehouses, create or import the 3D models</text></g><g id="elem_UC4E"><ellipse cx="457.6659" cy="715.0332" fill="#F1F1F1" rx="193.1659" ry="41.0332" style="stroke:#181818;stroke-width:0.5;"/><text fill="#000000" font-family="sans-serif" font-size="14" lengthAdjust="spacing" textLength="358" x="278.6659" y="718.7617">Control the display. Add the pan, zoom and orbit controls</text></g><!--MD5=[5bdd412f3071822e5ce93f551a60d9ff]
link WM to UC1C--><g id="link_WM_UC1C"><path d="M155.16,109.45 C166.9,104.7 179.16,100.3 191,97 C250.58,80.39 319.89,71.32 372.75,66.44 " fill="none" id="WM-to-UC1C" style="stroke:#181818;stroke-width:1.0;"/><polygon fill="#181818" points="377.81,65.98,368.4824,62.8185,372.8309,66.4365,369.2128,70.7851,377.81,65.98" style="stroke:#181818;stroke-width:1.0;"/></g><!--MD5=[45faf411cd2eacde7d69e8b9d4790e3e]
link WM to UC2C--><g id="link_WM_UC2C"><path d="M155.11,139.39 C217.91,137.85 312.64,135.53 379.1,133.9 " fill="none" id="WM-to-UC2C" style="stroke:#181818;stroke-width:1.0;"/><polygon fill="#181818" points="384.23,133.77,375.1407,129.9773,379.2313,133.8846,375.324,137.9752,384.23,133.77" style="stroke:#181818;stroke-width:1.0;"/></g><!--MD5=[211618c910d555766ef4d6a3a94d81e8]
link FM to UC3C--><g id="link_FM_UC3C"><path d="M134.58,243.86 C152.13,240.13 172.45,236.07 191,233 C258.15,221.9 335.41,212.7 389.2,206.85 " fill="none" id="FM-to-UC3C" style="stroke:#181818;stroke-width:1.0;"/><polygon fill="#181818" points="394.34,206.3,384.9675,203.274,389.368,206.8286,385.8133,211.2291,394.34,206.3" style="stroke:#181818;stroke-width:1.0;"/></g><!--MD5=[7503f96e7856926a0baffaf8d91a492e]
link LM to UC3L--><g id="link_LM_UC3L"><path d="M146.08,343.77 C160.56,338.4 176.21,333.07 191,329 C237.95,316.08 290.55,305.74 336.48,298.01 " fill="none" id="LM-to-UC3L" style="stroke:#181818;stroke-width:1.0;"/><polygon fill="#181818" points="341.47,297.17,331.9326,294.713,336.5388,297.9966,333.2551,302.6029,341.47,297.17" style="stroke:#181818;stroke-width:1.0;"/></g><!--MD5=[3e269715b44d34336ec1aec942a3cd59]
link LM to UC3E--><g id="link_LM_UC3E"><path d="M146.04,368.39 C191.61,369.5 257.66,371.12 317.14,372.58 " fill="none" id="LM-to-UC3E" style="stroke:#181818;stroke-width:1.0;"/><polygon fill="#181818" points="322.14,372.71,313.2338,368.5054,317.1413,372.5957,313.0509,376.5033,322.14,372.71" style="stroke:#181818;stroke-width:1.0;"/></g><!--MD5=[1c7ed2f13fc1e127d1d787adf0d2b3f5]
link LM to UC4C--><g id="link_LM_UC4C"><path d="M146.22,402.51 C160.42,410.21 175.92,417.64 191,423 C234.24,438.37 283.27,449.01 327.33,456.28 " fill="none" id="LM-to-UC4C" style="stroke:#181818;stroke-width:1.0;"/><polygon fill="#181818" points="332.4,457.11,324.1699,451.7003,327.4665,456.2973,322.8695,459.5939,332.4,457.11" style="stroke:#181818;stroke-width:1.0;"/></g><!--MD5=[da2fc6d5bf740e1f40ff76418659acd1]
link LM to UC4L--><g id="link_LM_UC4L"><path d="M105.87,406.34 C122.35,441.11 151.05,490.59 191,519 C212.01,533.94 236.01,545.65 260.8,554.83 " fill="none" id="LM-to-UC4L" style="stroke:#181818;stroke-width:1.0;"/><polygon fill="#181818" points="265.76,556.63,258.6572,549.8073,261.0581,554.9293,255.9361,557.3303,265.76,556.63" style="stroke:#181818;stroke-width:1.0;"/></g><!--MD5=[92f42c8f5decebb5e50189ea65bc2aa3]
link LM to UC4E--><g id="link_LM_UC4E"><path d="M91.59,406.04 C97.12,468.52 117.32,590.61 191,656 C213.7,676.15 241.74,689.9 271.01,699.19 " fill="none" id="LM-to-UC4E" style="stroke:#181818;stroke-width:1.0;"/><polygon fill="#181818" points="276.1,700.76,268.673,694.2917,271.3208,699.2906,266.3219,701.9384,276.1,700.76" style="stroke:#181818;stroke-width:1.0;"/></g><!--MD5=[93364d9dc8641bbece34d85530200562]
@startuml diagram
left to right direction

package SystemUsers {
    actor "Warehouse Manager" as WM
    actor "Fleet Manager" as FM
    actor "Logistics Manager" as LM
}

package system {
  usecase "Create Warehouse" as UC1C
  usecase "Create Delivery" as UC2C
  usecase "Create Truck" as UC3C
  usecase "Create route between two warehouses" as UC3L
  usecase "Plan route for a truck on a certain day" as UC3E
  usecase "View the road network graphically in 3D" as UC4C
  usecase "View graphically the existing warehouses, create or import the 3D models" as UC4L
  usecase "Control the display. Add the pan, zoom and orbit controls" as UC4E

}

WM - -> UC1C
WM - -> UC2C

FM - -> UC3C
LM - -> UC3L
LM - -> UC3E
LM - -> UC4C
LM - -> UC4L
LM - -> UC4E
@enduml

PlantUML version 1.2022.7(Mon Aug 22 20:01:30 EEST 2022)
(GPL source distribution)
Java Runtime: Java(TM) SE Runtime Environment
JVM: Java HotSpot(TM) 64-Bit Server VM
Default Encoding: Cp1252
Language: pt
Country: PT
--></g></svg>