<?xml version="1.0" encoding="UTF-8" standalone="no"?><svg xmlns="http://www.w3.org/2000/svg" xmlns:xlink="http://www.w3.org/1999/xlink" contentStyleType="text/css" height="1065px" preserveAspectRatio="none" style="width:648px;height:1065px;background:#FFFFFF;" version="1.1" viewBox="0 0 648 1065" width="648px" zoomAndPan="magnify"><defs/><g><rect fill="#ADD8E6" height="1053.5391" style="stroke:#181818;stroke-width:0.5;" width="326.5" x="315.5" y="6"/><text fill="#000000" font-family="sans-serif" font-size="13" font-weight="bold" lengthAdjust="spacing" textLength="142" x="407.75" y="19.4951">&lt;&lt;System&gt;&gt; EletricGO</text><rect fill="#FFFFFF" height="876.3203" style="stroke:#181818;stroke-width:1.0;" width="10" x="106" y="92.6094"/><rect fill="#FFFFFF" height="30.3516" style="stroke:#181818;stroke-width:1.0;" width="10" x="335" y="140.3125"/><rect fill="#FFFFFF" height="30.3516" style="stroke:#181818;stroke-width:1.0;" width="10" x="335" y="201.0156"/><rect fill="#FFFFFF" height="30.3516" style="stroke:#181818;stroke-width:1.0;" width="10" x="335" y="287.0703"/><rect fill="#FFFFFF" height="30.3516" style="stroke:#181818;stroke-width:1.0;" width="10" x="335" y="363.6094"/><rect fill="#FFFFFF" height="30.3516" style="stroke:#181818;stroke-width:1.0;" width="10" x="335" y="447.1484"/><rect fill="#FFFFFF" height="30.3516" style="stroke:#181818;stroke-width:1.0;" width="10" x="335" y="507.8516"/><rect fill="#FFFFFF" height="30.3516" style="stroke:#181818;stroke-width:1.0;" width="10" x="335" y="593.9063"/><rect fill="#FFFFFF" height="30.3516" style="stroke:#181818;stroke-width:1.0;" width="10" x="335" y="670.4453"/><rect fill="#FFFFFF" height="30.3516" style="stroke:#181818;stroke-width:1.0;" width="10" x="335" y="753.9844"/><rect fill="#FFFFFF" height="30.3516" style="stroke:#181818;stroke-width:1.0;" width="10" x="335" y="840.0391"/><rect fill="#FFFFFF" height="30.3516" style="stroke:#181818;stroke-width:1.0;" width="10" x="335" y="916.5781"/><rect fill="#FFFFFF" height="132.2422" style="stroke:#181818;stroke-width:1.0;" width="10" x="463" y="231.3672"/><rect fill="#FFFFFF" height="132.2422" style="stroke:#181818;stroke-width:1.0;" width="10" x="463" y="538.2031"/><rect fill="#FFFFFF" height="132.2422" style="stroke:#181818;stroke-width:1.0;" width="10" x="463" y="784.3359"/><rect fill="none" height="862.3203" style="stroke:#000000;stroke-width:1.5;" width="497" x="10" y="99.6094"/><rect fill="none" height="155.5938" style="stroke:#000000;stroke-width:1.5;" width="477" x="20" y="246.3672"/><rect fill="none" height="155.5938" style="stroke:#000000;stroke-width:1.5;" width="477" x="20" y="553.2031"/><rect fill="none" height="155.5938" style="stroke:#000000;stroke-width:1.5;" width="477" x="20" y="799.3359"/><line style="stroke:#181818;stroke-width:0.5;stroke-dasharray:5.0,5.0;" x1="111" x2="111" y1="82.6094" y2="978.9297"/><line style="stroke:#181818;stroke-width:0.5;stroke-dasharray:5.0,5.0;" x1="339.5" x2="339.5" y1="82.6094" y2="978.9297"/><line style="stroke:#181818;stroke-width:0.5;stroke-dasharray:5.0,5.0;" x1="468" x2="468" y1="82.6094" y2="978.9297"/><line style="stroke:#181818;stroke-width:0.5;stroke-dasharray:5.0,5.0;" x1="528" x2="528" y1="82.6094" y2="978.9297"/><line style="stroke:#181818;stroke-width:0.5;stroke-dasharray:5.0,5.0;" x1="603" x2="603" y1="82.6094" y2="978.9297"/><text fill="#000000" font-family="sans-serif" font-size="14" lengthAdjust="spacing" textLength="156" x="30" y="79.5332">WAREHOUSEMANAGER</text><ellipse cx="111" cy="13.5" fill="#E2E2F0" rx="8" ry="8" style="stroke:#181818;stroke-width:0.5;"/><path d="M111,21.5 L111,48.5 M98,29.5 L124,29.5 M111,48.5 L98,63.5 M111,48.5 L124,63.5 " fill="none" style="stroke:#181818;stroke-width:0.5;"/><text fill="#000000" font-family="sans-serif" font-size="14" lengthAdjust="spacing" textLength="156" x="30" y="992.4629">WAREHOUSEMANAGER</text><ellipse cx="111" cy="1004.0391" fill="#E2E2F0" rx="8" ry="8" style="stroke:#181818;stroke-width:0.5;"/><path d="M111,1012.0391 L111,1039.0391 M98,1020.0391 L124,1020.0391 M111,1039.0391 L98,1054.0391 M111,1039.0391 L124,1054.0391 " fill="none" style="stroke:#181818;stroke-width:0.5;"/><rect fill="#E2E2F0" height="31.6094" rx="2.5" ry="2.5" style="stroke:#181818;stroke-width:0.5;" width="41" x="319.5" y="50"/><text fill="#000000" font-family="sans-serif" font-size="14" lengthAdjust="spacing" textLength="27" x="326.5" y="71.5332">SPA</text><rect fill="#E2E2F0" height="31.6094" rx="2.5" ry="2.5" style="stroke:#181818;stroke-width:0.5;" width="41" x="319.5" y="977.9297"/><text fill="#000000" font-family="sans-serif" font-size="14" lengthAdjust="spacing" textLength="27" x="326.5" y="999.4629">SPA</text><rect fill="#E2E2F0" height="31.6094" rx="2.5" ry="2.5" style="stroke:#181818;stroke-width:0.5;" width="38" x="449" y="50"/><text fill="#000000" font-family="sans-serif" font-size="14" lengthAdjust="spacing" textLength="24" x="456" y="71.5332">WM</text><rect fill="#E2E2F0" height="31.6094" rx="2.5" ry="2.5" style="stroke:#181818;stroke-width:0.5;" width="38" x="449" y="977.9297"/><text fill="#000000" font-family="sans-serif" font-size="14" lengthAdjust="spacing" textLength="24" x="456" y="999.4629">WM</text><rect fill="#E2E2F0" height="31.6094" rx="2.5" ry="2.5" style="stroke:#181818;stroke-width:0.5;" width="62" x="497" y="50"/><text fill="#000000" font-family="sans-serif" font-size="14" lengthAdjust="spacing" textLength="48" x="504" y="71.5332">Logistic</text><rect fill="#E2E2F0" height="31.6094" rx="2.5" ry="2.5" style="stroke:#181818;stroke-width:0.5;" width="62" x="497" y="977.9297"/><text fill="#000000" font-family="sans-serif" font-size="14" lengthAdjust="spacing" textLength="48" x="504" y="999.4629">Logistic</text><rect fill="#E2E2F0" height="31.6094" rx="2.5" ry="2.5" style="stroke:#181818;stroke-width:0.5;" width="69" x="569" y="50"/><text fill="#000000" font-family="sans-serif" font-size="14" lengthAdjust="spacing" textLength="55" x="576" y="71.5332">Planning</text><rect fill="#E2E2F0" height="31.6094" rx="2.5" ry="2.5" style="stroke:#181818;stroke-width:0.5;" width="69" x="569" y="977.9297"/><text fill="#000000" font-family="sans-serif" font-size="14" lengthAdjust="spacing" textLength="55" x="576" y="999.4629">Planning</text><rect fill="#FFFFFF" height="876.3203" style="stroke:#181818;stroke-width:1.0;" width="10" x="106" y="92.6094"/><rect fill="#FFFFFF" height="30.3516" style="stroke:#181818;stroke-width:1.0;" width="10" x="335" y="140.3125"/><rect fill="#FFFFFF" height="30.3516" style="stroke:#181818;stroke-width:1.0;" width="10" x="335" y="201.0156"/><rect fill="#FFFFFF" height="30.3516" style="stroke:#181818;stroke-width:1.0;" width="10" x="335" y="287.0703"/><rect fill="#FFFFFF" height="30.3516" style="stroke:#181818;stroke-width:1.0;" width="10" x="335" y="363.6094"/><rect fill="#FFFFFF" height="30.3516" style="stroke:#181818;stroke-width:1.0;" width="10" x="335" y="447.1484"/><rect fill="#FFFFFF" height="30.3516" style="stroke:#181818;stroke-width:1.0;" width="10" x="335" y="507.8516"/><rect fill="#FFFFFF" height="30.3516" style="stroke:#181818;stroke-width:1.0;" width="10" x="335" y="593.9063"/><rect fill="#FFFFFF" height="30.3516" style="stroke:#181818;stroke-width:1.0;" width="10" x="335" y="670.4453"/><rect fill="#FFFFFF" height="30.3516" style="stroke:#181818;stroke-width:1.0;" width="10" x="335" y="753.9844"/><rect fill="#FFFFFF" height="30.3516" style="stroke:#181818;stroke-width:1.0;" width="10" x="335" y="840.0391"/><rect fill="#FFFFFF" height="30.3516" style="stroke:#181818;stroke-width:1.0;" width="10" x="335" y="916.5781"/><rect fill="#FFFFFF" height="132.2422" style="stroke:#181818;stroke-width:1.0;" width="10" x="463" y="231.3672"/><rect fill="#FFFFFF" height="132.2422" style="stroke:#181818;stroke-width:1.0;" width="10" x="463" y="538.2031"/><rect fill="#FFFFFF" height="132.2422" style="stroke:#181818;stroke-width:1.0;" width="10" x="463" y="784.3359"/><path d="M10,99.6094 L71,99.6094 L71,107.9609 L61,117.9609 L10,117.9609 L10,99.6094 " fill="#EEEEEE" style="stroke:#000000;stroke-width:1.5;"/><rect fill="none" height="862.3203" style="stroke:#000000;stroke-width:1.5;" width="497" x="10" y="99.6094"/><text fill="#000000" font-family="sans-serif" font-size="13" font-weight="bold" lengthAdjust="spacing" textLength="16" x="25" y="114.1045">alt</text><text fill="#000000" font-family="sans-serif" font-size="11" font-weight="bold" lengthAdjust="spacing" textLength="188" x="86" y="113.0283">[if you want to create the delivery]</text><polygon fill="#181818" points="323,136.3125,333,140.3125,323,144.3125,327,140.3125" style="stroke:#181818;stroke-width:1.0;"/><line style="stroke:#181818;stroke-width:1.0;" x1="116" x2="329" y1="140.3125" y2="140.3125"/><text fill="#000000" font-family="sans-serif" font-size="13" font-weight="bold" lengthAdjust="spacing" textLength="7" x="123" y="135.4561">1</text><text fill="#000000" font-family="sans-serif" font-size="13" lengthAdjust="spacing" textLength="150" x="134" y="135.4561">Starts to create a Delivery</text><polygon fill="#181818" points="127,166.6641,117,170.6641,127,174.6641,123,170.6641" style="stroke:#181818;stroke-width:1.0;"/><line style="stroke:#181818;stroke-width:1.0;stroke-dasharray:2.0,2.0;" x1="121" x2="339" y1="170.6641" y2="170.6641"/><text fill="#000000" font-family="sans-serif" font-size="13" font-weight="bold" lengthAdjust="spacing" textLength="7" x="133" y="165.8076">2</text><text fill="#000000" font-family="sans-serif" font-size="13" lengthAdjust="spacing" textLength="77" x="144" y="165.8076">Asks for data</text><polygon fill="#181818" points="323,197.0156,333,201.0156,323,205.0156,327,201.0156" style="stroke:#181818;stroke-width:1.0;"/><line style="stroke:#181818;stroke-width:1.0;" x1="116" x2="329" y1="201.0156" y2="201.0156"/><text fill="#000000" font-family="sans-serif" font-size="13" font-weight="bold" lengthAdjust="spacing" textLength="7" x="123" y="196.1592">3</text><text fill="#000000" font-family="sans-serif" font-size="13" lengthAdjust="spacing" textLength="165" x="134" y="196.1592">Introduce the requested data</text><polygon fill="#181818" points="451,227.3672,461,231.3672,451,235.3672,455,231.3672" style="stroke:#181818;stroke-width:1.0;"/><line style="stroke:#181818;stroke-width:1.0;" x1="340" x2="457" y1="231.3672" y2="231.3672"/><text fill="#000000" font-family="sans-serif" font-size="13" font-weight="bold" lengthAdjust="spacing" textLength="7" x="347" y="226.5107">4</text><text fill="#000000" font-family="sans-serif" font-size="13" lengthAdjust="spacing" textLength="35" x="358" y="226.5107">POST</text><path d="M20,246.3672 L81,246.3672 L81,254.7188 L71,264.7188 L20,264.7188 L20,246.3672 " fill="#EEEEEE" style="stroke:#000000;stroke-width:1.5;"/><rect fill="none" height="155.5938" style="stroke:#000000;stroke-width:1.5;" width="477" x="20" y="246.3672"/><text fill="#000000" font-family="sans-serif" font-size="13" font-weight="bold" lengthAdjust="spacing" textLength="16" x="35" y="260.8623">alt</text><text fill="#000000" font-family="sans-serif" font-size="11" font-weight="bold" lengthAdjust="spacing" textLength="32" x="96" y="259.7861">[if ok]</text><polygon fill="#181818" points="356,283.0703,346,287.0703,356,291.0703,352,287.0703" style="stroke:#181818;stroke-width:1.0;"/><line style="stroke:#181818;stroke-width:1.0;stroke-dasharray:2.0,2.0;" x1="350" x2="462" y1="287.0703" y2="287.0703"/><text fill="#000000" font-family="sans-serif" font-size="13" font-weight="bold" lengthAdjust="spacing" textLength="7" x="362" y="282.2139">5</text><text fill="#000000" font-family="sans-serif" font-size="13" lengthAdjust="spacing" textLength="21" x="373" y="282.2139">201</text><polygon fill="#181818" points="127,313.4219,117,317.4219,127,321.4219,123,317.4219" style="stroke:#181818;stroke-width:1.0;"/><line style="stroke:#181818;stroke-width:1.0;stroke-dasharray:2.0,2.0;" x1="121" x2="339" y1="317.4219" y2="317.4219"/><text fill="#000000" font-family="sans-serif" font-size="13" font-weight="bold" lengthAdjust="spacing" textLength="7" x="133" y="312.5654">6</text><text fill="#000000" font-family="sans-serif" font-size="13" lengthAdjust="spacing" textLength="61" x="144" y="312.5654">CREATED</text><line style="stroke:#000000;stroke-width:1.0;stroke-dasharray:2.0,2.0;" x1="20" x2="497" y1="326.4219" y2="326.4219"/><text fill="#000000" font-family="sans-serif" font-size="11" font-weight="bold" lengthAdjust="spacing" textLength="37" x="25" y="337.8408">[error]</text><polygon fill="#181818" points="356,359.6094,346,363.6094,356,367.6094,352,363.6094" style="stroke:#181818;stroke-width:1.0;"/><line style="stroke:#181818;stroke-width:1.0;stroke-dasharray:2.0,2.0;" x1="350" x2="467" y1="363.6094" y2="363.6094"/><text fill="#000000" font-family="sans-serif" font-size="13" font-weight="bold" lengthAdjust="spacing" textLength="7" x="362" y="358.7529">7</text><text fill="#000000" font-family="sans-serif" font-size="13" lengthAdjust="spacing" textLength="46" x="373" y="358.7529">400/423</text><polygon fill="#181818" points="127,389.9609,117,393.9609,127,397.9609,123,393.9609" style="stroke:#181818;stroke-width:1.0;"/><line style="stroke:#181818;stroke-width:1.0;stroke-dasharray:2.0,2.0;" x1="121" x2="339" y1="393.9609" y2="393.9609"/><text fill="#000000" font-family="sans-serif" font-size="13" font-weight="bold" lengthAdjust="spacing" textLength="7" x="133" y="389.1045">8</text><text fill="#000000" font-family="sans-serif" font-size="13" lengthAdjust="spacing" textLength="46" x="144" y="389.1045">ERROR</text><line style="stroke:#000000;stroke-width:1.0;stroke-dasharray:2.0,2.0;" x1="10" x2="507" y1="409.9609" y2="409.9609"/><text fill="#000000" font-family="sans-serif" font-size="11" font-weight="bold" lengthAdjust="spacing" textLength="174" x="15" y="421.3799">[if you want to edit the delivery]</text><polygon fill="#181818" points="323,443.1484,333,447.1484,323,451.1484,327,447.1484" style="stroke:#181818;stroke-width:1.0;"/><line style="stroke:#181818;stroke-width:1.0;" x1="116" x2="329" y1="447.1484" y2="447.1484"/><text fill="#000000" font-family="sans-serif" font-size="13" font-weight="bold" lengthAdjust="spacing" textLength="7" x="123" y="442.292">9</text><text fill="#000000" font-family="sans-serif" font-size="13" lengthAdjust="spacing" textLength="135" x="134" y="442.292">Starts to edit a Delivery</text><polygon fill="#181818" points="127,473.5,117,477.5,127,481.5,123,477.5" style="stroke:#181818;stroke-width:1.0;"/><line style="stroke:#181818;stroke-width:1.0;stroke-dasharray:2.0,2.0;" x1="121" x2="339" y1="477.5" y2="477.5"/><text fill="#000000" font-family="sans-serif" font-size="13" font-weight="bold" lengthAdjust="spacing" textLength="14" x="133" y="472.6436">10</text><text fill="#000000" font-family="sans-serif" font-size="13" lengthAdjust="spacing" textLength="77" x="151" y="472.6436">Asks for data</text><polygon fill="#181818" points="323,503.8516,333,507.8516,323,511.8516,327,507.8516" style="stroke:#181818;stroke-width:1.0;"/><line style="stroke:#181818;stroke-width:1.0;" x1="116" x2="329" y1="507.8516" y2="507.8516"/><text fill="#000000" font-family="sans-serif" font-size="13" font-weight="bold" lengthAdjust="spacing" textLength="14" x="123" y="502.9951">11</text><text fill="#000000" font-family="sans-serif" font-size="13" lengthAdjust="spacing" textLength="165" x="141" y="502.9951">Introduce the requested data</text><polygon fill="#181818" points="451,534.2031,461,538.2031,451,542.2031,455,538.2031" style="stroke:#181818;stroke-width:1.0;"/><line style="stroke:#181818;stroke-width:1.0;" x1="340" x2="457" y1="538.2031" y2="538.2031"/><text fill="#000000" font-family="sans-serif" font-size="13" font-weight="bold" lengthAdjust="spacing" textLength="14" x="347" y="533.3467">12</text><text fill="#000000" font-family="sans-serif" font-size="13" lengthAdjust="spacing" textLength="35" x="365" y="533.3467">POST</text><path d="M20,553.2031 L81,553.2031 L81,561.5547 L71,571.5547 L20,571.5547 L20,553.2031 " fill="#EEEEEE" style="stroke:#000000;stroke-width:1.5;"/><rect fill="none" height="155.5938" style="stroke:#000000;stroke-width:1.5;" width="477" x="20" y="553.2031"/><text fill="#000000" font-family="sans-serif" font-size="13" font-weight="bold" lengthAdjust="spacing" textLength="16" x="35" y="567.6982">alt</text><text fill="#000000" font-family="sans-serif" font-size="11" font-weight="bold" lengthAdjust="spacing" textLength="32" x="96" y="566.6221">[if ok]</text><polygon fill="#181818" points="356,589.9063,346,593.9063,356,597.9063,352,593.9063" style="stroke:#181818;stroke-width:1.0;"/><line style="stroke:#181818;stroke-width:1.0;stroke-dasharray:2.0,2.0;" x1="350" x2="462" y1="593.9063" y2="593.9063"/><text fill="#000000" font-family="sans-serif" font-size="13" font-weight="bold" lengthAdjust="spacing" textLength="14" x="362" y="589.0498">13</text><text fill="#000000" font-family="sans-serif" font-size="13" lengthAdjust="spacing" textLength="21" x="380" y="589.0498">200</text><polygon fill="#181818" points="127,620.2578,117,624.2578,127,628.2578,123,624.2578" style="stroke:#181818;stroke-width:1.0;"/><line style="stroke:#181818;stroke-width:1.0;stroke-dasharray:2.0,2.0;" x1="121" x2="339" y1="624.2578" y2="624.2578"/><text fill="#000000" font-family="sans-serif" font-size="13" font-weight="bold" lengthAdjust="spacing" textLength="14" x="133" y="619.4014">14</text><text fill="#000000" font-family="sans-serif" font-size="13" lengthAdjust="spacing" textLength="19" x="151" y="619.4014">OK</text><line style="stroke:#000000;stroke-width:1.0;stroke-dasharray:2.0,2.0;" x1="20" x2="497" y1="633.2578" y2="633.2578"/><text fill="#000000" font-family="sans-serif" font-size="11" font-weight="bold" lengthAdjust="spacing" textLength="37" x="25" y="644.6768">[error]</text><polygon fill="#181818" points="356,666.4453,346,670.4453,356,674.4453,352,670.4453" style="stroke:#181818;stroke-width:1.0;"/><line style="stroke:#181818;stroke-width:1.0;stroke-dasharray:2.0,2.0;" x1="350" x2="467" y1="670.4453" y2="670.4453"/><text fill="#000000" font-family="sans-serif" font-size="13" font-weight="bold" lengthAdjust="spacing" textLength="14" x="362" y="665.5889">15</text><text fill="#000000" font-family="sans-serif" font-size="13" lengthAdjust="spacing" textLength="46" x="380" y="665.5889">400/423</text><polygon fill="#181818" points="127,696.7969,117,700.7969,127,704.7969,123,700.7969" style="stroke:#181818;stroke-width:1.0;"/><line style="stroke:#181818;stroke-width:1.0;stroke-dasharray:2.0,2.0;" x1="121" x2="339" y1="700.7969" y2="700.7969"/><text fill="#000000" font-family="sans-serif" font-size="13" font-weight="bold" lengthAdjust="spacing" textLength="14" x="133" y="695.9404">16</text><text fill="#000000" font-family="sans-serif" font-size="13" lengthAdjust="spacing" textLength="46" x="151" y="695.9404">ERROR</text><line style="stroke:#000000;stroke-width:1.0;stroke-dasharray:2.0,2.0;" x1="10" x2="507" y1="716.7969" y2="716.7969"/><text fill="#000000" font-family="sans-serif" font-size="11" font-weight="bold" lengthAdjust="spacing" textLength="181" x="15" y="728.2158">[if you want to list the deliveries]</text><polygon fill="#181818" points="323,749.9844,333,753.9844,323,757.9844,327,753.9844" style="stroke:#181818;stroke-width:1.0;"/><line style="stroke:#181818;stroke-width:1.0;" x1="116" x2="329" y1="753.9844" y2="753.9844"/><text fill="#000000" font-family="sans-serif" font-size="13" font-weight="bold" lengthAdjust="spacing" textLength="14" x="123" y="749.1279">17</text><text fill="#000000" font-family="sans-serif" font-size="13" lengthAdjust="spacing" textLength="145" x="141" y="749.1279">asks to list the Deliveries</text><polygon fill="#181818" points="451,780.3359,461,784.3359,451,788.3359,455,784.3359" style="stroke:#181818;stroke-width:1.0;"/><line style="stroke:#181818;stroke-width:1.0;" x1="340" x2="457" y1="784.3359" y2="784.3359"/><text fill="#000000" font-family="sans-serif" font-size="13" font-weight="bold" lengthAdjust="spacing" textLength="14" x="347" y="779.4795">18</text><text fill="#000000" font-family="sans-serif" font-size="13" lengthAdjust="spacing" textLength="81" x="365" y="779.4795">getDeliveries()</text><path d="M20,799.3359 L81,799.3359 L81,807.6875 L71,817.6875 L20,817.6875 L20,799.3359 " fill="#EEEEEE" style="stroke:#000000;stroke-width:1.5;"/><rect fill="none" height="155.5938" style="stroke:#000000;stroke-width:1.5;" width="477" x="20" y="799.3359"/><text fill="#000000" font-family="sans-serif" font-size="13" font-weight="bold" lengthAdjust="spacing" textLength="16" x="35" y="813.8311">alt</text><text fill="#000000" font-family="sans-serif" font-size="11" font-weight="bold" lengthAdjust="spacing" textLength="32" x="96" y="812.7549">[if ok]</text><polygon fill="#181818" points="356,836.0391,346,840.0391,356,844.0391,352,840.0391" style="stroke:#181818;stroke-width:1.0;"/><line style="stroke:#181818;stroke-width:1.0;stroke-dasharray:2.0,2.0;" x1="350" x2="462" y1="840.0391" y2="840.0391"/><text fill="#000000" font-family="sans-serif" font-size="13" font-weight="bold" lengthAdjust="spacing" textLength="14" x="362" y="835.1826">19</text><text fill="#000000" font-family="sans-serif" font-size="13" lengthAdjust="spacing" textLength="21" x="380" y="835.1826">200</text><polygon fill="#181818" points="127,866.3906,117,870.3906,127,874.3906,123,870.3906" style="stroke:#181818;stroke-width:1.0;"/><line style="stroke:#181818;stroke-width:1.0;stroke-dasharray:2.0,2.0;" x1="121" x2="339" y1="870.3906" y2="870.3906"/><text fill="#000000" font-family="sans-serif" font-size="13" font-weight="bold" lengthAdjust="spacing" textLength="14" x="133" y="865.5342">20</text><text fill="#000000" font-family="sans-serif" font-size="13" lengthAdjust="spacing" textLength="177" x="151" y="865.5342">OK and shows list of deliveries</text><line style="stroke:#000000;stroke-width:1.0;stroke-dasharray:2.0,2.0;" x1="20" x2="497" y1="879.3906" y2="879.3906"/><text fill="#000000" font-family="sans-serif" font-size="11" font-weight="bold" lengthAdjust="spacing" textLength="37" x="25" y="890.8096">[error]</text><polygon fill="#181818" points="356,912.5781,346,916.5781,356,920.5781,352,916.5781" style="stroke:#181818;stroke-width:1.0;"/><line style="stroke:#181818;stroke-width:1.0;stroke-dasharray:2.0,2.0;" x1="350" x2="467" y1="916.5781" y2="916.5781"/><text fill="#000000" font-family="sans-serif" font-size="13" font-weight="bold" lengthAdjust="spacing" textLength="14" x="362" y="911.7217">21</text><text fill="#000000" font-family="sans-serif" font-size="13" lengthAdjust="spacing" textLength="46" x="380" y="911.7217">400/423</text><polygon fill="#181818" points="127,942.9297,117,946.9297,127,950.9297,123,946.9297" style="stroke:#181818;stroke-width:1.0;"/><line style="stroke:#181818;stroke-width:1.0;stroke-dasharray:2.0,2.0;" x1="121" x2="339" y1="946.9297" y2="946.9297"/><text fill="#000000" font-family="sans-serif" font-size="13" font-weight="bold" lengthAdjust="spacing" textLength="14" x="133" y="942.0732">22</text><text fill="#000000" font-family="sans-serif" font-size="13" lengthAdjust="spacing" textLength="46" x="151" y="942.0732">ERROR</text><!--MD5=[11b1d9657254ed4743266e4cda13caa4]
@startuml Sequence Diagram
autonumber

actor WAREHOUSEMANAGER as WMR

activate WMR
box "<<System>> EletricGO" #LightBlue
'participant "<<System>> EletricGO" as E
participant "SPA" as SPA
participant "WM" as WM
participant "Logistic" as LOG
participant "Planning" as PLAN
end box

alt if you want to create the delivery
    WMR -> SPA: Starts to create a Delivery
    activate SPA
    SPA - -> WMR: Asks for data
    deactivate SPA
    WMR-> SPA: Introduce the requested data
    activate SPA
    SPA -> WM: POST
    deactivate SPA
    activate WM
    alt if ok 

        WM - -> SPA: 201 
        activate SPA
        WMR <- - SPA: CREATED
        deactivate SPA

    else error 
        SPA <- - WM: 400/423
        deactivate WM
        activate SPA
        WMR <- - SPA: ERROR
        deactivate SPA

        end alt
    else if you want to edit the delivery

        WMR -> SPA: Starts to edit a Delivery
        activate SPA
        SPA - -> WMR: Asks for data
        deactivate SPA

        WMR-> SPA: Introduce the requested data

        activate SPA
        SPA -> WM: POST
        deactivate SPA
        activate WM

        alt if ok 

            WM - -> SPA: 200
            activate SPA
            WMR <- - SPA: OK
            deactivate SPA
        else error 
            SPA <- - WM: 400/423
            deactivate WM
            activate SPA

            WMR <- - SPA: ERROR
            deactivate SPA
            end alt

        else if you want to list the deliveries
            WMR -> SPA: asks to list the Deliveries
            activate SPA
            SPA -> WM: getDeliveries()
            deactivate SPA
            activate WM
            alt if ok 

                WM - -> SPA: 200
                activate SPA
                WMR <- - SPA: OK and shows list of deliveries
                deactivate SPA
            else error 
                SPA <- - WM: 400/423
                deactivate WM
                activate SPA

                WMR <- - SPA: ERROR
                deactivate SPA

                end alt
                end alt
                deactivate WMR

@enduml

@startuml Sequence Diagram
autonumber

actor WAREHOUSEMANAGER as WMR

activate WMR
box "<<System>> EletricGO" #LightBlue
participant "SPA" as SPA
participant "WM" as WM
participant "Logistic" as LOG
participant "Planning" as PLAN
end box

alt if you want to create the delivery
    WMR -> SPA: Starts to create a Delivery
    activate SPA
    SPA - -> WMR: Asks for data
    deactivate SPA
    WMR-> SPA: Introduce the requested data
    activate SPA
    SPA -> WM: POST
    deactivate SPA
    activate WM
    alt if ok 

        WM - -> SPA: 201 
        activate SPA
        WMR <- - SPA: CREATED
        deactivate SPA

    else error 
        SPA <- - WM: 400/423
        deactivate WM
        activate SPA
        WMR <- - SPA: ERROR
        deactivate SPA

        end alt
    else if you want to edit the delivery

        WMR -> SPA: Starts to edit a Delivery
        activate SPA
        SPA - -> WMR: Asks for data
        deactivate SPA

        WMR-> SPA: Introduce the requested data

        activate SPA
        SPA -> WM: POST
        deactivate SPA
        activate WM

        alt if ok 

            WM - -> SPA: 200
            activate SPA
            WMR <- - SPA: OK
            deactivate SPA
        else error 
            SPA <- - WM: 400/423
            deactivate WM
            activate SPA

            WMR <- - SPA: ERROR
            deactivate SPA
            end alt

        else if you want to list the deliveries
            WMR -> SPA: asks to list the Deliveries
            activate SPA
            SPA -> WM: getDeliveries()
            deactivate SPA
            activate WM
            alt if ok 

                WM - -> SPA: 200
                activate SPA
                WMR <- - SPA: OK and shows list of deliveries
                deactivate SPA
            else error 
                SPA <- - WM: 400/423
                deactivate WM
                activate SPA

                WMR <- - SPA: ERROR
                deactivate SPA

                end alt
                end alt
                deactivate WMR

@enduml

PlantUML version 1.2022.7(Mon Aug 22 18:01:30 BST 2022)
(GPL source distribution)
Java Runtime: Java(TM) SE Runtime Environment
JVM: Java HotSpot(TM) 64-Bit Server VM
Default Encoding: Cp1252
Language: pt
Country: PT
--></g></svg>