<?xml version="1.0" encoding="UTF-8" standalone="no"?><svg xmlns="http://www.w3.org/2000/svg" xmlns:xlink="http://www.w3.org/1999/xlink" contentStyleType="text/css" height="1031px" preserveAspectRatio="none" style="width:713px;height:1031px;background:#FFFFFF;" version="1.1" viewBox="0 0 713 1031" width="713px" zoomAndPan="magnify"><defs/><g><rect fill="#ADD8E6" height="1019.8262" style="stroke:#181818;stroke-width:0.5;" width="399" x="308" y="6"/><text fill="#000000" font-family="sans-serif" font-size="13" font-weight="bold" lengthAdjust="spacing" textLength="155" x="430" y="18.5684">&lt;&lt;System&gt;&gt; EletricGO</text><rect fill="#FFFFFF" height="844.8496" style="stroke:#181818;stroke-width:1.0;" width="10" x="94" y="91.4883"/><rect fill="#FFFFFF" height="29.3105" style="stroke:#181818;stroke-width:1.0;" width="10" x="327" y="137.1094"/><rect fill="#FFFFFF" height="29.3105" style="stroke:#181818;stroke-width:1.0;" width="10" x="327" y="195.7305"/><rect fill="#FFFFFF" height="29.3105" style="stroke:#181818;stroke-width:1.0;" width="10" x="327" y="278.6621"/><rect fill="#FFFFFF" height="29.3105" style="stroke:#181818;stroke-width:1.0;" width="10" x="327" y="352.2383"/><rect fill="#FFFFFF" height="29.3105" style="stroke:#181818;stroke-width:1.0;" width="10" x="327" y="432.8145"/><rect fill="#FFFFFF" height="29.3105" style="stroke:#181818;stroke-width:1.0;" width="10" x="327" y="491.4355"/><rect fill="#FFFFFF" height="29.3105" style="stroke:#181818;stroke-width:1.0;" width="10" x="327" y="574.3672"/><rect fill="#FFFFFF" height="29.3105" style="stroke:#181818;stroke-width:1.0;" width="10" x="327" y="647.9434"/><rect fill="#FFFFFF" height="29.3105" style="stroke:#181818;stroke-width:1.0;" width="10" x="327" y="728.5195"/><rect fill="#FFFFFF" height="29.3105" style="stroke:#181818;stroke-width:1.0;" width="10" x="327" y="811.4512"/><rect fill="#FFFFFF" height="29.3105" style="stroke:#181818;stroke-width:1.0;" width="10" x="327" y="885.0273"/><rect fill="#FFFFFF" height="127.1973" style="stroke:#181818;stroke-width:1.0;" width="10" x="433" y="225.041"/><rect fill="#FFFFFF" height="127.1973" style="stroke:#181818;stroke-width:1.0;" width="10" x="433" y="520.7461"/><rect fill="#FFFFFF" height="127.1973" style="stroke:#181818;stroke-width:1.0;" width="10" x="433" y="757.8301"/><rect fill="none" height="830.8496" style="stroke:#000000;stroke-width:1.5;" width="500" x="10" y="98.4883"/><rect fill="none" height="149.5078" style="stroke:#000000;stroke-width:1.5;" width="480" x="20" y="240.041"/><rect fill="none" height="149.5078" style="stroke:#000000;stroke-width:1.5;" width="480" x="20" y="535.7461"/><rect fill="none" height="149.5078" style="stroke:#000000;stroke-width:1.5;" width="480" x="20" y="772.8301"/><line style="stroke:#181818;stroke-width:0.5;stroke-dasharray:5.0,5.0;" x1="99" x2="99" y1="81.4883" y2="946.3379"/><line style="stroke:#181818;stroke-width:0.5;stroke-dasharray:5.0,5.0;" x1="332" x2="332" y1="81.4883" y2="946.3379"/><line style="stroke:#181818;stroke-width:0.5;stroke-dasharray:5.0,5.0;" x1="438" x2="438" y1="81.4883" y2="946.3379"/><line style="stroke:#181818;stroke-width:0.5;stroke-dasharray:5.0,5.0;" x1="559" x2="559" y1="81.4883" y2="946.3379"/><line style="stroke:#181818;stroke-width:0.5;stroke-dasharray:5.0,5.0;" x1="666" x2="666" y1="81.4883" y2="946.3379"/><text fill="#000000" font-family="sans-serif" font-size="14" lengthAdjust="spacing" textLength="132" x="30" y="78.5352">LOGISTICMANAGER</text><ellipse cx="99" cy="13.5" fill="#E2E2F0" rx="8" ry="8" style="stroke:#181818;stroke-width:0.5;"/><path d="M99,21.5 L99,48.5 M86,29.5 L112,29.5 M99,48.5 L86,63.5 M99,48.5 L112,63.5 " fill="none" style="stroke:#181818;stroke-width:0.5;"/><text fill="#000000" font-family="sans-serif" font-size="14" lengthAdjust="spacing" textLength="132" x="30" y="958.873">LOGISTICMANAGER</text><ellipse cx="99" cy="970.3262" fill="#E2E2F0" rx="8" ry="8" style="stroke:#181818;stroke-width:0.5;"/><path d="M99,978.3262 L99,1005.3262 M86,986.3262 L112,986.3262 M99,1005.3262 L86,1020.3262 M99,1005.3262 L112,1020.3262 " fill="none" style="stroke:#181818;stroke-width:0.5;"/><rect fill="#E2E2F0" height="30.4883" rx="2.5" ry="2.5" style="stroke:#181818;stroke-width:0.5;" width="40" x="312" y="50"/><text fill="#000000" font-family="sans-serif" font-size="14" lengthAdjust="spacing" textLength="26" x="319" y="70.5352">SPA</text><rect fill="#E2E2F0" height="30.4883" rx="2.5" ry="2.5" style="stroke:#181818;stroke-width:0.5;" width="40" x="312" y="945.3379"/><text fill="#000000" font-family="sans-serif" font-size="14" lengthAdjust="spacing" textLength="26" x="319" y="965.873">SPA</text><rect fill="#E2E2F0" height="30.4883" rx="2.5" ry="2.5" style="stroke:#181818;stroke-width:0.5;" width="104" x="386" y="50"/><text fill="#000000" font-family="sans-serif" font-size="14" lengthAdjust="spacing" textLength="90" x="393" y="70.5352">LOGISTICS_M</text><rect fill="#E2E2F0" height="30.4883" rx="2.5" ry="2.5" style="stroke:#181818;stroke-width:0.5;" width="104" x="386" y="945.3379"/><text fill="#000000" font-family="sans-serif" font-size="14" lengthAdjust="spacing" textLength="90" x="393" y="965.873">LOGISTICS_M</text><rect fill="#E2E2F0" height="30.4883" rx="2.5" ry="2.5" style="stroke:#181818;stroke-width:0.5;" width="119" x="500" y="50"/><text fill="#000000" font-family="sans-serif" font-size="14" lengthAdjust="spacing" textLength="105" x="507" y="70.5352">WAREHOUSE_M</text><rect fill="#E2E2F0" height="30.4883" rx="2.5" ry="2.5" style="stroke:#181818;stroke-width:0.5;" width="119" x="500" y="945.3379"/><text fill="#000000" font-family="sans-serif" font-size="14" lengthAdjust="spacing" textLength="105" x="507" y="965.873">WAREHOUSE_M</text><rect fill="#E2E2F0" height="30.4883" rx="2.5" ry="2.5" style="stroke:#181818;stroke-width:0.5;" width="74" x="629" y="50"/><text fill="#000000" font-family="sans-serif" font-size="14" lengthAdjust="spacing" textLength="60" x="636" y="70.5352">Planning</text><rect fill="#E2E2F0" height="30.4883" rx="2.5" ry="2.5" style="stroke:#181818;stroke-width:0.5;" width="74" x="629" y="945.3379"/><text fill="#000000" font-family="sans-serif" font-size="14" lengthAdjust="spacing" textLength="60" x="636" y="965.873">Planning</text><rect fill="#FFFFFF" height="844.8496" style="stroke:#181818;stroke-width:1.0;" width="10" x="94" y="91.4883"/><rect fill="#FFFFFF" height="29.3105" style="stroke:#181818;stroke-width:1.0;" width="10" x="327" y="137.1094"/><rect fill="#FFFFFF" height="29.3105" style="stroke:#181818;stroke-width:1.0;" width="10" x="327" y="195.7305"/><rect fill="#FFFFFF" height="29.3105" style="stroke:#181818;stroke-width:1.0;" width="10" x="327" y="278.6621"/><rect fill="#FFFFFF" height="29.3105" style="stroke:#181818;stroke-width:1.0;" width="10" x="327" y="352.2383"/><rect fill="#FFFFFF" height="29.3105" style="stroke:#181818;stroke-width:1.0;" width="10" x="327" y="432.8145"/><rect fill="#FFFFFF" height="29.3105" style="stroke:#181818;stroke-width:1.0;" width="10" x="327" y="491.4355"/><rect fill="#FFFFFF" height="29.3105" style="stroke:#181818;stroke-width:1.0;" width="10" x="327" y="574.3672"/><rect fill="#FFFFFF" height="29.3105" style="stroke:#181818;stroke-width:1.0;" width="10" x="327" y="647.9434"/><rect fill="#FFFFFF" height="29.3105" style="stroke:#181818;stroke-width:1.0;" width="10" x="327" y="728.5195"/><rect fill="#FFFFFF" height="29.3105" style="stroke:#181818;stroke-width:1.0;" width="10" x="327" y="811.4512"/><rect fill="#FFFFFF" height="29.3105" style="stroke:#181818;stroke-width:1.0;" width="10" x="327" y="885.0273"/><rect fill="#FFFFFF" height="127.1973" style="stroke:#181818;stroke-width:1.0;" width="10" x="433" y="225.041"/><rect fill="#FFFFFF" height="127.1973" style="stroke:#181818;stroke-width:1.0;" width="10" x="433" y="520.7461"/><rect fill="#FFFFFF" height="127.1973" style="stroke:#181818;stroke-width:1.0;" width="10" x="433" y="757.8301"/><path d="M10,98.4883 L72,98.4883 L72,105.7988 L62,115.7988 L10,115.7988 L10,98.4883 " fill="#EEEEEE" style="stroke:#000000;stroke-width:1.5;"/><rect fill="none" height="830.8496" style="stroke:#000000;stroke-width:1.5;" width="500" x="10" y="98.4883"/><text fill="#000000" font-family="sans-serif" font-size="13" font-weight="bold" lengthAdjust="spacing" textLength="17" x="25" y="112.0566">alt</text><text fill="#000000" font-family="sans-serif" font-size="11" font-weight="bold" lengthAdjust="spacing" textLength="127" x="87" y="111.123">[if Route doesn't exist]</text><polygon fill="#181818" points="315,133.1094,325,137.1094,315,141.1094,319,137.1094" style="stroke:#181818;stroke-width:1.0;"/><line style="stroke:#181818;stroke-width:1.0;" x1="104" x2="321" y1="137.1094" y2="137.1094"/><text fill="#000000" font-family="sans-serif" font-size="13" font-weight="bold" lengthAdjust="spacing" textLength="9" x="111" y="132.3672">1</text><text fill="#000000" font-family="sans-serif" font-size="13" lengthAdjust="spacing" textLength="146" x="124" y="132.3672">Starts to create a Route</text><polygon fill="#181818" points="115,162.4199,105,166.4199,115,170.4199,111,166.4199" style="stroke:#181818;stroke-width:1.0;"/><line style="stroke:#181818;stroke-width:1.0;stroke-dasharray:2.0,2.0;" x1="109" x2="331" y1="166.4199" y2="166.4199"/><text fill="#000000" font-family="sans-serif" font-size="13" font-weight="bold" lengthAdjust="spacing" textLength="9" x="121" y="161.6777">2</text><text fill="#000000" font-family="sans-serif" font-size="13" lengthAdjust="spacing" textLength="84" x="134" y="161.6777">Asks for data</text><polygon fill="#181818" points="315,191.7305,325,195.7305,315,199.7305,319,195.7305" style="stroke:#181818;stroke-width:1.0;"/><line style="stroke:#181818;stroke-width:1.0;" x1="104" x2="321" y1="195.7305" y2="195.7305"/><text fill="#000000" font-family="sans-serif" font-size="13" font-weight="bold" lengthAdjust="spacing" textLength="9" x="111" y="190.9883">3</text><text fill="#000000" font-family="sans-serif" font-size="13" lengthAdjust="spacing" textLength="181" x="124" y="190.9883">Introduce the requested data</text><polygon fill="#181818" points="421,221.041,431,225.041,421,229.041,425,225.041" style="stroke:#181818;stroke-width:1.0;"/><line style="stroke:#181818;stroke-width:1.0;" x1="332" x2="427" y1="225.041" y2="225.041"/><text fill="#000000" font-family="sans-serif" font-size="13" font-weight="bold" lengthAdjust="spacing" textLength="9" x="339" y="220.2988">4</text><text fill="#000000" font-family="sans-serif" font-size="13" lengthAdjust="spacing" textLength="32" x="352" y="220.2988">POST</text><path d="M20,240.041 L82,240.041 L82,247.3516 L72,257.3516 L20,257.3516 L20,240.041 " fill="#EEEEEE" style="stroke:#000000;stroke-width:1.5;"/><rect fill="none" height="149.5078" style="stroke:#000000;stroke-width:1.5;" width="480" x="20" y="240.041"/><text fill="#000000" font-family="sans-serif" font-size="13" font-weight="bold" lengthAdjust="spacing" textLength="17" x="35" y="253.6094">alt</text><text fill="#000000" font-family="sans-serif" font-size="11" font-weight="bold" lengthAdjust="spacing" textLength="35" x="97" y="252.6758">[if ok]</text><polygon fill="#181818" points="348,274.6621,338,278.6621,348,282.6621,344,278.6621" style="stroke:#181818;stroke-width:1.0;"/><line style="stroke:#181818;stroke-width:1.0;stroke-dasharray:2.0,2.0;" x1="342" x2="432" y1="278.6621" y2="278.6621"/><text fill="#000000" font-family="sans-serif" font-size="13" font-weight="bold" lengthAdjust="spacing" textLength="9" x="354" y="273.9199">5</text><text fill="#000000" font-family="sans-serif" font-size="13" lengthAdjust="spacing" textLength="24" x="367" y="273.9199">201</text><polygon fill="#181818" points="115,303.9727,105,307.9727,115,311.9727,111,307.9727" style="stroke:#181818;stroke-width:1.0;"/><line style="stroke:#181818;stroke-width:1.0;stroke-dasharray:2.0,2.0;" x1="109" x2="331" y1="307.9727" y2="307.9727"/><text fill="#000000" font-family="sans-serif" font-size="13" font-weight="bold" lengthAdjust="spacing" textLength="9" x="121" y="303.2305">6</text><text fill="#000000" font-family="sans-serif" font-size="13" lengthAdjust="spacing" textLength="18" x="134" y="303.2305">OK</text><line style="stroke:#000000;stroke-width:1.0;stroke-dasharray:2.0,2.0;" x1="20" x2="500" y1="316.9727" y2="316.9727"/><text fill="#000000" font-family="sans-serif" font-size="11" font-weight="bold" lengthAdjust="spacing" textLength="36" x="25" y="327.6074">[error]</text><polygon fill="#181818" points="348,348.2383,338,352.2383,348,356.2383,344,352.2383" style="stroke:#181818;stroke-width:1.0;"/><line style="stroke:#181818;stroke-width:1.0;stroke-dasharray:2.0,2.0;" x1="342" x2="437" y1="352.2383" y2="352.2383"/><text fill="#000000" font-family="sans-serif" font-size="13" font-weight="bold" lengthAdjust="spacing" textLength="9" x="354" y="347.4961">7</text><text fill="#000000" font-family="sans-serif" font-size="13" lengthAdjust="spacing" textLength="55" x="367" y="347.4961">400/423</text><polygon fill="#181818" points="115,377.5488,105,381.5488,115,385.5488,111,381.5488" style="stroke:#181818;stroke-width:1.0;"/><line style="stroke:#181818;stroke-width:1.0;stroke-dasharray:2.0,2.0;" x1="109" x2="331" y1="381.5488" y2="381.5488"/><text fill="#000000" font-family="sans-serif" font-size="13" font-weight="bold" lengthAdjust="spacing" textLength="9" x="121" y="376.8066">8</text><text fill="#000000" font-family="sans-serif" font-size="13" lengthAdjust="spacing" textLength="41" x="134" y="376.8066">ERROR</text><line style="stroke:#000000;stroke-width:1.0;stroke-dasharray:2.0,2.0;" x1="10" x2="510" y1="397.5488" y2="397.5488"/><text fill="#000000" font-family="sans-serif" font-size="11" font-weight="bold" lengthAdjust="spacing" textLength="168" x="15" y="408.1836">[if you want to edit the Route]</text><polygon fill="#181818" points="315,428.8145,325,432.8145,315,436.8145,319,432.8145" style="stroke:#181818;stroke-width:1.0;"/><line style="stroke:#181818;stroke-width:1.0;" x1="104" x2="321" y1="432.8145" y2="432.8145"/><text fill="#000000" font-family="sans-serif" font-size="13" font-weight="bold" lengthAdjust="spacing" textLength="9" x="111" y="428.0723">9</text><text fill="#000000" font-family="sans-serif" font-size="13" lengthAdjust="spacing" textLength="132" x="124" y="428.0723">Starts to edit a Route</text><polygon fill="#181818" points="115,458.125,105,462.125,115,466.125,111,462.125" style="stroke:#181818;stroke-width:1.0;"/><line style="stroke:#181818;stroke-width:1.0;stroke-dasharray:2.0,2.0;" x1="109" x2="331" y1="462.125" y2="462.125"/><text fill="#000000" font-family="sans-serif" font-size="13" font-weight="bold" lengthAdjust="spacing" textLength="18" x="121" y="457.3828">10</text><text fill="#000000" font-family="sans-serif" font-size="13" lengthAdjust="spacing" textLength="84" x="143" y="457.3828">Asks for data</text><polygon fill="#181818" points="315,487.4355,325,491.4355,315,495.4355,319,491.4355" style="stroke:#181818;stroke-width:1.0;"/><line style="stroke:#181818;stroke-width:1.0;" x1="104" x2="321" y1="491.4355" y2="491.4355"/><text fill="#000000" font-family="sans-serif" font-size="13" font-weight="bold" lengthAdjust="spacing" textLength="18" x="111" y="486.6934">11</text><text fill="#000000" font-family="sans-serif" font-size="13" lengthAdjust="spacing" textLength="181" x="133" y="486.6934">Introduce the requested data</text><polygon fill="#181818" points="421,516.7461,431,520.7461,421,524.7461,425,520.7461" style="stroke:#181818;stroke-width:1.0;"/><line style="stroke:#181818;stroke-width:1.0;" x1="332" x2="427" y1="520.7461" y2="520.7461"/><text fill="#000000" font-family="sans-serif" font-size="13" font-weight="bold" lengthAdjust="spacing" textLength="18" x="339" y="516.0039">12</text><text fill="#000000" font-family="sans-serif" font-size="13" lengthAdjust="spacing" textLength="24" x="361" y="516.0039">PUT</text><path d="M20,535.7461 L82,535.7461 L82,543.0566 L72,553.0566 L20,553.0566 L20,535.7461 " fill="#EEEEEE" style="stroke:#000000;stroke-width:1.5;"/><rect fill="none" height="149.5078" style="stroke:#000000;stroke-width:1.5;" width="480" x="20" y="535.7461"/><text fill="#000000" font-family="sans-serif" font-size="13" font-weight="bold" lengthAdjust="spacing" textLength="17" x="35" y="549.3145">alt</text><text fill="#000000" font-family="sans-serif" font-size="11" font-weight="bold" lengthAdjust="spacing" textLength="35" x="97" y="548.3809">[if ok]</text><polygon fill="#181818" points="348,570.3672,338,574.3672,348,578.3672,344,574.3672" style="stroke:#181818;stroke-width:1.0;"/><line style="stroke:#181818;stroke-width:1.0;stroke-dasharray:2.0,2.0;" x1="342" x2="432" y1="574.3672" y2="574.3672"/><text fill="#000000" font-family="sans-serif" font-size="13" font-weight="bold" lengthAdjust="spacing" textLength="18" x="354" y="569.625">13</text><text fill="#000000" font-family="sans-serif" font-size="13" lengthAdjust="spacing" textLength="24" x="376" y="569.625">200</text><polygon fill="#181818" points="115,599.6777,105,603.6777,115,607.6777,111,603.6777" style="stroke:#181818;stroke-width:1.0;"/><line style="stroke:#181818;stroke-width:1.0;stroke-dasharray:2.0,2.0;" x1="109" x2="331" y1="603.6777" y2="603.6777"/><text fill="#000000" font-family="sans-serif" font-size="13" font-weight="bold" lengthAdjust="spacing" textLength="18" x="121" y="598.9355">14</text><text fill="#000000" font-family="sans-serif" font-size="13" lengthAdjust="spacing" textLength="18" x="143" y="598.9355">OK</text><line style="stroke:#000000;stroke-width:1.0;stroke-dasharray:2.0,2.0;" x1="20" x2="500" y1="612.6777" y2="612.6777"/><text fill="#000000" font-family="sans-serif" font-size="11" font-weight="bold" lengthAdjust="spacing" textLength="36" x="25" y="623.3125">[error]</text><polygon fill="#181818" points="348,643.9434,338,647.9434,348,651.9434,344,647.9434" style="stroke:#181818;stroke-width:1.0;"/><line style="stroke:#181818;stroke-width:1.0;stroke-dasharray:2.0,2.0;" x1="342" x2="437" y1="647.9434" y2="647.9434"/><text fill="#000000" font-family="sans-serif" font-size="13" font-weight="bold" lengthAdjust="spacing" textLength="18" x="354" y="643.2012">15</text><text fill="#000000" font-family="sans-serif" font-size="13" lengthAdjust="spacing" textLength="55" x="376" y="643.2012">400/423</text><polygon fill="#181818" points="115,673.2539,105,677.2539,115,681.2539,111,677.2539" style="stroke:#181818;stroke-width:1.0;"/><line style="stroke:#181818;stroke-width:1.0;stroke-dasharray:2.0,2.0;" x1="109" x2="331" y1="677.2539" y2="677.2539"/><text fill="#000000" font-family="sans-serif" font-size="13" font-weight="bold" lengthAdjust="spacing" textLength="18" x="121" y="672.5117">16</text><text fill="#000000" font-family="sans-serif" font-size="13" lengthAdjust="spacing" textLength="41" x="143" y="672.5117">ERROR</text><line style="stroke:#000000;stroke-width:1.0;stroke-dasharray:2.0,2.0;" x1="10" x2="510" y1="693.2539" y2="693.2539"/><text fill="#000000" font-family="sans-serif" font-size="11" font-weight="bold" lengthAdjust="spacing" textLength="165" x="15" y="703.8887">[if you want to list the Route]</text><polygon fill="#181818" points="315,724.5195,325,728.5195,315,732.5195,319,728.5195" style="stroke:#181818;stroke-width:1.0;"/><line style="stroke:#181818;stroke-width:1.0;" x1="104" x2="321" y1="728.5195" y2="728.5195"/><text fill="#000000" font-family="sans-serif" font-size="13" font-weight="bold" lengthAdjust="spacing" textLength="18" x="111" y="723.7773">17</text><text fill="#000000" font-family="sans-serif" font-size="13" lengthAdjust="spacing" textLength="141" x="133" y="723.7773">asks to list the Routes</text><polygon fill="#181818" points="421,753.8301,431,757.8301,421,761.8301,425,757.8301" style="stroke:#181818;stroke-width:1.0;"/><line style="stroke:#181818;stroke-width:1.0;" x1="332" x2="427" y1="757.8301" y2="757.8301"/><text fill="#000000" font-family="sans-serif" font-size="13" font-weight="bold" lengthAdjust="spacing" textLength="18" x="339" y="753.0879">18</text><text fill="#000000" font-family="sans-serif" font-size="13" lengthAdjust="spacing" textLength="24" x="361" y="753.0879">GET</text><path d="M20,772.8301 L82,772.8301 L82,780.1406 L72,790.1406 L20,790.1406 L20,772.8301 " fill="#EEEEEE" style="stroke:#000000;stroke-width:1.5;"/><rect fill="none" height="149.5078" style="stroke:#000000;stroke-width:1.5;" width="480" x="20" y="772.8301"/><text fill="#000000" font-family="sans-serif" font-size="13" font-weight="bold" lengthAdjust="spacing" textLength="17" x="35" y="786.3984">alt</text><text fill="#000000" font-family="sans-serif" font-size="11" font-weight="bold" lengthAdjust="spacing" textLength="35" x="97" y="785.4648">[if ok]</text><polygon fill="#181818" points="348,807.4512,338,811.4512,348,815.4512,344,811.4512" style="stroke:#181818;stroke-width:1.0;"/><line style="stroke:#181818;stroke-width:1.0;stroke-dasharray:2.0,2.0;" x1="342" x2="432" y1="811.4512" y2="811.4512"/><text fill="#000000" font-family="sans-serif" font-size="13" font-weight="bold" lengthAdjust="spacing" textLength="18" x="354" y="806.709">19</text><text fill="#000000" font-family="sans-serif" font-size="13" lengthAdjust="spacing" textLength="24" x="376" y="806.709">200</text><polygon fill="#181818" points="115,836.7617,105,840.7617,115,844.7617,111,840.7617" style="stroke:#181818;stroke-width:1.0;"/><line style="stroke:#181818;stroke-width:1.0;stroke-dasharray:2.0,2.0;" x1="109" x2="331" y1="840.7617" y2="840.7617"/><text fill="#000000" font-family="sans-serif" font-size="13" font-weight="bold" lengthAdjust="spacing" textLength="18" x="121" y="836.0195">20</text><text fill="#000000" font-family="sans-serif" font-size="13" lengthAdjust="spacing" textLength="177" x="143" y="836.0195">OK and shows list of Routes</text><line style="stroke:#000000;stroke-width:1.0;stroke-dasharray:2.0,2.0;" x1="20" x2="500" y1="849.7617" y2="849.7617"/><text fill="#000000" font-family="sans-serif" font-size="11" font-weight="bold" lengthAdjust="spacing" textLength="36" x="25" y="860.3965">[error]</text><polygon fill="#181818" points="348,881.0273,338,885.0273,348,889.0273,344,885.0273" style="stroke:#181818;stroke-width:1.0;"/><line style="stroke:#181818;stroke-width:1.0;stroke-dasharray:2.0,2.0;" x1="342" x2="437" y1="885.0273" y2="885.0273"/><text fill="#000000" font-family="sans-serif" font-size="13" font-weight="bold" lengthAdjust="spacing" textLength="18" x="354" y="880.2852">21</text><text fill="#000000" font-family="sans-serif" font-size="13" lengthAdjust="spacing" textLength="55" x="376" y="880.2852">400/423</text><polygon fill="#181818" points="115,910.3379,105,914.3379,115,918.3379,111,914.3379" style="stroke:#181818;stroke-width:1.0;"/><line style="stroke:#181818;stroke-width:1.0;stroke-dasharray:2.0,2.0;" x1="109" x2="331" y1="914.3379" y2="914.3379"/><text fill="#000000" font-family="sans-serif" font-size="13" font-weight="bold" lengthAdjust="spacing" textLength="18" x="121" y="909.5957">22</text><text fill="#000000" font-family="sans-serif" font-size="13" lengthAdjust="spacing" textLength="41" x="143" y="909.5957">ERROR</text><!--MD5=[e91021c851c97fb4c1e9c273ef517595]
@startuml Sequence Diagram
autonumber

actor LOGISTICMANAGER as LOGM

activate LOGM
box "<<System>> EletricGO" #LightBlue
'participant "<<System>> EletricGO" as E
participant "SPA" as SPA
participant "LOGISTICS_M" as LM
participant "WAREHOUSE_M" as WM
participant "Planning" as PLAN
end box

alt if Route doesn't exist
LOGM -> SPA: Starts to create a Route
activate SPA
SPA - -> LOGM: Asks for data
deactivate SPA
LOGM-> SPA: Introduce the requested data
activate SPA
SPA -> LM: POST
deactivate SPA
activate LM
alt if ok 

LM - -> SPA: 201 
activate SPA
LOGM <- - SPA: OK
deactivate SPA
else error 
SPA <- - LM: 400/423
deactivate LM
activate SPA

LOGM <- - SPA: ERROR
deactivate SPA


end alt
else if you want to edit the Route

LOGM -> SPA: Starts to edit a Route
activate SPA
SPA - -> LOGM: Asks for data
deactivate SPA

LOGM-> SPA: Introduce the requested data

activate SPA
SPA -> LM: PUT
deactivate SPA
activate LM
alt if ok 

LM - -> SPA: 200
activate SPA
LOGM <- - SPA: OK
deactivate SPA
else error 
SPA <- - LM: 400/423
deactivate LM
activate SPA

LOGM <- - SPA: ERROR
deactivate SPA
end alt

else if you want to list the Route
LOGM -> SPA: asks to list the Routes
activate SPA
SPA -> LM: GET
deactivate SPA
activate LM
alt if ok 

LM - -> SPA: 200
activate SPA
LOGM <- - SPA: OK and shows list of Routes
deactivate SPA
else error 
SPA <- - LM: 400/423
deactivate LM
activate SPA

LOGM <- - SPA: ERROR
deactivate SPA

end alt
end alt


deactivate LOGM

@enduml

@startuml Sequence Diagram
autonumber

actor LOGISTICMANAGER as LOGM

activate LOGM
box "<<System>> EletricGO" #LightBlue
participant "SPA" as SPA
participant "LOGISTICS_M" as LM
participant "WAREHOUSE_M" as WM
participant "Planning" as PLAN
end box

alt if Route doesn't exist
LOGM -> SPA: Starts to create a Route
activate SPA
SPA - -> LOGM: Asks for data
deactivate SPA
LOGM-> SPA: Introduce the requested data
activate SPA
SPA -> LM: POST
deactivate SPA
activate LM
alt if ok 

LM - -> SPA: 201 
activate SPA
LOGM <- - SPA: OK
deactivate SPA
else error 
SPA <- - LM: 400/423
deactivate LM
activate SPA

LOGM <- - SPA: ERROR
deactivate SPA


end alt
else if you want to edit the Route

LOGM -> SPA: Starts to edit a Route
activate SPA
SPA - -> LOGM: Asks for data
deactivate SPA

LOGM-> SPA: Introduce the requested data

activate SPA
SPA -> LM: PUT
deactivate SPA
activate LM
alt if ok 

LM - -> SPA: 200
activate SPA
LOGM <- - SPA: OK
deactivate SPA
else error 
SPA <- - LM: 400/423
deactivate LM
activate SPA

LOGM <- - SPA: ERROR
deactivate SPA
end alt

else if you want to list the Route
LOGM -> SPA: asks to list the Routes
activate SPA
SPA -> LM: GET
deactivate SPA
activate LM
alt if ok 

LM - -> SPA: 200
activate SPA
LOGM <- - SPA: OK and shows list of Routes
deactivate SPA
else error 
SPA <- - LM: 400/423
deactivate LM
activate SPA

LOGM <- - SPA: ERROR
deactivate SPA

end alt
end alt


deactivate LOGM

@enduml

PlantUML version 1.2022.7(Mon Aug 22 18:01:30 WEST 2022)
(GPL source distribution)
Java Runtime: Java(TM) SE Runtime Environment
JVM: Java HotSpot(TM) 64-Bit Server VM
Default Encoding: UTF-8
Language: pt
Country: PT
--></g></svg>