<?xml version="1.0" encoding="UTF-8" standalone="no"?><svg xmlns="http://www.w3.org/2000/svg" xmlns:xlink="http://www.w3.org/1999/xlink" contentStyleType="text/css" height="1065px" preserveAspectRatio="none" style="width:568px;height:1065px;background:#FFFFFF;" version="1.1" viewBox="0 0 568 1065" width="568px" zoomAndPan="magnify"><defs/><g><rect fill="#ADD8E6" height="1053.5391" style="stroke:#181818;stroke-width:0.5;" width="285.5" x="276.5" y="6"/><text fill="#000000" font-family="sans-serif" font-size="13" font-weight="bold" lengthAdjust="spacing" textLength="142" x="348.25" y="19.4951">&lt;&lt;System&gt;&gt; EletricGO</text><rect fill="#FFFFFF" height="876.3203" style="stroke:#181818;stroke-width:1.0;" width="10" x="84" y="92.6094"/><rect fill="#FFFFFF" height="30.3516" style="stroke:#181818;stroke-width:1.0;" width="10" x="296" y="140.3125"/><rect fill="#FFFFFF" height="30.3516" style="stroke:#181818;stroke-width:1.0;" width="10" x="296" y="201.0156"/><rect fill="#FFFFFF" height="30.3516" style="stroke:#181818;stroke-width:1.0;" width="10" x="296" y="287.0703"/><rect fill="#FFFFFF" height="30.3516" style="stroke:#181818;stroke-width:1.0;" width="10" x="296" y="363.6094"/><rect fill="#FFFFFF" height="30.3516" style="stroke:#181818;stroke-width:1.0;" width="10" x="296" y="447.1484"/><rect fill="#FFFFFF" height="30.3516" style="stroke:#181818;stroke-width:1.0;" width="10" x="296" y="507.8516"/><rect fill="#FFFFFF" height="30.3516" style="stroke:#181818;stroke-width:1.0;" width="10" x="296" y="593.9063"/><rect fill="#FFFFFF" height="30.3516" style="stroke:#181818;stroke-width:1.0;" width="10" x="296" y="670.4453"/><rect fill="#FFFFFF" height="30.3516" style="stroke:#181818;stroke-width:1.0;" width="10" x="296" y="753.9844"/><rect fill="#FFFFFF" height="30.3516" style="stroke:#181818;stroke-width:1.0;" width="10" x="296" y="840.0391"/><rect fill="#FFFFFF" height="30.3516" style="stroke:#181818;stroke-width:1.0;" width="10" x="296" y="916.5781"/><rect fill="#FFFFFF" height="132.2422" style="stroke:#181818;stroke-width:1.0;" width="10" x="395" y="231.3672"/><rect fill="#FFFFFF" height="132.2422" style="stroke:#181818;stroke-width:1.0;" width="10" x="395" y="538.2031"/><rect fill="#FFFFFF" height="132.2422" style="stroke:#181818;stroke-width:1.0;" width="10" x="395" y="784.3359"/><rect fill="none" height="862.3203" style="stroke:#000000;stroke-width:1.5;" width="441" x="10" y="99.6094"/><rect fill="none" height="155.5938" style="stroke:#000000;stroke-width:1.5;" width="421" x="20" y="246.3672"/><rect fill="none" height="155.5938" style="stroke:#000000;stroke-width:1.5;" width="421" x="20" y="553.2031"/><rect fill="none" height="155.5938" style="stroke:#000000;stroke-width:1.5;" width="421" x="20" y="799.3359"/><line style="stroke:#181818;stroke-width:0.5;stroke-dasharray:5.0,5.0;" x1="89" x2="89" y1="82.6094" y2="978.9297"/><line style="stroke:#181818;stroke-width:0.5;stroke-dasharray:5.0,5.0;" x1="300.5" x2="300.5" y1="82.6094" y2="978.9297"/><line style="stroke:#181818;stroke-width:0.5;stroke-dasharray:5.0,5.0;" x1="400" x2="400" y1="82.6094" y2="978.9297"/><line style="stroke:#181818;stroke-width:0.5;stroke-dasharray:5.0,5.0;" x1="460" x2="460" y1="82.6094" y2="978.9297"/><line style="stroke:#181818;stroke-width:0.5;stroke-dasharray:5.0,5.0;" x1="523" x2="523" y1="82.6094" y2="978.9297"/><text fill="#000000" font-family="sans-serif" font-size="14" lengthAdjust="spacing" textLength="112" x="30" y="79.5332">FLEETMANAGER</text><ellipse cx="89" cy="13.5" fill="#E2E2F0" rx="8" ry="8" style="stroke:#181818;stroke-width:0.5;"/><path d="M89,21.5 L89,48.5 M76,29.5 L102,29.5 M89,48.5 L76,63.5 M89,48.5 L102,63.5 " fill="none" style="stroke:#181818;stroke-width:0.5;"/><text fill="#000000" font-family="sans-serif" font-size="14" lengthAdjust="spacing" textLength="112" x="30" y="992.4629">FLEETMANAGER</text><ellipse cx="89" cy="1004.0391" fill="#E2E2F0" rx="8" ry="8" style="stroke:#181818;stroke-width:0.5;"/><path d="M89,1012.0391 L89,1039.0391 M76,1020.0391 L102,1020.0391 M89,1039.0391 L76,1054.0391 M89,1039.0391 L102,1054.0391 " fill="none" style="stroke:#181818;stroke-width:0.5;"/><rect fill="#E2E2F0" height="31.6094" rx="2.5" ry="2.5" style="stroke:#181818;stroke-width:0.5;" width="41" x="280.5" y="50"/><text fill="#000000" font-family="sans-serif" font-size="14" lengthAdjust="spacing" textLength="27" x="287.5" y="71.5332">SPA</text><rect fill="#E2E2F0" height="31.6094" rx="2.5" ry="2.5" style="stroke:#181818;stroke-width:0.5;" width="41" x="280.5" y="977.9297"/><text fill="#000000" font-family="sans-serif" font-size="14" lengthAdjust="spacing" textLength="27" x="287.5" y="999.4629">SPA</text><rect fill="#E2E2F0" height="31.6094" rx="2.5" ry="2.5" style="stroke:#181818;stroke-width:0.5;" width="62" x="369" y="50"/><text fill="#000000" font-family="sans-serif" font-size="14" lengthAdjust="spacing" textLength="48" x="376" y="71.5332">Logistic</text><rect fill="#E2E2F0" height="31.6094" rx="2.5" ry="2.5" style="stroke:#181818;stroke-width:0.5;" width="62" x="369" y="977.9297"/><text fill="#000000" font-family="sans-serif" font-size="14" lengthAdjust="spacing" textLength="48" x="376" y="999.4629">Logistic</text><rect fill="#E2E2F0" height="31.6094" rx="2.5" ry="2.5" style="stroke:#181818;stroke-width:0.5;" width="38" x="441" y="50"/><text fill="#000000" font-family="sans-serif" font-size="14" lengthAdjust="spacing" textLength="24" x="448" y="71.5332">WM</text><rect fill="#E2E2F0" height="31.6094" rx="2.5" ry="2.5" style="stroke:#181818;stroke-width:0.5;" width="38" x="441" y="977.9297"/><text fill="#000000" font-family="sans-serif" font-size="14" lengthAdjust="spacing" textLength="24" x="448" y="999.4629">WM</text><rect fill="#E2E2F0" height="31.6094" rx="2.5" ry="2.5" style="stroke:#181818;stroke-width:0.5;" width="69" x="489" y="50"/><text fill="#000000" font-family="sans-serif" font-size="14" lengthAdjust="spacing" textLength="55" x="496" y="71.5332">Planning</text><rect fill="#E2E2F0" height="31.6094" rx="2.5" ry="2.5" style="stroke:#181818;stroke-width:0.5;" width="69" x="489" y="977.9297"/><text fill="#000000" font-family="sans-serif" font-size="14" lengthAdjust="spacing" textLength="55" x="496" y="999.4629">Planning</text><rect fill="#FFFFFF" height="876.3203" style="stroke:#181818;stroke-width:1.0;" width="10" x="84" y="92.6094"/><rect fill="#FFFFFF" height="30.3516" style="stroke:#181818;stroke-width:1.0;" width="10" x="296" y="140.3125"/><rect fill="#FFFFFF" height="30.3516" style="stroke:#181818;stroke-width:1.0;" width="10" x="296" y="201.0156"/><rect fill="#FFFFFF" height="30.3516" style="stroke:#181818;stroke-width:1.0;" width="10" x="296" y="287.0703"/><rect fill="#FFFFFF" height="30.3516" style="stroke:#181818;stroke-width:1.0;" width="10" x="296" y="363.6094"/><rect fill="#FFFFFF" height="30.3516" style="stroke:#181818;stroke-width:1.0;" width="10" x="296" y="447.1484"/><rect fill="#FFFFFF" height="30.3516" style="stroke:#181818;stroke-width:1.0;" width="10" x="296" y="507.8516"/><rect fill="#FFFFFF" height="30.3516" style="stroke:#181818;stroke-width:1.0;" width="10" x="296" y="593.9063"/><rect fill="#FFFFFF" height="30.3516" style="stroke:#181818;stroke-width:1.0;" width="10" x="296" y="670.4453"/><rect fill="#FFFFFF" height="30.3516" style="stroke:#181818;stroke-width:1.0;" width="10" x="296" y="753.9844"/><rect fill="#FFFFFF" height="30.3516" style="stroke:#181818;stroke-width:1.0;" width="10" x="296" y="840.0391"/><rect fill="#FFFFFF" height="30.3516" style="stroke:#181818;stroke-width:1.0;" width="10" x="296" y="916.5781"/><rect fill="#FFFFFF" height="132.2422" style="stroke:#181818;stroke-width:1.0;" width="10" x="395" y="231.3672"/><rect fill="#FFFFFF" height="132.2422" style="stroke:#181818;stroke-width:1.0;" width="10" x="395" y="538.2031"/><rect fill="#FFFFFF" height="132.2422" style="stroke:#181818;stroke-width:1.0;" width="10" x="395" y="784.3359"/><path d="M10,99.6094 L71,99.6094 L71,107.9609 L61,117.9609 L10,117.9609 L10,99.6094 " fill="#EEEEEE" style="stroke:#000000;stroke-width:1.5;"/><rect fill="none" height="862.3203" style="stroke:#000000;stroke-width:1.5;" width="441" x="10" y="99.6094"/><text fill="#000000" font-family="sans-serif" font-size="13" font-weight="bold" lengthAdjust="spacing" textLength="16" x="25" y="114.1045">alt</text><text fill="#000000" font-family="sans-serif" font-size="11" font-weight="bold" lengthAdjust="spacing" textLength="122" x="86" y="113.0283">[if truck doesn't exist]</text><polygon fill="#181818" points="284,136.3125,294,140.3125,284,144.3125,288,140.3125" style="stroke:#181818;stroke-width:1.0;"/><line style="stroke:#181818;stroke-width:1.0;" x1="94" x2="290" y1="140.3125" y2="140.3125"/><text fill="#000000" font-family="sans-serif" font-size="13" font-weight="bold" lengthAdjust="spacing" textLength="7" x="101" y="135.4561">1</text><text fill="#000000" font-family="sans-serif" font-size="13" lengthAdjust="spacing" textLength="134" x="112" y="135.4561">Starts to create a truck</text><polygon fill="#181818" points="105,166.6641,95,170.6641,105,174.6641,101,170.6641" style="stroke:#181818;stroke-width:1.0;"/><line style="stroke:#181818;stroke-width:1.0;stroke-dasharray:2.0,2.0;" x1="99" x2="300" y1="170.6641" y2="170.6641"/><text fill="#000000" font-family="sans-serif" font-size="13" font-weight="bold" lengthAdjust="spacing" textLength="7" x="111" y="165.8076">2</text><text fill="#000000" font-family="sans-serif" font-size="13" lengthAdjust="spacing" textLength="77" x="122" y="165.8076">Asks for data</text><polygon fill="#181818" points="284,197.0156,294,201.0156,284,205.0156,288,201.0156" style="stroke:#181818;stroke-width:1.0;"/><line style="stroke:#181818;stroke-width:1.0;" x1="94" x2="290" y1="201.0156" y2="201.0156"/><text fill="#000000" font-family="sans-serif" font-size="13" font-weight="bold" lengthAdjust="spacing" textLength="7" x="101" y="196.1592">3</text><text fill="#000000" font-family="sans-serif" font-size="13" lengthAdjust="spacing" textLength="165" x="112" y="196.1592">Introduce the requested data</text><polygon fill="#181818" points="383,227.3672,393,231.3672,383,235.3672,387,231.3672" style="stroke:#181818;stroke-width:1.0;"/><line style="stroke:#181818;stroke-width:1.0;" x1="301" x2="389" y1="231.3672" y2="231.3672"/><text fill="#000000" font-family="sans-serif" font-size="13" font-weight="bold" lengthAdjust="spacing" textLength="7" x="308" y="226.5107">4</text><text fill="#000000" font-family="sans-serif" font-size="13" lengthAdjust="spacing" textLength="35" x="319" y="226.5107">POST</text><path d="M20,246.3672 L81,246.3672 L81,254.7188 L71,264.7188 L20,264.7188 L20,246.3672 " fill="#EEEEEE" style="stroke:#000000;stroke-width:1.5;"/><rect fill="none" height="155.5938" style="stroke:#000000;stroke-width:1.5;" width="421" x="20" y="246.3672"/><text fill="#000000" font-family="sans-serif" font-size="13" font-weight="bold" lengthAdjust="spacing" textLength="16" x="35" y="260.8623">alt</text><text fill="#000000" font-family="sans-serif" font-size="11" font-weight="bold" lengthAdjust="spacing" textLength="32" x="96" y="259.7861">[if ok]</text><polygon fill="#181818" points="317,283.0703,307,287.0703,317,291.0703,313,287.0703" style="stroke:#181818;stroke-width:1.0;"/><line style="stroke:#181818;stroke-width:1.0;stroke-dasharray:2.0,2.0;" x1="311" x2="394" y1="287.0703" y2="287.0703"/><text fill="#000000" font-family="sans-serif" font-size="13" font-weight="bold" lengthAdjust="spacing" textLength="7" x="323" y="282.2139">5</text><text fill="#000000" font-family="sans-serif" font-size="13" lengthAdjust="spacing" textLength="21" x="334" y="282.2139">201</text><polygon fill="#181818" points="105,313.4219,95,317.4219,105,321.4219,101,317.4219" style="stroke:#181818;stroke-width:1.0;"/><line style="stroke:#181818;stroke-width:1.0;stroke-dasharray:2.0,2.0;" x1="99" x2="300" y1="317.4219" y2="317.4219"/><text fill="#000000" font-family="sans-serif" font-size="13" font-weight="bold" lengthAdjust="spacing" textLength="7" x="111" y="312.5654">6</text><text fill="#000000" font-family="sans-serif" font-size="13" lengthAdjust="spacing" textLength="61" x="122" y="312.5654">CREATED</text><line style="stroke:#000000;stroke-width:1.0;stroke-dasharray:2.0,2.0;" x1="20" x2="441" y1="326.4219" y2="326.4219"/><text fill="#000000" font-family="sans-serif" font-size="11" font-weight="bold" lengthAdjust="spacing" textLength="37" x="25" y="337.8408">[error]</text><polygon fill="#181818" points="317,359.6094,307,363.6094,317,367.6094,313,363.6094" style="stroke:#181818;stroke-width:1.0;"/><line style="stroke:#181818;stroke-width:1.0;stroke-dasharray:2.0,2.0;" x1="311" x2="399" y1="363.6094" y2="363.6094"/><text fill="#000000" font-family="sans-serif" font-size="13" font-weight="bold" lengthAdjust="spacing" textLength="7" x="323" y="358.7529">7</text><text fill="#000000" font-family="sans-serif" font-size="13" lengthAdjust="spacing" textLength="46" x="334" y="358.7529">400/423</text><polygon fill="#181818" points="105,389.9609,95,393.9609,105,397.9609,101,393.9609" style="stroke:#181818;stroke-width:1.0;"/><line style="stroke:#181818;stroke-width:1.0;stroke-dasharray:2.0,2.0;" x1="99" x2="300" y1="393.9609" y2="393.9609"/><text fill="#000000" font-family="sans-serif" font-size="13" font-weight="bold" lengthAdjust="spacing" textLength="7" x="111" y="389.1045">8</text><text fill="#000000" font-family="sans-serif" font-size="13" lengthAdjust="spacing" textLength="46" x="122" y="389.1045">ERROR</text><line style="stroke:#000000;stroke-width:1.0;stroke-dasharray:2.0,2.0;" x1="10" x2="451" y1="409.9609" y2="409.9609"/><text fill="#000000" font-family="sans-serif" font-size="11" font-weight="bold" lengthAdjust="spacing" textLength="159" x="15" y="421.3799">[if you want to edit the truck]</text><polygon fill="#181818" points="284,443.1484,294,447.1484,284,451.1484,288,447.1484" style="stroke:#181818;stroke-width:1.0;"/><line style="stroke:#181818;stroke-width:1.0;" x1="94" x2="290" y1="447.1484" y2="447.1484"/><text fill="#000000" font-family="sans-serif" font-size="13" font-weight="bold" lengthAdjust="spacing" textLength="7" x="101" y="442.292">9</text><text fill="#000000" font-family="sans-serif" font-size="13" lengthAdjust="spacing" textLength="119" x="112" y="442.292">Starts to edit a truck</text><polygon fill="#181818" points="105,473.5,95,477.5,105,481.5,101,477.5" style="stroke:#181818;stroke-width:1.0;"/><line style="stroke:#181818;stroke-width:1.0;stroke-dasharray:2.0,2.0;" x1="99" x2="300" y1="477.5" y2="477.5"/><text fill="#000000" font-family="sans-serif" font-size="13" font-weight="bold" lengthAdjust="spacing" textLength="14" x="111" y="472.6436">10</text><text fill="#000000" font-family="sans-serif" font-size="13" lengthAdjust="spacing" textLength="77" x="129" y="472.6436">Asks for data</text><polygon fill="#181818" points="284,503.8516,294,507.8516,284,511.8516,288,507.8516" style="stroke:#181818;stroke-width:1.0;"/><line style="stroke:#181818;stroke-width:1.0;" x1="94" x2="290" y1="507.8516" y2="507.8516"/><text fill="#000000" font-family="sans-serif" font-size="13" font-weight="bold" lengthAdjust="spacing" textLength="14" x="101" y="502.9951">11</text><text fill="#000000" font-family="sans-serif" font-size="13" lengthAdjust="spacing" textLength="165" x="119" y="502.9951">Introduce the requested data</text><polygon fill="#181818" points="383,534.2031,393,538.2031,383,542.2031,387,538.2031" style="stroke:#181818;stroke-width:1.0;"/><line style="stroke:#181818;stroke-width:1.0;" x1="301" x2="389" y1="538.2031" y2="538.2031"/><text fill="#000000" font-family="sans-serif" font-size="13" font-weight="bold" lengthAdjust="spacing" textLength="14" x="308" y="533.3467">12</text><text fill="#000000" font-family="sans-serif" font-size="13" lengthAdjust="spacing" textLength="52" x="326" y="533.3467">UPDATE</text><path d="M20,553.2031 L81,553.2031 L81,561.5547 L71,571.5547 L20,571.5547 L20,553.2031 " fill="#EEEEEE" style="stroke:#000000;stroke-width:1.5;"/><rect fill="none" height="155.5938" style="stroke:#000000;stroke-width:1.5;" width="421" x="20" y="553.2031"/><text fill="#000000" font-family="sans-serif" font-size="13" font-weight="bold" lengthAdjust="spacing" textLength="16" x="35" y="567.6982">alt</text><text fill="#000000" font-family="sans-serif" font-size="11" font-weight="bold" lengthAdjust="spacing" textLength="32" x="96" y="566.6221">[if ok]</text><polygon fill="#181818" points="317,589.9063,307,593.9063,317,597.9063,313,593.9063" style="stroke:#181818;stroke-width:1.0;"/><line style="stroke:#181818;stroke-width:1.0;stroke-dasharray:2.0,2.0;" x1="311" x2="394" y1="593.9063" y2="593.9063"/><text fill="#000000" font-family="sans-serif" font-size="13" font-weight="bold" lengthAdjust="spacing" textLength="14" x="323" y="589.0498">13</text><text fill="#000000" font-family="sans-serif" font-size="13" lengthAdjust="spacing" textLength="21" x="341" y="589.0498">200</text><polygon fill="#181818" points="105,620.2578,95,624.2578,105,628.2578,101,624.2578" style="stroke:#181818;stroke-width:1.0;"/><line style="stroke:#181818;stroke-width:1.0;stroke-dasharray:2.0,2.0;" x1="99" x2="300" y1="624.2578" y2="624.2578"/><text fill="#000000" font-family="sans-serif" font-size="13" font-weight="bold" lengthAdjust="spacing" textLength="14" x="111" y="619.4014">14</text><text fill="#000000" font-family="sans-serif" font-size="13" lengthAdjust="spacing" textLength="19" x="129" y="619.4014">OK</text><line style="stroke:#000000;stroke-width:1.0;stroke-dasharray:2.0,2.0;" x1="20" x2="441" y1="633.2578" y2="633.2578"/><text fill="#000000" font-family="sans-serif" font-size="11" font-weight="bold" lengthAdjust="spacing" textLength="37" x="25" y="644.6768">[error]</text><polygon fill="#181818" points="317,666.4453,307,670.4453,317,674.4453,313,670.4453" style="stroke:#181818;stroke-width:1.0;"/><line style="stroke:#181818;stroke-width:1.0;stroke-dasharray:2.0,2.0;" x1="311" x2="399" y1="670.4453" y2="670.4453"/><text fill="#000000" font-family="sans-serif" font-size="13" font-weight="bold" lengthAdjust="spacing" textLength="14" x="323" y="665.5889">15</text><text fill="#000000" font-family="sans-serif" font-size="13" lengthAdjust="spacing" textLength="46" x="341" y="665.5889">400/423</text><polygon fill="#181818" points="105,696.7969,95,700.7969,105,704.7969,101,700.7969" style="stroke:#181818;stroke-width:1.0;"/><line style="stroke:#181818;stroke-width:1.0;stroke-dasharray:2.0,2.0;" x1="99" x2="300" y1="700.7969" y2="700.7969"/><text fill="#000000" font-family="sans-serif" font-size="13" font-weight="bold" lengthAdjust="spacing" textLength="14" x="111" y="695.9404">16</text><text fill="#000000" font-family="sans-serif" font-size="13" lengthAdjust="spacing" textLength="46" x="129" y="695.9404">ERROR</text><line style="stroke:#000000;stroke-width:1.0;stroke-dasharray:2.0,2.0;" x1="10" x2="451" y1="716.7969" y2="716.7969"/><text fill="#000000" font-family="sans-serif" font-size="11" font-weight="bold" lengthAdjust="spacing" textLength="155" x="15" y="728.2158">[if you want to list the truck]</text><polygon fill="#181818" points="284,749.9844,294,753.9844,284,757.9844,288,753.9844" style="stroke:#181818;stroke-width:1.0;"/><line style="stroke:#181818;stroke-width:1.0;" x1="94" x2="290" y1="753.9844" y2="753.9844"/><text fill="#000000" font-family="sans-serif" font-size="13" font-weight="bold" lengthAdjust="spacing" textLength="14" x="101" y="749.1279">17</text><text fill="#000000" font-family="sans-serif" font-size="13" lengthAdjust="spacing" textLength="126" x="119" y="749.1279">asks to list the trucks</text><polygon fill="#181818" points="383,780.3359,393,784.3359,383,788.3359,387,784.3359" style="stroke:#181818;stroke-width:1.0;"/><line style="stroke:#181818;stroke-width:1.0;" x1="301" x2="389" y1="784.3359" y2="784.3359"/><text fill="#000000" font-family="sans-serif" font-size="13" font-weight="bold" lengthAdjust="spacing" textLength="14" x="308" y="779.4795">18</text><text fill="#000000" font-family="sans-serif" font-size="13" lengthAdjust="spacing" textLength="26" x="326" y="779.4795">GET</text><path d="M20,799.3359 L81,799.3359 L81,807.6875 L71,817.6875 L20,817.6875 L20,799.3359 " fill="#EEEEEE" style="stroke:#000000;stroke-width:1.5;"/><rect fill="none" height="155.5938" style="stroke:#000000;stroke-width:1.5;" width="421" x="20" y="799.3359"/><text fill="#000000" font-family="sans-serif" font-size="13" font-weight="bold" lengthAdjust="spacing" textLength="16" x="35" y="813.8311">alt</text><text fill="#000000" font-family="sans-serif" font-size="11" font-weight="bold" lengthAdjust="spacing" textLength="32" x="96" y="812.7549">[if ok]</text><polygon fill="#181818" points="317,836.0391,307,840.0391,317,844.0391,313,840.0391" style="stroke:#181818;stroke-width:1.0;"/><line style="stroke:#181818;stroke-width:1.0;stroke-dasharray:2.0,2.0;" x1="311" x2="394" y1="840.0391" y2="840.0391"/><text fill="#000000" font-family="sans-serif" font-size="13" font-weight="bold" lengthAdjust="spacing" textLength="14" x="323" y="835.1826">19</text><text fill="#000000" font-family="sans-serif" font-size="13" lengthAdjust="spacing" textLength="21" x="341" y="835.1826">200</text><polygon fill="#181818" points="105,866.3906,95,870.3906,105,874.3906,101,870.3906" style="stroke:#181818;stroke-width:1.0;"/><line style="stroke:#181818;stroke-width:1.0;stroke-dasharray:2.0,2.0;" x1="99" x2="300" y1="870.3906" y2="870.3906"/><text fill="#000000" font-family="sans-serif" font-size="13" font-weight="bold" lengthAdjust="spacing" textLength="14" x="111" y="865.5342">20</text><text fill="#000000" font-family="sans-serif" font-size="13" lengthAdjust="spacing" textLength="160" x="129" y="865.5342">OK and shows list of trucks</text><line style="stroke:#000000;stroke-width:1.0;stroke-dasharray:2.0,2.0;" x1="20" x2="441" y1="879.3906" y2="879.3906"/><text fill="#000000" font-family="sans-serif" font-size="11" font-weight="bold" lengthAdjust="spacing" textLength="37" x="25" y="890.8096">[error]</text><polygon fill="#181818" points="317,912.5781,307,916.5781,317,920.5781,313,916.5781" style="stroke:#181818;stroke-width:1.0;"/><line style="stroke:#181818;stroke-width:1.0;stroke-dasharray:2.0,2.0;" x1="311" x2="399" y1="916.5781" y2="916.5781"/><text fill="#000000" font-family="sans-serif" font-size="13" font-weight="bold" lengthAdjust="spacing" textLength="14" x="323" y="911.7217">21</text><text fill="#000000" font-family="sans-serif" font-size="13" lengthAdjust="spacing" textLength="46" x="341" y="911.7217">400/423</text><polygon fill="#181818" points="105,942.9297,95,946.9297,105,950.9297,101,946.9297" style="stroke:#181818;stroke-width:1.0;"/><line style="stroke:#181818;stroke-width:1.0;stroke-dasharray:2.0,2.0;" x1="99" x2="300" y1="946.9297" y2="946.9297"/><text fill="#000000" font-family="sans-serif" font-size="13" font-weight="bold" lengthAdjust="spacing" textLength="14" x="111" y="942.0732">22</text><text fill="#000000" font-family="sans-serif" font-size="13" lengthAdjust="spacing" textLength="46" x="129" y="942.0732">ERROR</text><!--MD5=[c46cc2790f6ee679b3b54d06b16f8ee7]
@startuml Sequence Diagram
autonumber

actor FLEETMANAGER as LM

activate LM
box "<<System>> EletricGO" #LightBlue
'participant "<<System>> EletricGO" as E
participant "SPA" as SPA
participant "Logistic" as LOGI
participant "WM" as WM
participant "Planning" as PLAN
end box

alt if truck doesn't exist
    LM -> SPA: Starts to create a truck
    activate SPA
    SPA - -> LM: Asks for data
    deactivate SPA
    LM-> SPA: Introduce the requested data
    activate SPA
    SPA -> LOGI: POST
    deactivate SPA
    activate LOGI
    alt if ok

        LOGI - -> SPA: 201
        activate SPA
        LM <- - SPA: CREATED
        deactivate SPA
    else error
        SPA <- - LOGI: 400/423
        deactivate LOGI
        activate SPA

        LM <- - SPA: ERROR
        deactivate SPA


        end alt
    else if you want to edit the truck

        LM -> SPA: Starts to edit a truck
        activate SPA
        SPA - -> LM: Asks for data
        deactivate SPA

        LM-> SPA: Introduce the requested data

        activate SPA
        SPA -> LOGI: UPDATE
        deactivate SPA
        activate LOGI
        alt if ok

            LOGI - -> SPA: 200
            activate SPA
            LM <- - SPA: OK
            deactivate SPA
        else error
            SPA <- - LOGI: 400/423
            deactivate LOGI
            activate SPA

            LM <- - SPA: ERROR
            deactivate SPA
            end alt

        else if you want to list the truck
            LM -> SPA: asks to list the trucks
            activate SPA
            SPA -> LOGI: GET
            deactivate SPA
            activate LOGI
            alt if ok

                LOGI - -> SPA: 200
                activate SPA
                LM <- - SPA: OK and shows list of trucks
                deactivate SPA
            else error
                SPA <- - LOGI: 400/423
                deactivate LOGI
                activate SPA

                LM <- - SPA: ERROR
                deactivate SPA

                end alt
                end alt


                deactivate LM

                @enduml

@startuml Sequence Diagram
autonumber

actor FLEETMANAGER as LM

activate LM
box "<<System>> EletricGO" #LightBlue
participant "SPA" as SPA
participant "Logistic" as LOGI
participant "WM" as WM
participant "Planning" as PLAN
end box

alt if truck doesn't exist
    LM -> SPA: Starts to create a truck
    activate SPA
    SPA - -> LM: Asks for data
    deactivate SPA
    LM-> SPA: Introduce the requested data
    activate SPA
    SPA -> LOGI: POST
    deactivate SPA
    activate LOGI
    alt if ok

        LOGI - -> SPA: 201
        activate SPA
        LM <- - SPA: CREATED
        deactivate SPA
    else error
        SPA <- - LOGI: 400/423
        deactivate LOGI
        activate SPA

        LM <- - SPA: ERROR
        deactivate SPA


        end alt
    else if you want to edit the truck

        LM -> SPA: Starts to edit a truck
        activate SPA
        SPA - -> LM: Asks for data
        deactivate SPA

        LM-> SPA: Introduce the requested data

        activate SPA
        SPA -> LOGI: UPDATE
        deactivate SPA
        activate LOGI
        alt if ok

            LOGI - -> SPA: 200
            activate SPA
            LM <- - SPA: OK
            deactivate SPA
        else error
            SPA <- - LOGI: 400/423
            deactivate LOGI
            activate SPA

            LM <- - SPA: ERROR
            deactivate SPA
            end alt

        else if you want to list the truck
            LM -> SPA: asks to list the trucks
            activate SPA
            SPA -> LOGI: GET
            deactivate SPA
            activate LOGI
            alt if ok

                LOGI - -> SPA: 200
                activate SPA
                LM <- - SPA: OK and shows list of trucks
                deactivate SPA
            else error
                SPA <- - LOGI: 400/423
                deactivate LOGI
                activate SPA

                LM <- - SPA: ERROR
                deactivate SPA

                end alt
                end alt


                deactivate LM

                @enduml

PlantUML version 1.2022.7(Mon Aug 22 18:01:30 BST 2022)
(GPL source distribution)
Java Runtime: Java(TM) SE Runtime Environment
JVM: Java HotSpot(TM) 64-Bit Server VM
Default Encoding: Cp1252
Language: pt
Country: PT
--></g></svg>