<?xml version="1.0" encoding="UTF-8" standalone="no"?><svg xmlns="http://www.w3.org/2000/svg" xmlns:xlink="http://www.w3.org/1999/xlink" contentStyleType="text/css" height="771px" preserveAspectRatio="none" style="width:527px;height:771px;background:#FFFFFF;" version="1.1" viewBox="0 0 527 771" width="527px" zoomAndPan="magnify"><defs/><g><rect fill="#ADD8E6" height="759.2188" style="stroke:#181818;stroke-width:0.5;" width="294" x="220.5" y="6"/><text fill="#000000" font-family="sans-serif" font-size="13" font-weight="bold" lengthAdjust="spacing" textLength="142" x="296.5" y="19.4951">&lt;&lt;System&gt;&gt; EletricGO</text><rect fill="#FFFFFF" height="582" style="stroke:#181818;stroke-width:1.0;" width="10" x="39.5" y="92.6094"/><rect fill="#FFFFFF" height="30.3516" style="stroke:#181818;stroke-width:1.0;" width="10" x="244.5" y="114.9609"/><rect fill="#FFFFFF" height="30.3516" style="stroke:#181818;stroke-width:1.0;" width="10" x="244.5" y="175.6641"/><rect fill="#FFFFFF" height="30.3516" style="stroke:#181818;stroke-width:1.0;" width="10" x="244.5" y="292.0703"/><rect fill="#FFFFFF" height="30.3516" style="stroke:#181818;stroke-width:1.0;" width="10" x="244.5" y="368.6094"/><rect fill="#FFFFFF" height="30.3516" style="stroke:#181818;stroke-width:1.0;" width="10" x="244.5" y="436.3125"/><rect fill="#FFFFFF" height="30.3516" style="stroke:#181818;stroke-width:1.0;" width="10" x="244.5" y="552.7188"/><rect fill="#FFFFFF" height="30.3516" style="stroke:#181818;stroke-width:1.0;" width="10" x="244.5" y="629.2578"/><rect fill="#FFFFFF" height="30.3516" style="stroke:#181818;stroke-width:1.0;" width="10" x="353.5" y="206.0156"/><rect fill="#FFFFFF" height="30.3516" style="stroke:#181818;stroke-width:1.0;" width="10" x="353.5" y="466.6641"/><rect fill="#FFFFFF" height="132.2422" style="stroke:#181818;stroke-width:1.0;" width="10" x="460.5" y="236.3672"/><rect fill="#FFFFFF" height="132.2422" style="stroke:#181818;stroke-width:1.0;" width="10" x="460.5" y="497.0156"/><rect fill="none" height="155.5938" style="stroke:#000000;stroke-width:1.5;" width="510.5" x="10" y="251.3672"/><rect fill="none" height="155.5938" style="stroke:#000000;stroke-width:1.5;" width="510.5" x="10" y="512.0156"/><line style="stroke:#181818;stroke-width:0.5;stroke-dasharray:5.0,5.0;" x1="44" x2="44" y1="82.6094" y2="684.6094"/><line style="stroke:#181818;stroke-width:0.5;stroke-dasharray:5.0,5.0;" x1="249.5" x2="249.5" y1="82.6094" y2="684.6094"/><line style="stroke:#181818;stroke-width:0.5;stroke-dasharray:5.0,5.0;" x1="358.5" x2="358.5" y1="82.6094" y2="684.6094"/><line style="stroke:#181818;stroke-width:0.5;stroke-dasharray:5.0,5.0;" x1="465.5" x2="465.5" y1="82.6094" y2="684.6094"/><text fill="#000000" font-family="sans-serif" font-size="14" lengthAdjust="spacing" textLength="43" x="20" y="79.5332">Router</text><ellipse cx="44.5" cy="13.5" fill="#E2E2F0" rx="8" ry="8" style="stroke:#181818;stroke-width:0.5;"/><path d="M44.5,21.5 L44.5,48.5 M31.5,29.5 L57.5,29.5 M44.5,48.5 L31.5,63.5 M44.5,48.5 L57.5,63.5 " fill="none" style="stroke:#181818;stroke-width:0.5;"/><text fill="#000000" font-family="sans-serif" font-size="14" lengthAdjust="spacing" textLength="43" x="20" y="698.1426">Router</text><ellipse cx="44.5" cy="709.7188" fill="#E2E2F0" rx="8" ry="8" style="stroke:#181818;stroke-width:0.5;"/><path d="M44.5,717.7188 L44.5,744.7188 M31.5,725.7188 L57.5,725.7188 M44.5,744.7188 L31.5,759.7188 M44.5,744.7188 L57.5,759.7188 " fill="none" style="stroke:#181818;stroke-width:0.5;"/><rect fill="#E2E2F0" height="31.6094" rx="2.5" ry="2.5" style="stroke:#181818;stroke-width:0.5;" width="50" x="224.5" y="50"/><text fill="#000000" font-family="sans-serif" font-size="14" lengthAdjust="spacing" textLength="36" x="231.5" y="71.5332">Views</text><rect fill="#E2E2F0" height="31.6094" rx="2.5" ry="2.5" style="stroke:#181818;stroke-width:0.5;" width="50" x="224.5" y="683.6094"/><text fill="#000000" font-family="sans-serif" font-size="14" lengthAdjust="spacing" textLength="36" x="231.5" y="705.1426">Views</text><rect fill="#E2E2F0" height="31.6094" rx="2.5" ry="2.5" style="stroke:#181818;stroke-width:0.5;" width="104" x="306.5" y="50"/><text fill="#000000" font-family="sans-serif" font-size="14" lengthAdjust="spacing" textLength="90" x="313.5" y="71.5332">CreateUserTS</text><rect fill="#E2E2F0" height="31.6094" rx="2.5" ry="2.5" style="stroke:#181818;stroke-width:0.5;" width="104" x="306.5" y="683.6094"/><text fill="#000000" font-family="sans-serif" font-size="14" lengthAdjust="spacing" textLength="90" x="313.5" y="705.1426">CreateUserTS</text><rect fill="#E2E2F0" height="31.6094" rx="2.5" ry="2.5" style="stroke:#181818;stroke-width:0.5;" width="90" x="420.5" y="50"/><text fill="#000000" font-family="sans-serif" font-size="14" lengthAdjust="spacing" textLength="76" x="427.5" y="71.5332">UserService</text><rect fill="#E2E2F0" height="31.6094" rx="2.5" ry="2.5" style="stroke:#181818;stroke-width:0.5;" width="90" x="420.5" y="683.6094"/><text fill="#000000" font-family="sans-serif" font-size="14" lengthAdjust="spacing" textLength="76" x="427.5" y="705.1426">UserService</text><rect fill="#FFFFFF" height="582" style="stroke:#181818;stroke-width:1.0;" width="10" x="39.5" y="92.6094"/><rect fill="#FFFFFF" height="30.3516" style="stroke:#181818;stroke-width:1.0;" width="10" x="244.5" y="114.9609"/><rect fill="#FFFFFF" height="30.3516" style="stroke:#181818;stroke-width:1.0;" width="10" x="244.5" y="175.6641"/><rect fill="#FFFFFF" height="30.3516" style="stroke:#181818;stroke-width:1.0;" width="10" x="244.5" y="292.0703"/><rect fill="#FFFFFF" height="30.3516" style="stroke:#181818;stroke-width:1.0;" width="10" x="244.5" y="368.6094"/><rect fill="#FFFFFF" height="30.3516" style="stroke:#181818;stroke-width:1.0;" width="10" x="244.5" y="436.3125"/><rect fill="#FFFFFF" height="30.3516" style="stroke:#181818;stroke-width:1.0;" width="10" x="244.5" y="552.7188"/><rect fill="#FFFFFF" height="30.3516" style="stroke:#181818;stroke-width:1.0;" width="10" x="244.5" y="629.2578"/><rect fill="#FFFFFF" height="30.3516" style="stroke:#181818;stroke-width:1.0;" width="10" x="353.5" y="206.0156"/><rect fill="#FFFFFF" height="30.3516" style="stroke:#181818;stroke-width:1.0;" width="10" x="353.5" y="466.6641"/><rect fill="#FFFFFF" height="132.2422" style="stroke:#181818;stroke-width:1.0;" width="10" x="460.5" y="236.3672"/><rect fill="#FFFFFF" height="132.2422" style="stroke:#181818;stroke-width:1.0;" width="10" x="460.5" y="497.0156"/><polygon fill="#181818" points="232.5,110.9609,242.5,114.9609,232.5,118.9609,236.5,114.9609" style="stroke:#181818;stroke-width:1.0;"/><line style="stroke:#181818;stroke-width:1.0;" x1="49.5" x2="238.5" y1="114.9609" y2="114.9609"/><text fill="#000000" font-family="sans-serif" font-size="13" font-weight="bold" lengthAdjust="spacing" textLength="7" x="56.5" y="110.1045">1</text><text fill="#000000" font-family="sans-serif" font-size="13" lengthAdjust="spacing" textLength="130" x="67.5" y="110.1045">Starts to create a user</text><polygon fill="#181818" points="60.5,141.3125,50.5,145.3125,60.5,149.3125,56.5,145.3125" style="stroke:#181818;stroke-width:1.0;"/><line style="stroke:#181818;stroke-width:1.0;stroke-dasharray:2.0,2.0;" x1="54.5" x2="248.5" y1="145.3125" y2="145.3125"/><text fill="#000000" font-family="sans-serif" font-size="13" font-weight="bold" lengthAdjust="spacing" textLength="7" x="66.5" y="140.4561">2</text><text fill="#000000" font-family="sans-serif" font-size="13" lengthAdjust="spacing" textLength="77" x="77.5" y="140.4561">Asks for data</text><polygon fill="#181818" points="232.5,171.6641,242.5,175.6641,232.5,179.6641,236.5,175.6641" style="stroke:#181818;stroke-width:1.0;"/><line style="stroke:#181818;stroke-width:1.0;" x1="49.5" x2="238.5" y1="175.6641" y2="175.6641"/><text fill="#000000" font-family="sans-serif" font-size="13" font-weight="bold" lengthAdjust="spacing" textLength="7" x="56.5" y="170.8076">3</text><text fill="#000000" font-family="sans-serif" font-size="13" lengthAdjust="spacing" textLength="165" x="67.5" y="170.8076">Introduce the requested data</text><polygon fill="#181818" points="341.5,202.0156,351.5,206.0156,341.5,210.0156,345.5,206.0156" style="stroke:#181818;stroke-width:1.0;"/><line style="stroke:#181818;stroke-width:1.0;" x1="249.5" x2="347.5" y1="206.0156" y2="206.0156"/><text fill="#000000" font-family="sans-serif" font-size="13" font-weight="bold" lengthAdjust="spacing" textLength="7" x="256.5" y="201.1592">4</text><text fill="#000000" font-family="sans-serif" font-size="13" lengthAdjust="spacing" textLength="69" x="267.5" y="201.1592">createuser()</text><polygon fill="#181818" points="448.5,232.3672,458.5,236.3672,448.5,240.3672,452.5,236.3672" style="stroke:#181818;stroke-width:1.0;"/><line style="stroke:#181818;stroke-width:1.0;" x1="358.5" x2="454.5" y1="236.3672" y2="236.3672"/><text fill="#000000" font-family="sans-serif" font-size="13" font-weight="bold" lengthAdjust="spacing" textLength="7" x="365.5" y="231.5107">5</text><text fill="#000000" font-family="sans-serif" font-size="13" lengthAdjust="spacing" textLength="61" x="376.5" y="231.5107">createuser</text><path d="M10,251.3672 L71,251.3672 L71,259.7188 L61,269.7188 L10,269.7188 L10,251.3672 " fill="#EEEEEE" style="stroke:#000000;stroke-width:1.5;"/><rect fill="none" height="155.5938" style="stroke:#000000;stroke-width:1.5;" width="510.5" x="10" y="251.3672"/><text fill="#000000" font-family="sans-serif" font-size="13" font-weight="bold" lengthAdjust="spacing" textLength="16" x="25" y="265.8623">alt</text><text fill="#000000" font-family="sans-serif" font-size="11" font-weight="bold" lengthAdjust="spacing" textLength="32" x="86" y="264.7861">[if ok]</text><polygon fill="#181818" points="265.5,288.0703,255.5,292.0703,265.5,296.0703,261.5,292.0703" style="stroke:#181818;stroke-width:1.0;"/><line style="stroke:#181818;stroke-width:1.0;stroke-dasharray:2.0,2.0;" x1="259.5" x2="459.5" y1="292.0703" y2="292.0703"/><text fill="#000000" font-family="sans-serif" font-size="13" font-weight="bold" lengthAdjust="spacing" textLength="7" x="271.5" y="287.2139">6</text><text fill="#000000" font-family="sans-serif" font-size="13" lengthAdjust="spacing" textLength="21" x="282.5" y="287.2139">201</text><polygon fill="#181818" points="60.5,318.4219,50.5,322.4219,60.5,326.4219,56.5,322.4219" style="stroke:#181818;stroke-width:1.0;"/><line style="stroke:#181818;stroke-width:1.0;stroke-dasharray:2.0,2.0;" x1="54.5" x2="248.5" y1="322.4219" y2="322.4219"/><text fill="#000000" font-family="sans-serif" font-size="13" font-weight="bold" lengthAdjust="spacing" textLength="7" x="66.5" y="317.5654">7</text><text fill="#000000" font-family="sans-serif" font-size="13" lengthAdjust="spacing" textLength="61" x="77.5" y="317.5654">CREATED</text><line style="stroke:#000000;stroke-width:1.0;stroke-dasharray:2.0,2.0;" x1="10" x2="520.5" y1="331.4219" y2="331.4219"/><text fill="#000000" font-family="sans-serif" font-size="11" font-weight="bold" lengthAdjust="spacing" textLength="37" x="15" y="342.8408">[error]</text><polygon fill="#181818" points="265.5,364.6094,255.5,368.6094,265.5,372.6094,261.5,368.6094" style="stroke:#181818;stroke-width:1.0;"/><line style="stroke:#181818;stroke-width:1.0;stroke-dasharray:2.0,2.0;" x1="259.5" x2="464.5" y1="368.6094" y2="368.6094"/><text fill="#000000" font-family="sans-serif" font-size="13" font-weight="bold" lengthAdjust="spacing" textLength="7" x="271.5" y="363.7529">8</text><text fill="#000000" font-family="sans-serif" font-size="13" lengthAdjust="spacing" textLength="46" x="282.5" y="363.7529">400/423</text><polygon fill="#181818" points="60.5,394.9609,50.5,398.9609,60.5,402.9609,56.5,398.9609" style="stroke:#181818;stroke-width:1.0;"/><line style="stroke:#181818;stroke-width:1.0;stroke-dasharray:2.0,2.0;" x1="54.5" x2="248.5" y1="398.9609" y2="398.9609"/><text fill="#000000" font-family="sans-serif" font-size="13" font-weight="bold" lengthAdjust="spacing" textLength="7" x="66.5" y="394.1045">9</text><text fill="#000000" font-family="sans-serif" font-size="13" lengthAdjust="spacing" textLength="46" x="77.5" y="394.1045">ERROR</text><polygon fill="#181818" points="232.5,432.3125,242.5,436.3125,232.5,440.3125,236.5,436.3125" style="stroke:#181818;stroke-width:1.0;"/><line style="stroke:#181818;stroke-width:1.0;" x1="49.5" x2="238.5" y1="436.3125" y2="436.3125"/><text fill="#000000" font-family="sans-serif" font-size="13" font-weight="bold" lengthAdjust="spacing" textLength="14" x="56.5" y="431.4561">10</text><text fill="#000000" font-family="sans-serif" font-size="13" lengthAdjust="spacing" textLength="122" x="74.5" y="431.4561">asks to list the users</text><polygon fill="#181818" points="341.5,462.6641,351.5,466.6641,341.5,470.6641,345.5,466.6641" style="stroke:#181818;stroke-width:1.0;"/><line style="stroke:#181818;stroke-width:1.0;" x1="249.5" x2="347.5" y1="466.6641" y2="466.6641"/><text fill="#000000" font-family="sans-serif" font-size="13" font-weight="bold" lengthAdjust="spacing" textLength="14" x="256.5" y="461.8076">11</text><text fill="#000000" font-family="sans-serif" font-size="13" lengthAdjust="spacing" textLength="58" x="274.5" y="461.8076">getusers()</text><polygon fill="#181818" points="448.5,493.0156,458.5,497.0156,448.5,501.0156,452.5,497.0156" style="stroke:#181818;stroke-width:1.0;"/><line style="stroke:#181818;stroke-width:1.0;" x1="358.5" x2="454.5" y1="497.0156" y2="497.0156"/><text fill="#000000" font-family="sans-serif" font-size="13" font-weight="bold" lengthAdjust="spacing" textLength="14" x="365.5" y="492.1592">12</text><text fill="#000000" font-family="sans-serif" font-size="13" lengthAdjust="spacing" textLength="50" x="383.5" y="492.1592">getusers</text><path d="M10,512.0156 L71,512.0156 L71,520.3672 L61,530.3672 L10,530.3672 L10,512.0156 " fill="#EEEEEE" style="stroke:#000000;stroke-width:1.5;"/><rect fill="none" height="155.5938" style="stroke:#000000;stroke-width:1.5;" width="510.5" x="10" y="512.0156"/><text fill="#000000" font-family="sans-serif" font-size="13" font-weight="bold" lengthAdjust="spacing" textLength="16" x="25" y="526.5107">alt</text><text fill="#000000" font-family="sans-serif" font-size="11" font-weight="bold" lengthAdjust="spacing" textLength="32" x="86" y="525.4346">[if ok]</text><polygon fill="#181818" points="265.5,548.7188,255.5,552.7188,265.5,556.7188,261.5,552.7188" style="stroke:#181818;stroke-width:1.0;"/><line style="stroke:#181818;stroke-width:1.0;stroke-dasharray:2.0,2.0;" x1="259.5" x2="459.5" y1="552.7188" y2="552.7188"/><text fill="#000000" font-family="sans-serif" font-size="13" font-weight="bold" lengthAdjust="spacing" textLength="14" x="271.5" y="547.8623">13</text><text fill="#000000" font-family="sans-serif" font-size="13" lengthAdjust="spacing" textLength="21" x="289.5" y="547.8623">200</text><polygon fill="#181818" points="60.5,579.0703,50.5,583.0703,60.5,587.0703,56.5,583.0703" style="stroke:#181818;stroke-width:1.0;"/><line style="stroke:#181818;stroke-width:1.0;stroke-dasharray:2.0,2.0;" x1="54.5" x2="248.5" y1="583.0703" y2="583.0703"/><text fill="#000000" font-family="sans-serif" font-size="13" font-weight="bold" lengthAdjust="spacing" textLength="14" x="66.5" y="578.2139">14</text><text fill="#000000" font-family="sans-serif" font-size="13" lengthAdjust="spacing" textLength="19" x="84.5" y="578.2139">OK</text><line style="stroke:#000000;stroke-width:1.0;stroke-dasharray:2.0,2.0;" x1="10" x2="520.5" y1="592.0703" y2="592.0703"/><text fill="#000000" font-family="sans-serif" font-size="11" font-weight="bold" lengthAdjust="spacing" textLength="37" x="15" y="603.4893">[error]</text><polygon fill="#181818" points="265.5,625.2578,255.5,629.2578,265.5,633.2578,261.5,629.2578" style="stroke:#181818;stroke-width:1.0;"/><line style="stroke:#181818;stroke-width:1.0;stroke-dasharray:2.0,2.0;" x1="259.5" x2="464.5" y1="629.2578" y2="629.2578"/><text fill="#000000" font-family="sans-serif" font-size="13" font-weight="bold" lengthAdjust="spacing" textLength="14" x="271.5" y="624.4014">15</text><text fill="#000000" font-family="sans-serif" font-size="13" lengthAdjust="spacing" textLength="46" x="289.5" y="624.4014">400/423</text><polygon fill="#181818" points="60.5,655.6094,50.5,659.6094,60.5,663.6094,56.5,659.6094" style="stroke:#181818;stroke-width:1.0;"/><line style="stroke:#181818;stroke-width:1.0;stroke-dasharray:2.0,2.0;" x1="54.5" x2="248.5" y1="659.6094" y2="659.6094"/><text fill="#000000" font-family="sans-serif" font-size="13" font-weight="bold" lengthAdjust="spacing" textLength="14" x="66.5" y="654.7529">16</text><text fill="#000000" font-family="sans-serif" font-size="13" lengthAdjust="spacing" textLength="46" x="84.5" y="654.7529">ERROR</text><!--MD5=[f1f37fa9d3956d4fc491e5c824b8dc32]
@startuml Sequence Diagram
autonumber

actor Router as LM

activate LM
box "<<System>> EletricGO" #LightBlue
'participant "<<System>> EletricGO" as E
participant "Views" as Views
participant "CreateUserTS" as ctr
participant "UserService" as serv
end box


    LM -> Views: Starts to create a user
    activate Views
    Views - -> LM: Asks for data
    deactivate Views
    LM-> Views: Introduce the requested data
    activate Views
    Views -> ctr: createuser()
    
    deactivate Views
    activate ctr
    ctr -> serv: createuser
     deactivate ctr

    activate serv
   
   

    alt if ok
  

    serv - -> Views: 201
     
    activate Views
    LM <- - Views: CREATED
    deactivate Views
   
    else error
    Views <- - serv: 400/423
    deactivate ctr
    activate Views

    deactivate serv
    LM <- - Views: ERROR
    deactivate Views

end alt


            LM -> Views: asks to list the users
            activate Views
            Views -> ctr: getusers()
            deactivate Views
            activate ctr

    ctr -> serv: getusers
    deactivate ctr
    activate serv
   
 

    alt if ok
    

    serv - -> Views: 200
     
    activate Views
    LM <- - Views: OK
    deactivate Views
   
    else error
    Views <- - serv: 400/423
    deactivate ctr
    activate Views

    deactivate serv
    LM <- - Views: ERROR
    deactivate Views

                end alt
               


                deactivate LM

                @enduml

@startuml Sequence Diagram
autonumber

actor Router as LM

activate LM
box "<<System>> EletricGO" #LightBlue
participant "Views" as Views
participant "CreateUserTS" as ctr
participant "UserService" as serv
end box


    LM -> Views: Starts to create a user
    activate Views
    Views - -> LM: Asks for data
    deactivate Views
    LM-> Views: Introduce the requested data
    activate Views
    Views -> ctr: createuser()
    
    deactivate Views
    activate ctr
    ctr -> serv: createuser
     deactivate ctr

    activate serv
   
   

    alt if ok
  

    serv - -> Views: 201
     
    activate Views
    LM <- - Views: CREATED
    deactivate Views
   
    else error
    Views <- - serv: 400/423
    deactivate ctr
    activate Views

    deactivate serv
    LM <- - Views: ERROR
    deactivate Views

end alt


            LM -> Views: asks to list the users
            activate Views
            Views -> ctr: getusers()
            deactivate Views
            activate ctr

    ctr -> serv: getusers
    deactivate ctr
    activate serv
   
 

    alt if ok
    

    serv - -> Views: 200
     
    activate Views
    LM <- - Views: OK
    deactivate Views
   
    else error
    Views <- - serv: 400/423
    deactivate ctr
    activate Views

    deactivate serv
    LM <- - Views: ERROR
    deactivate Views

                end alt
               


                deactivate LM

                @enduml

PlantUML version 1.2022.7(Mon Aug 22 17:01:30 GMT 2022)
(GPL source distribution)
Java Runtime: Java(TM) SE Runtime Environment
JVM: Java HotSpot(TM) 64-Bit Server VM
Default Encoding: Cp1252
Language: pt
Country: PT
--></g></svg>