<?xml version="1.0" encoding="UTF-8" standalone="no"?><svg xmlns="http://www.w3.org/2000/svg" xmlns:xlink="http://www.w3.org/1999/xlink" contentStyleType="text/css" height="771px" preserveAspectRatio="none" style="width:685px;height:771px;background:#FFFFFF;" version="1.1" viewBox="0 0 685 771" width="685px" zoomAndPan="magnify"><defs/><g><rect fill="#ADD8E6" height="759.2188" style="stroke:#181818;stroke-width:0.5;" width="439" x="223.5" y="6"/><text fill="#000000" font-family="sans-serif" font-size="13" font-weight="bold" lengthAdjust="spacing" textLength="142" x="372" y="19.4951">&lt;&lt;System&gt;&gt; EletricGO</text><rect fill="#FFFFFF" height="582" style="stroke:#181818;stroke-width:1.0;" width="10" x="49.5" y="92.6094"/><rect fill="#FFFFFF" height="30.3516" style="stroke:#181818;stroke-width:1.0;" width="10" x="247.5" y="114.9609"/><rect fill="#FFFFFF" height="30.3516" style="stroke:#181818;stroke-width:1.0;" width="10" x="247.5" y="231.3672"/><rect fill="#FFFFFF" height="284" style="stroke:#181818;stroke-width:1.0;" width="10" x="247.5" y="292.0703"/><rect fill="#FFFFFF" height="30.3516" style="stroke:#181818;stroke-width:1.0;" width="10" x="247.5" y="629.2578"/><rect fill="#FFFFFF" height="30.3516" style="stroke:#181818;stroke-width:1.0;" width="10" x="429.5" y="145.3125"/><rect fill="#FFFFFF" height="30.3516" style="stroke:#181818;stroke-width:1.0;" width="10" x="429.5" y="347.7734"/><rect fill="#FFFFFF" height="30.3516" style="stroke:#181818;stroke-width:1.0;" width="10" x="429.5" y="485.0156"/><rect fill="#FFFFFF" height="499.9453" style="stroke:#181818;stroke-width:1.0;" width="10" x="608.5" y="175.6641"/><rect fill="none" height="476.9453" style="stroke:#000000;stroke-width:1.5;" width="668.5" x="10" y="190.6641"/><rect fill="none" height="277" style="stroke:#000000;stroke-width:1.5;" width="648.5" x="20" y="307.0703"/><line style="stroke:#181818;stroke-width:0.5;stroke-dasharray:5.0,5.0;" x1="54" x2="54" y1="82.6094" y2="684.6094"/><line style="stroke:#181818;stroke-width:0.5;stroke-dasharray:5.0,5.0;" x1="252.5" x2="252.5" y1="82.6094" y2="684.6094"/><line style="stroke:#181818;stroke-width:0.5;stroke-dasharray:5.0,5.0;" x1="434.5" x2="434.5" y1="82.6094" y2="684.6094"/><line style="stroke:#181818;stroke-width:0.5;stroke-dasharray:5.0,5.0;" x1="613.5" x2="613.5" y1="82.6094" y2="684.6094"/><text fill="#000000" font-family="sans-serif" font-size="14" lengthAdjust="spacing" textLength="43" x="30" y="79.5332">Router</text><ellipse cx="54.5" cy="13.5" fill="#E2E2F0" rx="8" ry="8" style="stroke:#181818;stroke-width:0.5;"/><path d="M54.5,21.5 L54.5,48.5 M41.5,29.5 L67.5,29.5 M54.5,48.5 L41.5,63.5 M54.5,48.5 L67.5,63.5 " fill="none" style="stroke:#181818;stroke-width:0.5;"/><text fill="#000000" font-family="sans-serif" font-size="14" lengthAdjust="spacing" textLength="43" x="30" y="698.1426">Router</text><ellipse cx="54.5" cy="709.7188" fill="#E2E2F0" rx="8" ry="8" style="stroke:#181818;stroke-width:0.5;"/><path d="M54.5,717.7188 L54.5,744.7188 M41.5,725.7188 L67.5,725.7188 M54.5,744.7188 L41.5,759.7188 M54.5,744.7188 L67.5,759.7188 " fill="none" style="stroke:#181818;stroke-width:0.5;"/><rect fill="#E2E2F0" height="31.6094" rx="2.5" ry="2.5" style="stroke:#181818;stroke-width:0.5;" width="50" x="227.5" y="50"/><text fill="#000000" font-family="sans-serif" font-size="14" lengthAdjust="spacing" textLength="36" x="234.5" y="71.5332">Views</text><rect fill="#E2E2F0" height="31.6094" rx="2.5" ry="2.5" style="stroke:#181818;stroke-width:0.5;" width="50" x="227.5" y="683.6094"/><text fill="#000000" font-family="sans-serif" font-size="14" lengthAdjust="spacing" textLength="36" x="234.5" y="705.1426">Views</text><rect fill="#E2E2F0" height="31.6094" rx="2.5" ry="2.5" style="stroke:#181818;stroke-width:0.5;" width="90" x="389.5" y="50"/><text fill="#000000" font-family="sans-serif" font-size="14" lengthAdjust="spacing" textLength="76" x="396.5" y="71.5332">ListUsersTS</text><rect fill="#E2E2F0" height="31.6094" rx="2.5" ry="2.5" style="stroke:#181818;stroke-width:0.5;" width="90" x="389.5" y="683.6094"/><text fill="#000000" font-family="sans-serif" font-size="14" lengthAdjust="spacing" textLength="76" x="396.5" y="705.1426">ListUsersTS</text><rect fill="#E2E2F0" height="31.6094" rx="2.5" ry="2.5" style="stroke:#181818;stroke-width:0.5;" width="90" x="568.5" y="50"/><text fill="#000000" font-family="sans-serif" font-size="14" lengthAdjust="spacing" textLength="76" x="575.5" y="71.5332">UserService</text><rect fill="#E2E2F0" height="31.6094" rx="2.5" ry="2.5" style="stroke:#181818;stroke-width:0.5;" width="90" x="568.5" y="683.6094"/><text fill="#000000" font-family="sans-serif" font-size="14" lengthAdjust="spacing" textLength="76" x="575.5" y="705.1426">UserService</text><rect fill="#FFFFFF" height="582" style="stroke:#181818;stroke-width:1.0;" width="10" x="49.5" y="92.6094"/><rect fill="#FFFFFF" height="30.3516" style="stroke:#181818;stroke-width:1.0;" width="10" x="247.5" y="114.9609"/><rect fill="#FFFFFF" height="30.3516" style="stroke:#181818;stroke-width:1.0;" width="10" x="247.5" y="231.3672"/><rect fill="#FFFFFF" height="284" style="stroke:#181818;stroke-width:1.0;" width="10" x="247.5" y="292.0703"/><rect fill="#FFFFFF" height="30.3516" style="stroke:#181818;stroke-width:1.0;" width="10" x="247.5" y="629.2578"/><rect fill="#FFFFFF" height="30.3516" style="stroke:#181818;stroke-width:1.0;" width="10" x="429.5" y="145.3125"/><rect fill="#FFFFFF" height="30.3516" style="stroke:#181818;stroke-width:1.0;" width="10" x="429.5" y="347.7734"/><rect fill="#FFFFFF" height="30.3516" style="stroke:#181818;stroke-width:1.0;" width="10" x="429.5" y="485.0156"/><rect fill="#FFFFFF" height="499.9453" style="stroke:#181818;stroke-width:1.0;" width="10" x="608.5" y="175.6641"/><polygon fill="#181818" points="235.5,110.9609,245.5,114.9609,235.5,118.9609,239.5,114.9609" style="stroke:#181818;stroke-width:1.0;"/><line style="stroke:#181818;stroke-width:1.0;" x1="59.5" x2="241.5" y1="114.9609" y2="114.9609"/><text fill="#000000" font-family="sans-serif" font-size="13" font-weight="bold" lengthAdjust="spacing" textLength="7" x="66.5" y="110.1045">1</text><text fill="#000000" font-family="sans-serif" font-size="13" lengthAdjust="spacing" textLength="122" x="77.5" y="110.1045">asks to list the users</text><polygon fill="#181818" points="417.5,141.3125,427.5,145.3125,417.5,149.3125,421.5,145.3125" style="stroke:#181818;stroke-width:1.0;"/><line style="stroke:#181818;stroke-width:1.0;" x1="252.5" x2="423.5" y1="145.3125" y2="145.3125"/><text fill="#000000" font-family="sans-serif" font-size="13" font-weight="bold" lengthAdjust="spacing" textLength="7" x="259.5" y="140.4561">2</text><text fill="#000000" font-family="sans-serif" font-size="13" lengthAdjust="spacing" textLength="58" x="270.5" y="140.4561">getusers()</text><polygon fill="#181818" points="596.5,171.6641,606.5,175.6641,596.5,179.6641,600.5,175.6641" style="stroke:#181818;stroke-width:1.0;"/><line style="stroke:#181818;stroke-width:1.0;" x1="434.5" x2="602.5" y1="175.6641" y2="175.6641"/><text fill="#000000" font-family="sans-serif" font-size="13" font-weight="bold" lengthAdjust="spacing" textLength="7" x="441.5" y="170.8076">3</text><text fill="#000000" font-family="sans-serif" font-size="13" lengthAdjust="spacing" textLength="50" x="452.5" y="170.8076">getusers</text><path d="M10,190.6641 L71,190.6641 L71,199.0156 L61,209.0156 L10,209.0156 L10,190.6641 " fill="#EEEEEE" style="stroke:#000000;stroke-width:1.5;"/><rect fill="none" height="476.9453" style="stroke:#000000;stroke-width:1.5;" width="668.5" x="10" y="190.6641"/><text fill="#000000" font-family="sans-serif" font-size="13" font-weight="bold" lengthAdjust="spacing" textLength="16" x="25" y="205.1592">alt</text><text fill="#000000" font-family="sans-serif" font-size="11" font-weight="bold" lengthAdjust="spacing" textLength="32" x="86" y="204.083">[if ok]</text><polygon fill="#181818" points="268.5,227.3672,258.5,231.3672,268.5,235.3672,264.5,231.3672" style="stroke:#181818;stroke-width:1.0;"/><line style="stroke:#181818;stroke-width:1.0;stroke-dasharray:2.0,2.0;" x1="262.5" x2="607.5" y1="231.3672" y2="231.3672"/><text fill="#000000" font-family="sans-serif" font-size="13" font-weight="bold" lengthAdjust="spacing" textLength="7" x="274.5" y="226.5107">4</text><text fill="#000000" font-family="sans-serif" font-size="13" lengthAdjust="spacing" textLength="21" x="285.5" y="226.5107">200</text><polygon fill="#181818" points="70.5,257.7188,60.5,261.7188,70.5,265.7188,66.5,261.7188" style="stroke:#181818;stroke-width:1.0;"/><line style="stroke:#181818;stroke-width:1.0;stroke-dasharray:2.0,2.0;" x1="64.5" x2="251.5" y1="261.7188" y2="261.7188"/><text fill="#000000" font-family="sans-serif" font-size="13" font-weight="bold" lengthAdjust="spacing" textLength="7" x="76.5" y="256.8623">5</text><text fill="#000000" font-family="sans-serif" font-size="13" lengthAdjust="spacing" textLength="19" x="87.5" y="256.8623">OK</text><polygon fill="#181818" points="235.5,288.0703,245.5,292.0703,235.5,296.0703,239.5,292.0703" style="stroke:#181818;stroke-width:1.0;"/><line style="stroke:#181818;stroke-width:1.0;" x1="59.5" x2="241.5" y1="292.0703" y2="292.0703"/><text fill="#000000" font-family="sans-serif" font-size="13" font-weight="bold" lengthAdjust="spacing" textLength="7" x="66.5" y="287.2139">6</text><text fill="#000000" font-family="sans-serif" font-size="13" lengthAdjust="spacing" textLength="158" x="77.5" y="287.2139">asks to change user status</text><path d="M20,307.0703 L81,307.0703 L81,315.4219 L71,325.4219 L20,325.4219 L20,307.0703 " fill="#EEEEEE" style="stroke:#000000;stroke-width:1.5;"/><rect fill="none" height="277" style="stroke:#000000;stroke-width:1.5;" width="648.5" x="20" y="307.0703"/><text fill="#000000" font-family="sans-serif" font-size="13" font-weight="bold" lengthAdjust="spacing" textLength="16" x="35" y="321.5654">alt</text><text fill="#000000" font-family="sans-serif" font-size="11" font-weight="bold" lengthAdjust="spacing" textLength="77" x="96" y="320.4893">[disable user]</text><polygon fill="#181818" points="417.5,343.7734,427.5,347.7734,417.5,351.7734,421.5,347.7734" style="stroke:#181818;stroke-width:1.0;"/><line style="stroke:#181818;stroke-width:1.0;" x1="257.5" x2="423.5" y1="347.7734" y2="347.7734"/><text fill="#000000" font-family="sans-serif" font-size="13" font-weight="bold" lengthAdjust="spacing" textLength="7" x="264.5" y="342.917">7</text><text fill="#000000" font-family="sans-serif" font-size="13" lengthAdjust="spacing" textLength="138" x="275.5" y="342.917">changeStatusDisables()</text><polygon fill="#181818" points="596.5,374.125,606.5,378.125,596.5,382.125,600.5,378.125" style="stroke:#181818;stroke-width:1.0;"/><line style="stroke:#181818;stroke-width:1.0;" x1="434.5" x2="602.5" y1="378.125" y2="378.125"/><text fill="#000000" font-family="sans-serif" font-size="13" font-weight="bold" lengthAdjust="spacing" textLength="7" x="441.5" y="373.2686">8</text><text fill="#000000" font-family="sans-serif" font-size="13" lengthAdjust="spacing" textLength="130" x="452.5" y="373.2686">changeStatusDisables</text><polygon fill="#181818" points="268.5,404.4766,258.5,408.4766,268.5,412.4766,264.5,408.4766" style="stroke:#181818;stroke-width:1.0;"/><line style="stroke:#181818;stroke-width:1.0;stroke-dasharray:2.0,2.0;" x1="262.5" x2="607.5" y1="408.4766" y2="408.4766"/><text fill="#000000" font-family="sans-serif" font-size="13" font-weight="bold" lengthAdjust="spacing" textLength="7" x="274.5" y="403.6201">9</text><text fill="#000000" font-family="sans-serif" font-size="13" lengthAdjust="spacing" textLength="21" x="285.5" y="403.6201">200</text><polygon fill="#181818" points="70.5,434.8281,60.5,438.8281,70.5,442.8281,66.5,438.8281" style="stroke:#181818;stroke-width:1.0;"/><line style="stroke:#181818;stroke-width:1.0;stroke-dasharray:2.0,2.0;" x1="64.5" x2="246.5" y1="438.8281" y2="438.8281"/><text fill="#000000" font-family="sans-serif" font-size="13" font-weight="bold" lengthAdjust="spacing" textLength="14" x="76.5" y="433.9717">10</text><text fill="#000000" font-family="sans-serif" font-size="13" lengthAdjust="spacing" textLength="141" x="94.5" y="433.9717">OK shows disabled user</text><line style="stroke:#000000;stroke-width:1.0;stroke-dasharray:2.0,2.0;" x1="20" x2="668.5" y1="447.8281" y2="447.8281"/><text fill="#000000" font-family="sans-serif" font-size="11" font-weight="bold" lengthAdjust="spacing" textLength="81" x="25" y="459.2471">[enables user]</text><polygon fill="#181818" points="417.5,481.0156,427.5,485.0156,417.5,489.0156,421.5,485.0156" style="stroke:#181818;stroke-width:1.0;"/><line style="stroke:#181818;stroke-width:1.0;" x1="257.5" x2="423.5" y1="485.0156" y2="485.0156"/><text fill="#000000" font-family="sans-serif" font-size="13" font-weight="bold" lengthAdjust="spacing" textLength="14" x="264.5" y="480.1592">11</text><text fill="#000000" font-family="sans-serif" font-size="13" lengthAdjust="spacing" textLength="135" x="282.5" y="480.1592">changeStatusEnables()</text><polygon fill="#181818" points="596.5,511.3672,606.5,515.3672,596.5,519.3672,600.5,515.3672" style="stroke:#181818;stroke-width:1.0;"/><line style="stroke:#181818;stroke-width:1.0;" x1="434.5" x2="602.5" y1="515.3672" y2="515.3672"/><text fill="#000000" font-family="sans-serif" font-size="13" font-weight="bold" lengthAdjust="spacing" textLength="14" x="441.5" y="510.5107">12</text><text fill="#000000" font-family="sans-serif" font-size="13" lengthAdjust="spacing" textLength="127" x="459.5" y="510.5107">changeStatusEnables</text><polygon fill="#181818" points="268.5,541.7188,258.5,545.7188,268.5,549.7188,264.5,545.7188" style="stroke:#181818;stroke-width:1.0;"/><line style="stroke:#181818;stroke-width:1.0;stroke-dasharray:2.0,2.0;" x1="262.5" x2="607.5" y1="545.7188" y2="545.7188"/><text fill="#000000" font-family="sans-serif" font-size="13" font-weight="bold" lengthAdjust="spacing" textLength="14" x="274.5" y="540.8623">13</text><text fill="#000000" font-family="sans-serif" font-size="13" lengthAdjust="spacing" textLength="21" x="292.5" y="540.8623">200</text><polygon fill="#181818" points="70.5,572.0703,60.5,576.0703,70.5,580.0703,66.5,576.0703" style="stroke:#181818;stroke-width:1.0;"/><line style="stroke:#181818;stroke-width:1.0;stroke-dasharray:2.0,2.0;" x1="64.5" x2="251.5" y1="576.0703" y2="576.0703"/><text fill="#000000" font-family="sans-serif" font-size="13" font-weight="bold" lengthAdjust="spacing" textLength="14" x="76.5" y="571.2139">14</text><text fill="#000000" font-family="sans-serif" font-size="13" lengthAdjust="spacing" textLength="138" x="94.5" y="571.2139">OK shows enabled user</text><line style="stroke:#000000;stroke-width:1.0;stroke-dasharray:2.0,2.0;" x1="10" x2="678.5" y1="592.0703" y2="592.0703"/><text fill="#000000" font-family="sans-serif" font-size="11" font-weight="bold" lengthAdjust="spacing" textLength="37" x="15" y="603.4893">[error]</text><polygon fill="#181818" points="268.5,625.2578,258.5,629.2578,268.5,633.2578,264.5,629.2578" style="stroke:#181818;stroke-width:1.0;"/><line style="stroke:#181818;stroke-width:1.0;stroke-dasharray:2.0,2.0;" x1="262.5" x2="607.5" y1="629.2578" y2="629.2578"/><text fill="#000000" font-family="sans-serif" font-size="13" font-weight="bold" lengthAdjust="spacing" textLength="14" x="274.5" y="624.4014">15</text><text fill="#000000" font-family="sans-serif" font-size="13" lengthAdjust="spacing" textLength="46" x="292.5" y="624.4014">400/423</text><polygon fill="#181818" points="70.5,655.6094,60.5,659.6094,70.5,663.6094,66.5,659.6094" style="stroke:#181818;stroke-width:1.0;"/><line style="stroke:#181818;stroke-width:1.0;stroke-dasharray:2.0,2.0;" x1="64.5" x2="251.5" y1="659.6094" y2="659.6094"/><text fill="#000000" font-family="sans-serif" font-size="13" font-weight="bold" lengthAdjust="spacing" textLength="14" x="76.5" y="654.7529">16</text><text fill="#000000" font-family="sans-serif" font-size="13" lengthAdjust="spacing" textLength="46" x="94.5" y="654.7529">ERROR</text><!--MD5=[0d34e3bc4b1deb80961eb210d42738e0]
@startuml Sequence Diagram
autonumber

actor Router as LM

activate LM
box "<<System>> EletricGO" #LightBlue
'participant "<<System>> EletricGO" as E
participant "Views" as Views
participant "ListUsersTS" as ctr
participant "UserService" as serv
end box




            LM -> Views: asks to list the users
            activate Views
            Views -> ctr: getusers()
            deactivate Views
            activate ctr

    ctr -> serv: getusers
    deactivate ctr
    activate serv
   
 

    alt if ok
    

    serv - -> Views: 200
     
    activate Views
    LM <- - Views: OK
    deactivate Views

     LM -> Views: asks to change user status
            activate Views

                        alt disable user

            Views -> ctr: changeStatusDisables()
            activate ctr

    ctr -> serv: changeStatusDisables
    deactivate ctr
    serv - -> Views: 200
     
    LM <- - Views: OK shows disabled user


               else enables user

  Views -> ctr: changeStatusEnables()
            activate ctr

    ctr -> serv: changeStatusEnables
    deactivate ctr
    serv - -> Views: 200
     
    LM <- - Views: OK shows enabled user
    deactivate Views

end alt
    else error
    Views <- - serv: 400/423
    deactivate ctr
    activate Views

    LM <- - Views: ERROR
    deactivate Views

                end alt
               


                deactivate LM

                @enduml

@startuml Sequence Diagram
autonumber

actor Router as LM

activate LM
box "<<System>> EletricGO" #LightBlue
participant "Views" as Views
participant "ListUsersTS" as ctr
participant "UserService" as serv
end box




            LM -> Views: asks to list the users
            activate Views
            Views -> ctr: getusers()
            deactivate Views
            activate ctr

    ctr -> serv: getusers
    deactivate ctr
    activate serv
   
 

    alt if ok
    

    serv - -> Views: 200
     
    activate Views
    LM <- - Views: OK
    deactivate Views

     LM -> Views: asks to change user status
            activate Views

                        alt disable user

            Views -> ctr: changeStatusDisables()
            activate ctr

    ctr -> serv: changeStatusDisables
    deactivate ctr
    serv - -> Views: 200
     
    LM <- - Views: OK shows disabled user


               else enables user

  Views -> ctr: changeStatusEnables()
            activate ctr

    ctr -> serv: changeStatusEnables
    deactivate ctr
    serv - -> Views: 200
     
    LM <- - Views: OK shows enabled user
    deactivate Views

end alt
    else error
    Views <- - serv: 400/423
    deactivate ctr
    activate Views

    LM <- - Views: ERROR
    deactivate Views

                end alt
               


                deactivate LM

                @enduml

PlantUML version 1.2022.7(Mon Aug 22 17:01:30 GMT 2022)
(GPL source distribution)
Java Runtime: Java(TM) SE Runtime Environment
JVM: Java HotSpot(TM) 64-Bit Server VM
Default Encoding: Cp1252
Language: pt
Country: PT
--></g></svg>