<?xml version="1.0" encoding="UTF-8" standalone="no"?><svg xmlns="http://www.w3.org/2000/svg" xmlns:xlink="http://www.w3.org/1999/xlink" contentStyleType="text/css" height="763px" preserveAspectRatio="none" style="width:544px;height:763px;background:#FFFFFF;" version="1.1" viewBox="0 0 544 763" width="544px" zoomAndPan="magnify"><defs/><g><rect fill="#FFFFFF" height="29.3105" style="stroke:#181818;stroke-width:1.0;" width="10" x="354" y="137.1094"/><rect fill="#FFFFFF" height="97.8867" style="stroke:#181818;stroke-width:1.0;" width="10" x="354" y="195.7305"/><rect fill="#FFFFFF" height="29.3105" style="stroke:#181818;stroke-width:1.0;" width="10" x="354" y="344.8828"/><rect fill="#FFFFFF" height="97.8867" style="stroke:#181818;stroke-width:1.0;" width="10" x="354" y="403.5039"/><rect fill="#FFFFFF" height="97.8867" style="stroke:#181818;stroke-width:1.0;" width="10" x="354" y="552.6563"/><rect fill="none" height="567.0547" style="stroke:#000000;stroke-width:1.5;" width="527" x="10" y="98.4883"/><rect fill="none" height="90.8867" style="stroke:#000000;stroke-width:1.5;" width="507" x="20" y="210.7305"/><rect fill="none" height="90.8867" style="stroke:#000000;stroke-width:1.5;" width="507" x="20" y="418.5039"/><rect fill="none" height="90.8867" style="stroke:#000000;stroke-width:1.5;" width="507" x="20" y="567.6563"/><line style="stroke:#181818;stroke-width:0.5;stroke-dasharray:5.0,5.0;" x1="110" x2="110" y1="81.4883" y2="682.543"/><line style="stroke:#181818;stroke-width:0.5;stroke-dasharray:5.0,5.0;" x1="359" x2="359" y1="81.4883" y2="682.543"/><text fill="#000000" font-family="sans-serif" font-size="14" lengthAdjust="spacing" textLength="155" x="30" y="78.5352">WAREHOUSEMANAGER</text><ellipse cx="110.5" cy="13.5" fill="#E2E2F0" rx="8" ry="8" style="stroke:#181818;stroke-width:0.5;"/><path d="M110.5,21.5 L110.5,48.5 M97.5,29.5 L123.5,29.5 M110.5,48.5 L97.5,63.5 M110.5,48.5 L123.5,63.5 " fill="none" style="stroke:#181818;stroke-width:0.5;"/><text fill="#000000" font-family="sans-serif" font-size="14" lengthAdjust="spacing" textLength="155" x="30" y="695.0781">WAREHOUSEMANAGER</text><ellipse cx="110.5" cy="706.5313" fill="#E2E2F0" rx="8" ry="8" style="stroke:#181818;stroke-width:0.5;"/><path d="M110.5,714.5313 L110.5,741.5313 M97.5,722.5313 L123.5,722.5313 M110.5,741.5313 L97.5,756.5313 M110.5,741.5313 L123.5,756.5313 " fill="none" style="stroke:#181818;stroke-width:0.5;"/><rect fill="#E2E2F0" height="30.4883" rx="2.5" ry="2.5" style="stroke:#181818;stroke-width:0.5;" width="316" x="201" y="50"/><text fill="#000000" font-family="sans-serif" font-size="14" lengthAdjust="spacing" textLength="302" x="208" y="70.5352">&lt;&lt;System&gt;&gt; &lt;&lt;Context C4&gt;&gt; ELETRIC GO</text><rect fill="#E2E2F0" height="30.4883" rx="2.5" ry="2.5" style="stroke:#181818;stroke-width:0.5;" width="316" x="201" y="681.543"/><text fill="#000000" font-family="sans-serif" font-size="14" lengthAdjust="spacing" textLength="302" x="208" y="702.0781">&lt;&lt;System&gt;&gt; &lt;&lt;Context C4&gt;&gt; ELETRIC GO</text><rect fill="#FFFFFF" height="29.3105" style="stroke:#181818;stroke-width:1.0;" width="10" x="354" y="137.1094"/><rect fill="#FFFFFF" height="97.8867" style="stroke:#181818;stroke-width:1.0;" width="10" x="354" y="195.7305"/><rect fill="#FFFFFF" height="29.3105" style="stroke:#181818;stroke-width:1.0;" width="10" x="354" y="344.8828"/><rect fill="#FFFFFF" height="97.8867" style="stroke:#181818;stroke-width:1.0;" width="10" x="354" y="403.5039"/><rect fill="#FFFFFF" height="97.8867" style="stroke:#181818;stroke-width:1.0;" width="10" x="354" y="552.6563"/><path d="M10,98.4883 L72,98.4883 L72,105.7988 L62,115.7988 L10,115.7988 L10,98.4883 " fill="#EEEEEE" style="stroke:#000000;stroke-width:1.5;"/><rect fill="none" height="567.0547" style="stroke:#000000;stroke-width:1.5;" width="527" x="10" y="98.4883"/><text fill="#000000" font-family="sans-serif" font-size="13" font-weight="bold" lengthAdjust="spacing" textLength="17" x="25" y="112.0566">alt</text><text fill="#000000" font-family="sans-serif" font-size="11" font-weight="bold" lengthAdjust="spacing" textLength="193" x="87" y="111.123">[if you want to create the delivery]</text><polygon fill="#181818" points="342,133.1094,352,137.1094,342,141.1094,346,137.1094" style="stroke:#181818;stroke-width:1.0;"/><line style="stroke:#181818;stroke-width:1.0;" x1="110.5" x2="348" y1="137.1094" y2="137.1094"/><text fill="#000000" font-family="sans-serif" font-size="13" font-weight="bold" lengthAdjust="spacing" textLength="9" x="117.5" y="132.3672">1</text><text fill="#000000" font-family="sans-serif" font-size="13" lengthAdjust="spacing" textLength="161" x="130.5" y="132.3672">Starts to create a Delivery</text><polygon fill="#181818" points="121.5,162.4199,111.5,166.4199,121.5,170.4199,117.5,166.4199" style="stroke:#181818;stroke-width:1.0;"/><line style="stroke:#181818;stroke-width:1.0;stroke-dasharray:2.0,2.0;" x1="115.5" x2="358" y1="166.4199" y2="166.4199"/><text fill="#000000" font-family="sans-serif" font-size="13" font-weight="bold" lengthAdjust="spacing" textLength="9" x="127.5" y="161.6777">2</text><text fill="#000000" font-family="sans-serif" font-size="13" lengthAdjust="spacing" textLength="84" x="140.5" y="161.6777">Asks for data</text><polygon fill="#181818" points="342,191.7305,352,195.7305,342,199.7305,346,195.7305" style="stroke:#181818;stroke-width:1.0;"/><line style="stroke:#181818;stroke-width:1.0;" x1="110.5" x2="348" y1="195.7305" y2="195.7305"/><text fill="#000000" font-family="sans-serif" font-size="13" font-weight="bold" lengthAdjust="spacing" textLength="9" x="117.5" y="190.9883">3</text><text fill="#000000" font-family="sans-serif" font-size="13" lengthAdjust="spacing" textLength="181" x="130.5" y="190.9883">Introduce the requested data</text><path d="M20,210.7305 L82,210.7305 L82,218.041 L72,228.041 L20,228.041 L20,210.7305 " fill="#EEEEEE" style="stroke:#000000;stroke-width:1.5;"/><rect fill="none" height="90.8867" style="stroke:#000000;stroke-width:1.5;" width="507" x="20" y="210.7305"/><text fill="#000000" font-family="sans-serif" font-size="13" font-weight="bold" lengthAdjust="spacing" textLength="17" x="35" y="224.2988">alt</text><text fill="#000000" font-family="sans-serif" font-size="11" font-weight="bold" lengthAdjust="spacing" textLength="35" x="97" y="223.3652">[if ok]</text><polygon fill="#181818" points="121.5,245.3516,111.5,249.3516,121.5,253.3516,117.5,249.3516" style="stroke:#181818;stroke-width:1.0;"/><line style="stroke:#181818;stroke-width:1.0;stroke-dasharray:2.0,2.0;" x1="115.5" x2="353" y1="249.3516" y2="249.3516"/><text fill="#000000" font-family="sans-serif" font-size="13" font-weight="bold" lengthAdjust="spacing" textLength="9" x="127.5" y="244.6094">4</text><text fill="#000000" font-family="sans-serif" font-size="13" lengthAdjust="spacing" textLength="18" x="140.5" y="244.6094">OK</text><line style="stroke:#000000;stroke-width:1.0;stroke-dasharray:2.0,2.0;" x1="20" x2="527" y1="258.3516" y2="258.3516"/><text fill="#000000" font-family="sans-serif" font-size="11" font-weight="bold" lengthAdjust="spacing" textLength="36" x="25" y="268.9863">[error]</text><polygon fill="#181818" points="121.5,289.6172,111.5,293.6172,121.5,297.6172,117.5,293.6172" style="stroke:#181818;stroke-width:1.0;"/><line style="stroke:#181818;stroke-width:1.0;stroke-dasharray:2.0,2.0;" x1="115.5" x2="358" y1="293.6172" y2="293.6172"/><text fill="#000000" font-family="sans-serif" font-size="13" font-weight="bold" lengthAdjust="spacing" textLength="9" x="127.5" y="288.875">5</text><text fill="#000000" font-family="sans-serif" font-size="13" lengthAdjust="spacing" textLength="41" x="140.5" y="288.875">ERROR</text><line style="stroke:#000000;stroke-width:1.0;stroke-dasharray:2.0,2.0;" x1="10" x2="537" y1="309.6172" y2="309.6172"/><text fill="#000000" font-family="sans-serif" font-size="11" font-weight="bold" lengthAdjust="spacing" textLength="181" x="15" y="320.252">[if you want to edit the delivery]</text><polygon fill="#181818" points="342,340.8828,352,344.8828,342,348.8828,346,344.8828" style="stroke:#181818;stroke-width:1.0;"/><line style="stroke:#181818;stroke-width:1.0;" x1="110.5" x2="348" y1="344.8828" y2="344.8828"/><text fill="#000000" font-family="sans-serif" font-size="13" font-weight="bold" lengthAdjust="spacing" textLength="9" x="117.5" y="340.1406">6</text><text fill="#000000" font-family="sans-serif" font-size="13" lengthAdjust="spacing" textLength="147" x="130.5" y="340.1406">Starts to edit a Delivery</text><polygon fill="#181818" points="121.5,370.1934,111.5,374.1934,121.5,378.1934,117.5,374.1934" style="stroke:#181818;stroke-width:1.0;"/><line style="stroke:#181818;stroke-width:1.0;stroke-dasharray:2.0,2.0;" x1="115.5" x2="358" y1="374.1934" y2="374.1934"/><text fill="#000000" font-family="sans-serif" font-size="13" font-weight="bold" lengthAdjust="spacing" textLength="9" x="127.5" y="369.4512">7</text><text fill="#000000" font-family="sans-serif" font-size="13" lengthAdjust="spacing" textLength="84" x="140.5" y="369.4512">Asks for data</text><polygon fill="#181818" points="342,399.5039,352,403.5039,342,407.5039,346,403.5039" style="stroke:#181818;stroke-width:1.0;"/><line style="stroke:#181818;stroke-width:1.0;" x1="110.5" x2="348" y1="403.5039" y2="403.5039"/><text fill="#000000" font-family="sans-serif" font-size="13" font-weight="bold" lengthAdjust="spacing" textLength="9" x="117.5" y="398.7617">8</text><text fill="#000000" font-family="sans-serif" font-size="13" lengthAdjust="spacing" textLength="181" x="130.5" y="398.7617">Introduce the requested data</text><path d="M20,418.5039 L82,418.5039 L82,425.8145 L72,435.8145 L20,435.8145 L20,418.5039 " fill="#EEEEEE" style="stroke:#000000;stroke-width:1.5;"/><rect fill="none" height="90.8867" style="stroke:#000000;stroke-width:1.5;" width="507" x="20" y="418.5039"/><text fill="#000000" font-family="sans-serif" font-size="13" font-weight="bold" lengthAdjust="spacing" textLength="17" x="35" y="432.0723">alt</text><text fill="#000000" font-family="sans-serif" font-size="11" font-weight="bold" lengthAdjust="spacing" textLength="35" x="97" y="431.1387">[if ok]</text><polygon fill="#181818" points="121.5,453.125,111.5,457.125,121.5,461.125,117.5,457.125" style="stroke:#181818;stroke-width:1.0;"/><line style="stroke:#181818;stroke-width:1.0;stroke-dasharray:2.0,2.0;" x1="115.5" x2="353" y1="457.125" y2="457.125"/><text fill="#000000" font-family="sans-serif" font-size="13" font-weight="bold" lengthAdjust="spacing" textLength="9" x="127.5" y="452.3828">9</text><text fill="#000000" font-family="sans-serif" font-size="13" lengthAdjust="spacing" textLength="18" x="140.5" y="452.3828">OK</text><line style="stroke:#000000;stroke-width:1.0;stroke-dasharray:2.0,2.0;" x1="20" x2="527" y1="466.125" y2="466.125"/><text fill="#000000" font-family="sans-serif" font-size="11" font-weight="bold" lengthAdjust="spacing" textLength="36" x="25" y="476.7598">[error]</text><polygon fill="#181818" points="121.5,497.3906,111.5,501.3906,121.5,505.3906,117.5,501.3906" style="stroke:#181818;stroke-width:1.0;"/><line style="stroke:#181818;stroke-width:1.0;stroke-dasharray:2.0,2.0;" x1="115.5" x2="358" y1="501.3906" y2="501.3906"/><text fill="#000000" font-family="sans-serif" font-size="13" font-weight="bold" lengthAdjust="spacing" textLength="18" x="127.5" y="496.6484">10</text><text fill="#000000" font-family="sans-serif" font-size="13" lengthAdjust="spacing" textLength="41" x="149.5" y="496.6484">ERROR</text><line style="stroke:#000000;stroke-width:1.0;stroke-dasharray:2.0,2.0;" x1="10" x2="537" y1="517.3906" y2="517.3906"/><text fill="#000000" font-family="sans-serif" font-size="11" font-weight="bold" lengthAdjust="spacing" textLength="188" x="15" y="528.0254">[if you want to list the deliveries]</text><polygon fill="#181818" points="342,548.6563,352,552.6563,342,556.6563,346,552.6563" style="stroke:#181818;stroke-width:1.0;"/><line style="stroke:#181818;stroke-width:1.0;" x1="110.5" x2="348" y1="552.6563" y2="552.6563"/><text fill="#000000" font-family="sans-serif" font-size="13" font-weight="bold" lengthAdjust="spacing" textLength="18" x="117.5" y="547.9141">11</text><text fill="#000000" font-family="sans-serif" font-size="13" lengthAdjust="spacing" textLength="160" x="139.5" y="547.9141">asks to list the Deliveries</text><path d="M20,567.6563 L82,567.6563 L82,574.9668 L72,584.9668 L20,584.9668 L20,567.6563 " fill="#EEEEEE" style="stroke:#000000;stroke-width:1.5;"/><rect fill="none" height="90.8867" style="stroke:#000000;stroke-width:1.5;" width="507" x="20" y="567.6563"/><text fill="#000000" font-family="sans-serif" font-size="13" font-weight="bold" lengthAdjust="spacing" textLength="17" x="35" y="581.2246">alt</text><text fill="#000000" font-family="sans-serif" font-size="11" font-weight="bold" lengthAdjust="spacing" textLength="35" x="97" y="580.291">[if ok]</text><polygon fill="#181818" points="121.5,602.2773,111.5,606.2773,121.5,610.2773,117.5,606.2773" style="stroke:#181818;stroke-width:1.0;"/><line style="stroke:#181818;stroke-width:1.0;stroke-dasharray:2.0,2.0;" x1="115.5" x2="353" y1="606.2773" y2="606.2773"/><text fill="#000000" font-family="sans-serif" font-size="13" font-weight="bold" lengthAdjust="spacing" textLength="18" x="127.5" y="601.5352">12</text><text fill="#000000" font-family="sans-serif" font-size="13" lengthAdjust="spacing" textLength="194" x="149.5" y="601.5352">OK and shows list of deliveries</text><line style="stroke:#000000;stroke-width:1.0;stroke-dasharray:2.0,2.0;" x1="20" x2="527" y1="615.2773" y2="615.2773"/><text fill="#000000" font-family="sans-serif" font-size="11" font-weight="bold" lengthAdjust="spacing" textLength="36" x="25" y="625.9121">[error]</text><polygon fill="#181818" points="121.5,646.543,111.5,650.543,121.5,654.543,117.5,650.543" style="stroke:#181818;stroke-width:1.0;"/><line style="stroke:#181818;stroke-width:1.0;stroke-dasharray:2.0,2.0;" x1="115.5" x2="358" y1="650.543" y2="650.543"/><text fill="#000000" font-family="sans-serif" font-size="13" font-weight="bold" lengthAdjust="spacing" textLength="18" x="127.5" y="645.8008">13</text><text fill="#000000" font-family="sans-serif" font-size="13" lengthAdjust="spacing" textLength="41" x="149.5" y="645.8008">ERROR</text><!--MD5=[024371fbb0bc5d5523ae58422dfb3750]
@startuml Sequence Diagram
autonumber

actor WAREHOUSEMANAGER as WMR

participant "<<System>> <<Context C4>> ELETRIC GO" as SYS

alt if you want to create the delivery
WMR -> SYS: Starts to create a Delivery
activate SYS
SYS - -> WMR: Asks for data
deactivate SYS
WMR-> SYS: Introduce the requested data
activate SYS

alt if ok 


WMR <- - SYS: OK

else error 


WMR <- - SYS: ERROR

deactivate SYS



end alt
else if you want to edit the delivery

WMR -> SYS: Starts to edit a Delivery
activate SYS
SYS - -> WMR: Asks for data
deactivate SYS

WMR-> SYS: Introduce the requested data
activate SYS
alt if ok 
WMR <- - SYS: OK

else error 


WMR <- - SYS: ERROR
deactivate SYS
end alt

else if you want to list the deliveries
WMR -> SYS: asks to list the Deliveries
alt if ok 

activate SYS


WMR <- - SYS: OK and shows list of deliveries

else error


WMR <- - SYS: ERROR
deactivate SYS


end alt
end alt

@enduml

PlantUML version 1.2022.7(Mon Aug 22 18:01:30 WEST 2022)
(GPL source distribution)
Java Runtime: Java(TM) SE Runtime Environment
JVM: Java HotSpot(TM) 64-Bit Server VM
Default Encoding: UTF-8
Language: pt
Country: PT
--></g></svg>