<?xml version="1.0" encoding="UTF-8" standalone="no"?><svg xmlns="http://www.w3.org/2000/svg" xmlns:xlink="http://www.w3.org/1999/xlink" contentStyleType="text/css" height="1607px" preserveAspectRatio="none" style="width:2449px;height:1607px;background:#FFFFFF;" version="1.1" viewBox="0 0 2449 1607" width="2449px" zoomAndPan="magnify"><defs/><g><rect fill="#ADD8E6" height="1595.1523" style="stroke:#181818;stroke-width:0.5;" width="1900" x="536.5" y="6"/><text fill="#000000" font-family="sans-serif" font-size="13" font-weight="bold" lengthAdjust="spacing" textLength="155" x="1409" y="18.5684">&lt;&lt;System&gt;&gt; EletricGO</text><rect fill="#FFFFFF" height="1421.1758" style="stroke:#181818;stroke-width:1.0;" width="10" x="95.5" y="91.4883"/><rect fill="#FFFFFF" height="29.3105" style="stroke:#181818;stroke-width:1.0;" width="10" x="555.5" y="137.1094"/><rect fill="#FFFFFF" height="347.4609" style="stroke:#181818;stroke-width:1.0;" width="10" x="555.5" y="195.7305"/><rect fill="#FFFFFF" height="29.3105" style="stroke:#181818;stroke-width:1.0;" width="10" x="555.5" y="587.457"/><rect fill="#FFFFFF" height="542.5254" style="stroke:#181818;stroke-width:1.0;" width="10" x="555.5" y="646.0781"/><rect fill="#FFFFFF" height="263.7949" style="stroke:#181818;stroke-width:1.0;" width="10" x="555.5" y="1232.8691"/><rect fill="#FFFFFF" height="288.8398" style="stroke:#181818;stroke-width:1.0;" width="10" x="763.5" y="225.041"/><rect fill="#FFFFFF" height="513.2148" style="stroke:#181818;stroke-width:1.0;" width="10" x="763.5" y="675.3887"/><rect fill="#FFFFFF" height="205.1738" style="stroke:#181818;stroke-width:1.0;" width="10" x="763.5" y="1262.1797"/><rect fill="#FFFFFF" height="188.7305" style="stroke:#181818;stroke-width:1.0;" width="10" x="1076" y="295.8398"/><rect fill="#FFFFFF" height="442.416" style="stroke:#181818;stroke-width:1.0;" width="10" x="1076" y="746.1875"/><rect fill="#FFFFFF" height="146.5527" style="stroke:#181818;stroke-width:1.0;" width="10" x="1076" y="1291.4902"/><rect fill="#FFFFFF" height="130.1094" style="stroke:#181818;stroke-width:1.0;" width="10" x="1365" y="325.1504"/><rect fill="#FFFFFF" height="325.1738" style="stroke:#181818;stroke-width:1.0;" width="10" x="1365" y="775.498"/><rect fill="#FFFFFF" height="87.9316" style="stroke:#181818;stroke-width:1.0;" width="10" x="1365" y="1320.8008"/><rect fill="#FFFFFF" height="30" style="stroke:#181818;stroke-width:1.0;" width="10" x="1748" y="395.9492"/><rect fill="#FFFFFF" height="29.3105" style="stroke:#181818;stroke-width:1.0;" width="10" x="1748" y="804.8086"/><rect fill="#FFFFFF" height="29.3105" style="stroke:#181818;stroke-width:1.0;" width="10" x="1748" y="1350.1113"/><rect fill="#FFFFFF" height="30" style="stroke:#181818;stroke-width:1.0;" width="10" x="1843.5" y="863.4297"/><rect fill="#FFFFFF" height="30" style="stroke:#181818;stroke-width:1.0;" width="10" x="1843.5" y="922.7402"/><rect fill="#FFFFFF" height="30" style="stroke:#181818;stroke-width:1.0;" width="10" x="1843.5" y="982.0508"/><rect fill="#FFFFFF" height="30" style="stroke:#181818;stroke-width:1.0;" width="10" x="1843.5" y="1041.3613"/><rect fill="none" height="1406.1758" style="stroke:#000000;stroke-width:1.5;" width="2432.5" x="10" y="98.4883"/><line style="stroke:#181818;stroke-width:0.5;stroke-dasharray:5.0,5.0;" x1="100" x2="100" y1="81.4883" y2="1521.6641"/><line style="stroke:#181818;stroke-width:0.5;stroke-dasharray:5.0,5.0;" x1="560.5" x2="560.5" y1="81.4883" y2="1521.6641"/><line style="stroke:#181818;stroke-width:0.5;stroke-dasharray:5.0,5.0;" x1="768" x2="768" y1="81.4883" y2="1521.6641"/><line style="stroke:#181818;stroke-width:0.5;stroke-dasharray:5.0,5.0;" x1="965" x2="965" y1="81.4883" y2="1521.6641"/><line style="stroke:#181818;stroke-width:0.5;stroke-dasharray:5.0,5.0;" x1="1081" x2="1081" y1="81.4883" y2="1521.6641"/><line style="stroke:#181818;stroke-width:0.5;stroke-dasharray:5.0,5.0;" x1="1370" x2="1370" y1="81.4883" y2="1521.6641"/><line style="stroke:#181818;stroke-width:0.5;stroke-dasharray:5.0,5.0;" x1="1752.5" x2="1752.5" y1="81.4883" y2="1521.6641"/><line style="stroke:#181818;stroke-width:0.5;stroke-dasharray:5.0,5.0;" x1="1848.5" x2="1848.5" y1="81.4883" y2="1521.6641"/><line style="stroke:#181818;stroke-width:0.5;stroke-dasharray:5.0,5.0;" x1="1956.5" x2="1956.5" y1="81.4883" y2="1521.6641"/><line style="stroke:#181818;stroke-width:0.5;stroke-dasharray:5.0,5.0;" x1="2095.5" x2="2095.5" y1="263.7852" y2="1521.6641"/><line style="stroke:#181818;stroke-width:0.5;stroke-dasharray:5.0,5.0;" x1="2234.5" x2="2234.5" y1="363.8945" y2="1521.6641"/><line style="stroke:#181818;stroke-width:0.5;stroke-dasharray:5.0,5.0;" x1="2370.5" x2="2370.5" y1="714.1328" y2="1521.6641"/><text fill="#000000" font-family="sans-serif" font-size="14" lengthAdjust="spacing" textLength="155" x="20" y="78.5352">WAREHOUSEMANAGER</text><ellipse cx="100.5" cy="13.5" fill="#E2E2F0" rx="8" ry="8" style="stroke:#181818;stroke-width:0.5;"/><path d="M100.5,21.5 L100.5,48.5 M87.5,29.5 L113.5,29.5 M100.5,48.5 L87.5,63.5 M100.5,48.5 L113.5,63.5 " fill="none" style="stroke:#181818;stroke-width:0.5;"/><text fill="#000000" font-family="sans-serif" font-size="14" lengthAdjust="spacing" textLength="155" x="20" y="1534.1992">WAREHOUSEMANAGER</text><ellipse cx="100.5" cy="1545.6523" fill="#E2E2F0" rx="8" ry="8" style="stroke:#181818;stroke-width:0.5;"/><path d="M100.5,1553.6523 L100.5,1580.6523 M87.5,1561.6523 L113.5,1561.6523 M100.5,1580.6523 L87.5,1595.6523 M100.5,1580.6523 L113.5,1595.6523 " fill="none" style="stroke:#181818;stroke-width:0.5;"/><rect fill="#E2E2F0" height="30.4883" rx="2.5" ry="2.5" style="stroke:#181818;stroke-width:0.5;" width="40" x="540.5" y="50"/><text fill="#000000" font-family="sans-serif" font-size="14" lengthAdjust="spacing" textLength="26" x="547.5" y="70.5352">SPA</text><rect fill="#E2E2F0" height="30.4883" rx="2.5" ry="2.5" style="stroke:#181818;stroke-width:0.5;" width="40" x="540.5" y="1520.6641"/><text fill="#000000" font-family="sans-serif" font-size="14" lengthAdjust="spacing" textLength="26" x="547.5" y="1541.1992">SPA</text><rect fill="#E2E2F0" height="30.4883" rx="2.5" ry="2.5" style="stroke:#181818;stroke-width:0.5;" width="299" x="619" y="50"/><text fill="#000000" font-family="sans-serif" font-size="14" lengthAdjust="spacing" textLength="285" x="626" y="70.5352">&lt;&lt;Container&gt;&gt; Warehouse Management</text><rect fill="#E2E2F0" height="30.4883" rx="2.5" ry="2.5" style="stroke:#181818;stroke-width:0.5;" width="299" x="619" y="1520.6641"/><text fill="#000000" font-family="sans-serif" font-size="14" lengthAdjust="spacing" textLength="285" x="626" y="1541.1992">&lt;&lt;Container&gt;&gt; Warehouse Management</text><rect fill="#E2E2F0" height="30.4883" rx="2.5" ry="2.5" style="stroke:#181818;stroke-width:0.5;" width="74" x="928" y="50"/><text fill="#000000" font-family="sans-serif" font-size="14" lengthAdjust="spacing" textLength="60" x="935" y="70.5352">Planning</text><rect fill="#E2E2F0" height="30.4883" rx="2.5" ry="2.5" style="stroke:#181818;stroke-width:0.5;" width="74" x="928" y="1520.6641"/><text fill="#000000" font-family="sans-serif" font-size="14" lengthAdjust="spacing" textLength="60" x="935" y="1541.1992">Planning</text><rect fill="#E2E2F0" height="30.4883" rx="2.5" ry="2.5" style="stroke:#181818;stroke-width:0.5;" width="138" x="1012" y="50"/><text fill="#000000" font-family="sans-serif" font-size="14" lengthAdjust="spacing" textLength="124" x="1019" y="70.5352">DeliveryController</text><rect fill="#E2E2F0" height="30.4883" rx="2.5" ry="2.5" style="stroke:#181818;stroke-width:0.5;" width="138" x="1012" y="1520.6641"/><text fill="#000000" font-family="sans-serif" font-size="14" lengthAdjust="spacing" textLength="124" x="1019" y="1541.1992">DeliveryController</text><rect fill="#E2E2F0" height="30.4883" rx="2.5" ry="2.5" style="stroke:#181818;stroke-width:0.5;" width="116" x="1312" y="50"/><text fill="#000000" font-family="sans-serif" font-size="14" lengthAdjust="spacing" textLength="102" x="1319" y="70.5352">DeliveryService</text><rect fill="#E2E2F0" height="30.4883" rx="2.5" ry="2.5" style="stroke:#181818;stroke-width:0.5;" width="116" x="1312" y="1520.6641"/><text fill="#000000" font-family="sans-serif" font-size="14" lengthAdjust="spacing" textLength="102" x="1319" y="1541.1992">DeliveryService</text><rect fill="#E2E2F0" height="30.4883" rx="2.5" ry="2.5" style="stroke:#181818;stroke-width:0.5;" width="103" x="1701.5" y="50"/><text fill="#000000" font-family="sans-serif" font-size="14" lengthAdjust="spacing" textLength="89" x="1708.5" y="70.5352">DeliveryRepo</text><rect fill="#E2E2F0" height="30.4883" rx="2.5" ry="2.5" style="stroke:#181818;stroke-width:0.5;" width="103" x="1701.5" y="1520.6641"/><text fill="#000000" font-family="sans-serif" font-size="14" lengthAdjust="spacing" textLength="89" x="1708.5" y="1541.1992">DeliveryRepo</text><rect fill="#E2E2F0" height="30.4883" rx="2.5" ry="2.5" style="stroke:#181818;stroke-width:0.5;" width="68" x="1814.5" y="50"/><text fill="#000000" font-family="sans-serif" font-size="14" lengthAdjust="spacing" textLength="54" x="1821.5" y="70.5352">Delivery</text><rect fill="#E2E2F0" height="30.4883" rx="2.5" ry="2.5" style="stroke:#181818;stroke-width:0.5;" width="68" x="1814.5" y="1520.6641"/><text fill="#000000" font-family="sans-serif" font-size="14" lengthAdjust="spacing" textLength="54" x="1821.5" y="1541.1992">Delivery</text><rect fill="#E2E2F0" height="30.4883" rx="2.5" ry="2.5" style="stroke:#181818;stroke-width:0.5;" width="129" x="1892.5" y="50"/><text fill="#000000" font-family="sans-serif" font-size="14" lengthAdjust="spacing" textLength="115" x="1899.5" y="70.5352">dto: DeliveryDTO</text><rect fill="#E2E2F0" height="30.4883" rx="2.5" ry="2.5" style="stroke:#181818;stroke-width:0.5;" width="129" x="1892.5" y="1520.6641"/><text fill="#000000" font-family="sans-serif" font-size="14" lengthAdjust="spacing" textLength="115" x="1899.5" y="1541.1992">dto: DeliveryDTO</text><rect fill="#E2E2F0" height="30.4883" rx="2.5" ry="2.5" style="stroke:#181818;stroke-width:0.5;" width="129" x="2031.5" y="1520.6641"/><text fill="#000000" font-family="sans-serif" font-size="14" lengthAdjust="spacing" textLength="115" x="2038.5" y="1541.1992">dto: DeliveryDTO</text><rect fill="#E2E2F0" height="30.4883" rx="2.5" ry="2.5" style="stroke:#181818;stroke-width:0.5;" width="129" x="2170.5" y="1520.6641"/><text fill="#000000" font-family="sans-serif" font-size="14" lengthAdjust="spacing" textLength="115" x="2177.5" y="1541.1992">delivery: Delivery</text><rect fill="#E2E2F0" height="30.4883" rx="2.5" ry="2.5" style="stroke:#181818;stroke-width:0.5;" width="123" x="2309.5" y="1520.6641"/><text fill="#000000" font-family="sans-serif" font-size="14" lengthAdjust="spacing" textLength="109" x="2316.5" y="1541.1992">dto: DeliveryDto</text><rect fill="#FFFFFF" height="1421.1758" style="stroke:#181818;stroke-width:1.0;" width="10" x="95.5" y="91.4883"/><rect fill="#FFFFFF" height="29.3105" style="stroke:#181818;stroke-width:1.0;" width="10" x="555.5" y="137.1094"/><rect fill="#FFFFFF" height="347.4609" style="stroke:#181818;stroke-width:1.0;" width="10" x="555.5" y="195.7305"/><rect fill="#FFFFFF" height="29.3105" style="stroke:#181818;stroke-width:1.0;" width="10" x="555.5" y="587.457"/><rect fill="#FFFFFF" height="542.5254" style="stroke:#181818;stroke-width:1.0;" width="10" x="555.5" y="646.0781"/><rect fill="#FFFFFF" height="263.7949" style="stroke:#181818;stroke-width:1.0;" width="10" x="555.5" y="1232.8691"/><rect fill="#FFFFFF" height="288.8398" style="stroke:#181818;stroke-width:1.0;" width="10" x="763.5" y="225.041"/><rect fill="#FFFFFF" height="513.2148" style="stroke:#181818;stroke-width:1.0;" width="10" x="763.5" y="675.3887"/><rect fill="#FFFFFF" height="205.1738" style="stroke:#181818;stroke-width:1.0;" width="10" x="763.5" y="1262.1797"/><rect fill="#FFFFFF" height="188.7305" style="stroke:#181818;stroke-width:1.0;" width="10" x="1076" y="295.8398"/><rect fill="#FFFFFF" height="442.416" style="stroke:#181818;stroke-width:1.0;" width="10" x="1076" y="746.1875"/><rect fill="#FFFFFF" height="146.5527" style="stroke:#181818;stroke-width:1.0;" width="10" x="1076" y="1291.4902"/><rect fill="#FFFFFF" height="130.1094" style="stroke:#181818;stroke-width:1.0;" width="10" x="1365" y="325.1504"/><rect fill="#FFFFFF" height="325.1738" style="stroke:#181818;stroke-width:1.0;" width="10" x="1365" y="775.498"/><rect fill="#FFFFFF" height="87.9316" style="stroke:#181818;stroke-width:1.0;" width="10" x="1365" y="1320.8008"/><rect fill="#FFFFFF" height="30" style="stroke:#181818;stroke-width:1.0;" width="10" x="1748" y="395.9492"/><rect fill="#FFFFFF" height="29.3105" style="stroke:#181818;stroke-width:1.0;" width="10" x="1748" y="804.8086"/><rect fill="#FFFFFF" height="29.3105" style="stroke:#181818;stroke-width:1.0;" width="10" x="1748" y="1350.1113"/><rect fill="#FFFFFF" height="30" style="stroke:#181818;stroke-width:1.0;" width="10" x="1843.5" y="863.4297"/><rect fill="#FFFFFF" height="30" style="stroke:#181818;stroke-width:1.0;" width="10" x="1843.5" y="922.7402"/><rect fill="#FFFFFF" height="30" style="stroke:#181818;stroke-width:1.0;" width="10" x="1843.5" y="982.0508"/><rect fill="#FFFFFF" height="30" style="stroke:#181818;stroke-width:1.0;" width="10" x="1843.5" y="1041.3613"/><path d="M10,98.4883 L72,98.4883 L72,105.7988 L62,115.7988 L10,115.7988 L10,98.4883 " fill="#EEEEEE" style="stroke:#000000;stroke-width:1.5;"/><rect fill="none" height="1406.1758" style="stroke:#000000;stroke-width:1.5;" width="2432.5" x="10" y="98.4883"/><text fill="#000000" font-family="sans-serif" font-size="13" font-weight="bold" lengthAdjust="spacing" textLength="17" x="25" y="112.0566">alt</text><text fill="#000000" font-family="sans-serif" font-size="11" font-weight="bold" lengthAdjust="spacing" textLength="90" x="87" y="111.123">[create delivery]</text><polygon fill="#181818" points="543.5,133.1094,553.5,137.1094,543.5,141.1094,547.5,137.1094" style="stroke:#181818;stroke-width:1.0;"/><line style="stroke:#181818;stroke-width:1.0;" x1="105.5" x2="549.5" y1="137.1094" y2="137.1094"/><text fill="#000000" font-family="sans-serif" font-size="13" font-weight="bold" lengthAdjust="spacing" textLength="9" x="112.5" y="132.3672">1</text><text fill="#000000" font-family="sans-serif" font-size="13" lengthAdjust="spacing" textLength="159" x="125.5" y="132.3672">Starts to create a delivery</text><polygon fill="#181818" points="116.5,162.4199,106.5,166.4199,116.5,170.4199,112.5,166.4199" style="stroke:#181818;stroke-width:1.0;"/><line style="stroke:#181818;stroke-width:1.0;stroke-dasharray:2.0,2.0;" x1="110.5" x2="559.5" y1="166.4199" y2="166.4199"/><text fill="#000000" font-family="sans-serif" font-size="13" font-weight="bold" lengthAdjust="spacing" textLength="9" x="122.5" y="161.6777">2</text><text fill="#000000" font-family="sans-serif" font-size="13" lengthAdjust="spacing" textLength="150" x="135.5" y="161.6777">Asks for necessary data</text><polygon fill="#181818" points="543.5,191.7305,553.5,195.7305,543.5,199.7305,547.5,195.7305" style="stroke:#181818;stroke-width:1.0;"/><line style="stroke:#181818;stroke-width:1.0;" x1="105.5" x2="549.5" y1="195.7305" y2="195.7305"/><text fill="#000000" font-family="sans-serif" font-size="13" font-weight="bold" lengthAdjust="spacing" textLength="9" x="112.5" y="190.9883">3</text><text fill="#000000" font-family="sans-serif" font-size="13" lengthAdjust="spacing" textLength="188" x="125.5" y="190.9883">Introduces the requested data</text><polygon fill="#181818" points="751.5,221.041,761.5,225.041,751.5,229.041,755.5,225.041" style="stroke:#181818;stroke-width:1.0;"/><line style="stroke:#181818;stroke-width:1.0;" x1="565.5" x2="757.5" y1="225.041" y2="225.041"/><text fill="#000000" font-family="sans-serif" font-size="13" font-weight="bold" lengthAdjust="spacing" textLength="9" x="572.5" y="220.2988">4</text><text fill="#000000" font-family="sans-serif" font-size="13" lengthAdjust="spacing" textLength="32" x="585.5" y="220.2988">POST</text><polygon fill="#181818" points="2019.5,250.3516,2029.5,254.3516,2019.5,258.3516,2023.5,254.3516" style="stroke:#181818;stroke-width:1.0;"/><line style="stroke:#181818;stroke-width:1.0;" x1="773.5" x2="2025.5" y1="254.3516" y2="254.3516"/><text fill="#000000" font-family="sans-serif" font-size="13" font-weight="bold" lengthAdjust="spacing" textLength="9" x="780.5" y="249.6094">5</text><text fill="#000000" font-family="sans-serif" font-size="13" lengthAdjust="spacing" textLength="73" x="793.5" y="249.6094">create(data)</text><rect fill="#E2E2F0" height="30.4883" rx="2.5" ry="2.5" style="stroke:#181818;stroke-width:0.5;" width="129" x="2031.5" y="233.041"/><text fill="#000000" font-family="sans-serif" font-size="14" lengthAdjust="spacing" textLength="115" x="2038.5" y="253.5762">dto: DeliveryDTO</text><polygon fill="#181818" points="1064,291.8398,1074,295.8398,1064,299.8398,1068,295.8398" style="stroke:#181818;stroke-width:1.0;"/><line style="stroke:#181818;stroke-width:1.0;" x1="773.5" x2="1070" y1="295.8398" y2="295.8398"/><text fill="#000000" font-family="sans-serif" font-size="13" font-weight="bold" lengthAdjust="spacing" textLength="9" x="780.5" y="291.0977">6</text><text fill="#000000" font-family="sans-serif" font-size="13" lengthAdjust="spacing" textLength="67" x="793.5" y="291.0977">create(dto)</text><polygon fill="#181818" points="1353,321.1504,1363,325.1504,1353,329.1504,1357,325.1504" style="stroke:#181818;stroke-width:1.0;"/><line style="stroke:#181818;stroke-width:1.0;" x1="1086" x2="1359" y1="325.1504" y2="325.1504"/><text fill="#000000" font-family="sans-serif" font-size="13" font-weight="bold" lengthAdjust="spacing" textLength="9" x="1093" y="320.4082">7</text><text fill="#000000" font-family="sans-serif" font-size="13" lengthAdjust="spacing" textLength="92" x="1106" y="320.4082">AddAsync(dto)</text><polygon fill="#181818" points="2158.5,350.4609,2168.5,354.4609,2158.5,358.4609,2162.5,354.4609" style="stroke:#181818;stroke-width:1.0;"/><line style="stroke:#181818;stroke-width:1.0;" x1="1375" x2="2164.5" y1="354.4609" y2="354.4609"/><text fill="#000000" font-family="sans-serif" font-size="13" font-weight="bold" lengthAdjust="spacing" textLength="9" x="1382" y="349.7188">8</text><text fill="#000000" font-family="sans-serif" font-size="13" lengthAdjust="spacing" textLength="115" x="1395" y="349.7188">new Delivery(data)</text><rect fill="#E2E2F0" height="30.4883" rx="2.5" ry="2.5" style="stroke:#181818;stroke-width:0.5;" width="129" x="2170.5" y="333.1504"/><text fill="#000000" font-family="sans-serif" font-size="14" lengthAdjust="spacing" textLength="115" x="2177.5" y="353.6855">delivery: Delivery</text><polygon fill="#181818" points="1736,391.9492,1746,395.9492,1736,399.9492,1740,395.9492" style="stroke:#181818;stroke-width:1.0;"/><line style="stroke:#181818;stroke-width:1.0;" x1="1375" x2="1742" y1="395.9492" y2="395.9492"/><text fill="#000000" font-family="sans-serif" font-size="13" font-weight="bold" lengthAdjust="spacing" textLength="9" x="1382" y="391.207">9</text><text fill="#000000" font-family="sans-serif" font-size="13" lengthAdjust="spacing" textLength="118" x="1395" y="391.207">addAsync(delivery)</text><polygon fill="#181818" points="1097,451.2598,1087,455.2598,1097,459.2598,1093,455.2598" style="stroke:#181818;stroke-width:1.0;"/><line style="stroke:#181818;stroke-width:1.0;" x1="1091" x2="1369" y1="455.2598" y2="455.2598"/><text fill="#000000" font-family="sans-serif" font-size="13" font-weight="bold" lengthAdjust="spacing" textLength="18" x="1103" y="450.5176">10</text><text fill="#000000" font-family="sans-serif" font-size="13" lengthAdjust="spacing" textLength="116" x="1125" y="450.5176">return DeliveryDto</text><polygon fill="#181818" points="784.5,480.5703,774.5,484.5703,784.5,488.5703,780.5,484.5703" style="stroke:#181818;stroke-width:1.0;"/><line style="stroke:#181818;stroke-width:1.0;" x1="778.5" x2="1080" y1="484.5703" y2="484.5703"/><text fill="#000000" font-family="sans-serif" font-size="13" font-weight="bold" lengthAdjust="spacing" textLength="18" x="790.5" y="479.8281">11</text><text fill="#000000" font-family="sans-serif" font-size="13" lengthAdjust="spacing" textLength="116" x="812.5" y="479.8281">return DeliveryDto</text><polygon fill="#181818" points="576.5,509.8809,566.5,513.8809,576.5,517.8809,572.5,513.8809" style="stroke:#181818;stroke-width:1.0;"/><line style="stroke:#181818;stroke-width:1.0;" x1="570.5" x2="767.5" y1="513.8809" y2="513.8809"/><text fill="#000000" font-family="sans-serif" font-size="13" font-weight="bold" lengthAdjust="spacing" textLength="18" x="582.5" y="509.1387">12</text><text fill="#000000" font-family="sans-serif" font-size="13" lengthAdjust="spacing" textLength="116" x="604.5" y="509.1387">return DeliveryDto</text><polygon fill="#181818" points="116.5,539.1914,106.5,543.1914,116.5,547.1914,112.5,543.1914" style="stroke:#181818;stroke-width:1.0;"/><line style="stroke:#181818;stroke-width:1.0;" x1="110.5" x2="559.5" y1="543.1914" y2="543.1914"/><text fill="#000000" font-family="sans-serif" font-size="13" font-weight="bold" lengthAdjust="spacing" textLength="18" x="122.5" y="538.4492">13</text><text fill="#000000" font-family="sans-serif" font-size="13" lengthAdjust="spacing" textLength="404" x="144.5" y="538.4492">New delivery is saved and persisted returning operation success</text><line style="stroke:#000000;stroke-width:1.0;stroke-dasharray:2.0,2.0;" x1="10" x2="2442.5" y1="552.1914" y2="552.1914"/><text fill="#000000" font-family="sans-serif" font-size="11" font-weight="bold" lengthAdjust="spacing" textLength="99" x="15" y="562.8262">[edit the delivery]</text><polygon fill="#181818" points="543.5,583.457,553.5,587.457,543.5,591.457,547.5,587.457" style="stroke:#181818;stroke-width:1.0;"/><line style="stroke:#181818;stroke-width:1.0;" x1="105.5" x2="549.5" y1="587.457" y2="587.457"/><text fill="#000000" font-family="sans-serif" font-size="13" font-weight="bold" lengthAdjust="spacing" textLength="18" x="112.5" y="582.7148">14</text><text fill="#000000" font-family="sans-serif" font-size="13" lengthAdjust="spacing" textLength="145" x="134.5" y="582.7148">Starts to edit a delivery</text><polygon fill="#181818" points="116.5,612.7676,106.5,616.7676,116.5,620.7676,112.5,616.7676" style="stroke:#181818;stroke-width:1.0;"/><line style="stroke:#181818;stroke-width:1.0;stroke-dasharray:2.0,2.0;" x1="110.5" x2="559.5" y1="616.7676" y2="616.7676"/><text fill="#000000" font-family="sans-serif" font-size="13" font-weight="bold" lengthAdjust="spacing" textLength="18" x="122.5" y="612.0254">15</text><text fill="#000000" font-family="sans-serif" font-size="13" lengthAdjust="spacing" textLength="314" x="144.5" y="612.0254">Asks for deliveryIdentifier and data to be changed</text><polygon fill="#181818" points="543.5,642.0781,553.5,646.0781,543.5,650.0781,547.5,646.0781" style="stroke:#181818;stroke-width:1.0;"/><line style="stroke:#181818;stroke-width:1.0;" x1="105.5" x2="549.5" y1="646.0781" y2="646.0781"/><text fill="#000000" font-family="sans-serif" font-size="13" font-weight="bold" lengthAdjust="spacing" textLength="18" x="112.5" y="641.3359">16</text><text fill="#000000" font-family="sans-serif" font-size="13" lengthAdjust="spacing" textLength="235" x="134.5" y="641.3359">Introduces deliveryIdentifier and data</text><polygon fill="#181818" points="751.5,671.3887,761.5,675.3887,751.5,679.3887,755.5,675.3887" style="stroke:#181818;stroke-width:1.0;"/><line style="stroke:#181818;stroke-width:1.0;" x1="565.5" x2="757.5" y1="675.3887" y2="675.3887"/><text fill="#000000" font-family="sans-serif" font-size="13" font-weight="bold" lengthAdjust="spacing" textLength="18" x="572.5" y="670.6465">17</text><text fill="#000000" font-family="sans-serif" font-size="13" lengthAdjust="spacing" textLength="24" x="594.5" y="670.6465">PUT</text><polygon fill="#181818" points="2297.5,700.6992,2307.5,704.6992,2297.5,708.6992,2301.5,704.6992" style="stroke:#181818;stroke-width:1.0;"/><line style="stroke:#181818;stroke-width:1.0;" x1="773.5" x2="2303.5" y1="704.6992" y2="704.6992"/><text fill="#000000" font-family="sans-serif" font-size="13" font-weight="bold" lengthAdjust="spacing" textLength="18" x="780.5" y="699.957">18</text><text fill="#000000" font-family="sans-serif" font-size="13" lengthAdjust="spacing" textLength="73" x="802.5" y="699.957">create(data)</text><rect fill="#E2E2F0" height="30.4883" rx="2.5" ry="2.5" style="stroke:#181818;stroke-width:0.5;" width="123" x="2309.5" y="683.3887"/><text fill="#000000" font-family="sans-serif" font-size="14" lengthAdjust="spacing" textLength="109" x="2316.5" y="703.9238">dto: DeliveryDto</text><polygon fill="#181818" points="1064,742.1875,1074,746.1875,1064,750.1875,1068,746.1875" style="stroke:#181818;stroke-width:1.0;"/><line style="stroke:#181818;stroke-width:1.0;" x1="773.5" x2="1070" y1="746.1875" y2="746.1875"/><text fill="#000000" font-family="sans-serif" font-size="13" font-weight="bold" lengthAdjust="spacing" textLength="18" x="780.5" y="741.4453">19</text><text fill="#000000" font-family="sans-serif" font-size="13" lengthAdjust="spacing" textLength="187" x="802.5" y="741.4453">Update(deliveryIdentifier, dto)</text><polygon fill="#181818" points="1353,771.498,1363,775.498,1353,779.498,1357,775.498" style="stroke:#181818;stroke-width:1.0;"/><line style="stroke:#181818;stroke-width:1.0;" x1="1086" x2="1359" y1="775.498" y2="775.498"/><text fill="#000000" font-family="sans-serif" font-size="13" font-weight="bold" lengthAdjust="spacing" textLength="18" x="1093" y="770.7559">20</text><text fill="#000000" font-family="sans-serif" font-size="13" lengthAdjust="spacing" textLength="111" x="1115" y="770.7559">UpdateAsync(dto)</text><polygon fill="#181818" points="1736,800.8086,1746,804.8086,1736,808.8086,1740,804.8086" style="stroke:#181818;stroke-width:1.0;"/><line style="stroke:#181818;stroke-width:1.0;" x1="1375" x2="1742" y1="804.8086" y2="804.8086"/><text fill="#000000" font-family="sans-serif" font-size="13" font-weight="bold" lengthAdjust="spacing" textLength="18" x="1382" y="800.0664">21</text><text fill="#000000" font-family="sans-serif" font-size="13" lengthAdjust="spacing" textLength="332" x="1404" y="800.0664">delivery = GetByDeliveryIdentifier( deliveryIdentifier )</text><polygon fill="#181818" points="1386,830.1191,1376,834.1191,1386,838.1191,1382,834.1191" style="stroke:#181818;stroke-width:1.0;"/><line style="stroke:#181818;stroke-width:1.0;" x1="1380" x2="1752" y1="834.1191" y2="834.1191"/><text fill="#000000" font-family="sans-serif" font-size="13" font-weight="bold" lengthAdjust="spacing" textLength="18" x="1392" y="829.377">22</text><text fill="#000000" font-family="sans-serif" font-size="13" lengthAdjust="spacing" textLength="91" x="1414" y="829.377">return delivery</text><polygon fill="#181818" points="1831.5,859.4297,1841.5,863.4297,1831.5,867.4297,1835.5,863.4297" style="stroke:#181818;stroke-width:1.0;"/><line style="stroke:#181818;stroke-width:1.0;" x1="1375" x2="1837.5" y1="863.4297" y2="863.4297"/><text fill="#000000" font-family="sans-serif" font-size="13" font-weight="bold" lengthAdjust="spacing" textLength="18" x="1382" y="858.6875">23</text><text fill="#000000" font-family="sans-serif" font-size="13" lengthAdjust="spacing" textLength="164" x="1404" y="858.6875">delivery.ChangeDate(date)</text><polygon fill="#181818" points="1831.5,918.7402,1841.5,922.7402,1831.5,926.7402,1835.5,922.7402" style="stroke:#181818;stroke-width:1.0;"/><line style="stroke:#181818;stroke-width:1.0;" x1="1375" x2="1837.5" y1="922.7402" y2="922.7402"/><text fill="#000000" font-family="sans-serif" font-size="13" font-weight="bold" lengthAdjust="spacing" textLength="18" x="1382" y="917.998">24</text><text fill="#000000" font-family="sans-serif" font-size="13" lengthAdjust="spacing" textLength="173" x="1404" y="917.998">delivery.ChangeMass(mass)</text><polygon fill="#181818" points="1831.5,978.0508,1841.5,982.0508,1831.5,986.0508,1835.5,982.0508" style="stroke:#181818;stroke-width:1.0;"/><line style="stroke:#181818;stroke-width:1.0;" x1="1375" x2="1837.5" y1="982.0508" y2="982.0508"/><text fill="#000000" font-family="sans-serif" font-size="13" font-weight="bold" lengthAdjust="spacing" textLength="18" x="1382" y="977.3086">25</text><text fill="#000000" font-family="sans-serif" font-size="13" lengthAdjust="spacing" textLength="227" x="1404" y="977.3086">delivery.ChangeTimeLoad(timeLoad)</text><polygon fill="#181818" points="1831.5,1037.3613,1841.5,1041.3613,1831.5,1045.3613,1835.5,1041.3613" style="stroke:#181818;stroke-width:1.0;"/><line style="stroke:#181818;stroke-width:1.0;" x1="1375" x2="1837.5" y1="1041.3613" y2="1041.3613"/><text fill="#000000" font-family="sans-serif" font-size="13" font-weight="bold" lengthAdjust="spacing" textLength="18" x="1382" y="1036.6191">26</text><text fill="#000000" font-family="sans-serif" font-size="13" lengthAdjust="spacing" textLength="255" x="1404" y="1036.6191">delivery.ChangeTimeUnload(timeUnload)</text><polygon fill="#181818" points="1097,1096.6719,1087,1100.6719,1097,1104.6719,1093,1100.6719" style="stroke:#181818;stroke-width:1.0;"/><line style="stroke:#181818;stroke-width:1.0;" x1="1091" x2="1369" y1="1100.6719" y2="1100.6719"/><text fill="#000000" font-family="sans-serif" font-size="13" font-weight="bold" lengthAdjust="spacing" textLength="18" x="1103" y="1095.9297">27</text><text fill="#000000" font-family="sans-serif" font-size="13" lengthAdjust="spacing" textLength="233" x="1125" y="1095.9297">return new DeliveryDto(delivery.data)</text><polygon fill="#181818" points="784.5,1125.9824,774.5,1129.9824,784.5,1133.9824,780.5,1129.9824" style="stroke:#181818;stroke-width:1.0;"/><line style="stroke:#181818;stroke-width:1.0;" x1="778.5" x2="1075" y1="1129.9824" y2="1129.9824"/><text fill="#000000" font-family="sans-serif" font-size="13" font-weight="bold" lengthAdjust="spacing" textLength="18" x="790.5" y="1125.2402">28</text><text fill="#000000" font-family="sans-serif" font-size="13" lengthAdjust="spacing" textLength="138" x="812.5" y="1125.2402">return OK DeliveryDto</text><polygon fill="#181818" points="576.5,1155.293,566.5,1159.293,576.5,1163.293,572.5,1159.293" style="stroke:#181818;stroke-width:1.0;"/><line style="stroke:#181818;stroke-width:1.0;" x1="570.5" x2="762.5" y1="1159.293" y2="1159.293"/><text fill="#000000" font-family="sans-serif" font-size="13" font-weight="bold" lengthAdjust="spacing" textLength="18" x="582.5" y="1154.5508">29</text><text fill="#000000" font-family="sans-serif" font-size="13" lengthAdjust="spacing" textLength="124" x="604.5" y="1154.5508">200 OK DeliveryDto</text><polygon fill="#181818" points="116.5,1184.6035,106.5,1188.6035,116.5,1192.6035,112.5,1188.6035" style="stroke:#181818;stroke-width:1.0;"/><line style="stroke:#181818;stroke-width:1.0;" x1="110.5" x2="559.5" y1="1188.6035" y2="1188.6035"/><text fill="#000000" font-family="sans-serif" font-size="13" font-weight="bold" lengthAdjust="spacing" textLength="18" x="122.5" y="1183.8613">30</text><text fill="#000000" font-family="sans-serif" font-size="13" lengthAdjust="spacing" textLength="267" x="144.5" y="1183.8613">Delivery updated succefully and persisted!</text><line style="stroke:#000000;stroke-width:1.0;stroke-dasharray:2.0,2.0;" x1="10" x2="2442.5" y1="1197.6035" y2="1197.6035"/><text fill="#000000" font-family="sans-serif" font-size="11" font-weight="bold" lengthAdjust="spacing" textLength="96" x="15" y="1208.2383">[list the delivery]</text><polygon fill="#181818" points="543.5,1228.8691,553.5,1232.8691,543.5,1236.8691,547.5,1232.8691" style="stroke:#181818;stroke-width:1.0;"/><line style="stroke:#181818;stroke-width:1.0;" x1="105.5" x2="549.5" y1="1232.8691" y2="1232.8691"/><text fill="#000000" font-family="sans-serif" font-size="13" font-weight="bold" lengthAdjust="spacing" textLength="18" x="112.5" y="1228.127">31</text><text fill="#000000" font-family="sans-serif" font-size="13" lengthAdjust="spacing" textLength="141" x="134.5" y="1228.127">Starts to list deliveries</text><polygon fill="#181818" points="751.5,1258.1797,761.5,1262.1797,751.5,1266.1797,755.5,1262.1797" style="stroke:#181818;stroke-width:1.0;"/><line style="stroke:#181818;stroke-width:1.0;" x1="565.5" x2="757.5" y1="1262.1797" y2="1262.1797"/><text fill="#000000" font-family="sans-serif" font-size="13" font-weight="bold" lengthAdjust="spacing" textLength="18" x="572.5" y="1257.4375">32</text><text fill="#000000" font-family="sans-serif" font-size="13" lengthAdjust="spacing" textLength="24" x="594.5" y="1257.4375">GET</text><polygon fill="#181818" points="1064,1287.4902,1074,1291.4902,1064,1295.4902,1068,1291.4902" style="stroke:#181818;stroke-width:1.0;"/><line style="stroke:#181818;stroke-width:1.0;" x1="773.5" x2="1070" y1="1291.4902" y2="1291.4902"/><text fill="#000000" font-family="sans-serif" font-size="13" font-weight="bold" lengthAdjust="spacing" textLength="18" x="780.5" y="1286.748">33</text><text fill="#000000" font-family="sans-serif" font-size="13" lengthAdjust="spacing" textLength="46" x="802.5" y="1286.748">GetAll()</text><polygon fill="#181818" points="1353,1316.8008,1363,1320.8008,1353,1324.8008,1357,1320.8008" style="stroke:#181818;stroke-width:1.0;"/><line style="stroke:#181818;stroke-width:1.0;" x1="1086" x2="1359" y1="1320.8008" y2="1320.8008"/><text fill="#000000" font-family="sans-serif" font-size="13" font-weight="bold" lengthAdjust="spacing" textLength="18" x="1093" y="1316.0586">34</text><text fill="#000000" font-family="sans-serif" font-size="13" lengthAdjust="spacing" textLength="84" x="1115" y="1316.0586">GetAllAsync()</text><polygon fill="#181818" points="1736,1346.1113,1746,1350.1113,1736,1354.1113,1740,1350.1113" style="stroke:#181818;stroke-width:1.0;"/><line style="stroke:#181818;stroke-width:1.0;" x1="1375" x2="1742" y1="1350.1113" y2="1350.1113"/><text fill="#000000" font-family="sans-serif" font-size="13" font-weight="bold" lengthAdjust="spacing" textLength="18" x="1382" y="1345.3691">35</text><text fill="#000000" font-family="sans-serif" font-size="13" lengthAdjust="spacing" textLength="84" x="1404" y="1345.3691">GetAllAsync()</text><polygon fill="#181818" points="1386,1375.4219,1376,1379.4219,1386,1383.4219,1382,1379.4219" style="stroke:#181818;stroke-width:1.0;"/><line style="stroke:#181818;stroke-width:1.0;" x1="1380" x2="1752" y1="1379.4219" y2="1379.4219"/><text fill="#000000" font-family="sans-serif" font-size="13" font-weight="bold" lengthAdjust="spacing" textLength="18" x="1392" y="1374.6797">36</text><text fill="#000000" font-family="sans-serif" font-size="13" lengthAdjust="spacing" textLength="20" x="1414" y="1374.6797">list</text><polygon fill="#181818" points="1097,1404.7324,1087,1408.7324,1097,1412.7324,1093,1408.7324" style="stroke:#181818;stroke-width:1.0;"/><line style="stroke:#181818;stroke-width:1.0;" x1="1091" x2="1369" y1="1408.7324" y2="1408.7324"/><text fill="#000000" font-family="sans-serif" font-size="13" font-weight="bold" lengthAdjust="spacing" textLength="18" x="1103" y="1403.9902">37</text><text fill="#000000" font-family="sans-serif" font-size="13" lengthAdjust="spacing" textLength="150" x="1125" y="1403.9902">listDTO=convertAll(list)</text><polygon fill="#181818" points="784.5,1434.043,774.5,1438.043,784.5,1442.043,780.5,1438.043" style="stroke:#181818;stroke-width:1.0;"/><line style="stroke:#181818;stroke-width:1.0;" x1="778.5" x2="1080" y1="1438.043" y2="1438.043"/><text fill="#000000" font-family="sans-serif" font-size="13" font-weight="bold" lengthAdjust="spacing" textLength="18" x="790.5" y="1433.3008">38</text><text fill="#000000" font-family="sans-serif" font-size="13" lengthAdjust="spacing" textLength="48" x="812.5" y="1433.3008">listDTO</text><polygon fill="#181818" points="576.5,1463.3535,566.5,1467.3535,576.5,1471.3535,572.5,1467.3535" style="stroke:#181818;stroke-width:1.0;"/><line style="stroke:#181818;stroke-width:1.0;" x1="570.5" x2="767.5" y1="1467.3535" y2="1467.3535"/><text fill="#000000" font-family="sans-serif" font-size="13" font-weight="bold" lengthAdjust="spacing" textLength="18" x="582.5" y="1462.6113">39</text><text fill="#000000" font-family="sans-serif" font-size="13" lengthAdjust="spacing" textLength="152" x="604.5" y="1462.6113">200 OK DeliveryDTOList</text><polygon fill="#181818" points="116.5,1492.6641,106.5,1496.6641,116.5,1500.6641,112.5,1496.6641" style="stroke:#181818;stroke-width:1.0;"/><line style="stroke:#181818;stroke-width:1.0;" x1="110.5" x2="559.5" y1="1496.6641" y2="1496.6641"/><text fill="#000000" font-family="sans-serif" font-size="13" font-weight="bold" lengthAdjust="spacing" textLength="18" x="122.5" y="1491.9219">40</text><text fill="#000000" font-family="sans-serif" font-size="13" lengthAdjust="spacing" textLength="131" x="144.5" y="1491.9219">Returns all deliveries</text><!--MD5=[b9af784b1ce3b0e1a52a67859354a500]
@startuml Sequence Diagram
autonumber

actor WAREHOUSEMANAGER as WMR

activate WMR
box "<<System>> EletricGO" #LightBlue
'participant "<<System>> EletricGO" as E
participant "SPA" as SPA
participant "<<Container>> Warehouse Management" as WM
participant "Planning" as PLAN
participant "DeliveryController" as ctr
participant "DeliveryService" as serv
participant "DeliveryRepo" as repo
participant "Delivery" as delivery
participant "dto: DeliveryDTO" as dto



alt create delivery
    WMR -> SPA: Starts to create a delivery
    activate SPA
    SPA - -> WMR: Asks for necessary data
    deactivate SPA
    WMR-> SPA: Introduces the requested data
    activate SPA

    SPA -> WM: POST
    
    activate WM
    create "dto: DeliveryDTO"
    WM -> "dto: DeliveryDTO": create(data)
    
    WM -> ctr : create(dto)
    activate ctr
    ctr -> serv: AddAsync(dto)
    activate serv
    create "delivery: Delivery"
    serv -> "delivery: Delivery": new Delivery(data)
    serv -> repo: addAsync(delivery)
    activate repo
    deactivate repo
    serv -> ctr: return DeliveryDto
    deactivate serv
    ctr -> WM: return DeliveryDto
    deactivate ctr
    WM -> SPA: return DeliveryDto
    deactivate ctr
    deactivate WM
    SPA -> WMR: New delivery is saved and persisted returning operation success
    deactivate SPA
   

    else edit the delivery

        WMR -> SPA: Starts to edit a delivery
        activate SPA
        SPA - -> WMR: Asks for deliveryIdentifier and data to be changed
        deactivate SPA
        WMR -> SPA: Introduces deliveryIdentifier and data
        activate SPA
        SPA -> WM: PUT
        activate WM
        create "dto: DeliveryDto"
        WM -> "dto: DeliveryDto": create(data)
        
        WM -> ctr: Update(deliveryIdentifier, dto)
        activate ctr
        ctr -> serv: UpdateAsync(dto)
        
        activate serv
        serv -> repo: delivery = GetByDeliveryIdentifier( deliveryIdentifier )
        activate repo
        repo -> serv: return delivery
        deactivate repo
        serv -> delivery: delivery.ChangeDate(date)
        activate delivery
        deactivate delivery
        serv -> delivery: delivery.ChangeMass(mass)
        activate delivery
        deactivate delivery
        serv -> delivery: delivery.ChangeTimeLoad(timeLoad)
        activate delivery
        deactivate delivery
        serv -> delivery: delivery.ChangeTimeUnload(timeUnload) 
        activate delivery
        deactivate delivery
        serv -> ctr: return new DeliveryDto(delivery.data)
        deactivate serv
        ctr -> WM: return OK DeliveryDto
        
        WM -> SPA: 200 OK DeliveryDto
        SPA -> WMR: Delivery updated succefully and persisted!
        deactivate WM
        deactivate SPA
        deactivate ctr
        
        



    else list the delivery
    WMR -> SPA: Starts to list deliveries
    activate SPA
    SPA -> WM: GET
    activate WM
    WM -> ctr: GetAll()
    activate ctr
    ctr -> serv: GetAllAsync()
    activate serv
    serv -> repo: GetAllAsync()
    activate repo
    repo -> serv: list
    deactivate repo
    serv -> ctr: listDTO=convertAll(list)
    deactivate serv
    ctr -> WM: listDTO
    deactivate ctr
    WM -> SPA: 200 OK DeliveryDTOList
    deactivate WM
    SPA -> WMR: Returns all deliveries
    deactivate SPA
    end alt


   deactivate WM
end box
                @enduml

@startuml Sequence Diagram
autonumber

actor WAREHOUSEMANAGER as WMR

activate WMR
box "<<System>> EletricGO" #LightBlue
participant "SPA" as SPA
participant "<<Container>> Warehouse Management" as WM
participant "Planning" as PLAN
participant "DeliveryController" as ctr
participant "DeliveryService" as serv
participant "DeliveryRepo" as repo
participant "Delivery" as delivery
participant "dto: DeliveryDTO" as dto



alt create delivery
    WMR -> SPA: Starts to create a delivery
    activate SPA
    SPA - -> WMR: Asks for necessary data
    deactivate SPA
    WMR-> SPA: Introduces the requested data
    activate SPA

    SPA -> WM: POST
    
    activate WM
    create "dto: DeliveryDTO"
    WM -> "dto: DeliveryDTO": create(data)
    
    WM -> ctr : create(dto)
    activate ctr
    ctr -> serv: AddAsync(dto)
    activate serv
    create "delivery: Delivery"
    serv -> "delivery: Delivery": new Delivery(data)
    serv -> repo: addAsync(delivery)
    activate repo
    deactivate repo
    serv -> ctr: return DeliveryDto
    deactivate serv
    ctr -> WM: return DeliveryDto
    deactivate ctr
    WM -> SPA: return DeliveryDto
    deactivate ctr
    deactivate WM
    SPA -> WMR: New delivery is saved and persisted returning operation success
    deactivate SPA
   

    else edit the delivery

        WMR -> SPA: Starts to edit a delivery
        activate SPA
        SPA - -> WMR: Asks for deliveryIdentifier and data to be changed
        deactivate SPA
        WMR -> SPA: Introduces deliveryIdentifier and data
        activate SPA
        SPA -> WM: PUT
        activate WM
        create "dto: DeliveryDto"
        WM -> "dto: DeliveryDto": create(data)
        
        WM -> ctr: Update(deliveryIdentifier, dto)
        activate ctr
        ctr -> serv: UpdateAsync(dto)
        
        activate serv
        serv -> repo: delivery = GetByDeliveryIdentifier( deliveryIdentifier )
        activate repo
        repo -> serv: return delivery
        deactivate repo
        serv -> delivery: delivery.ChangeDate(date)
        activate delivery
        deactivate delivery
        serv -> delivery: delivery.ChangeMass(mass)
        activate delivery
        deactivate delivery
        serv -> delivery: delivery.ChangeTimeLoad(timeLoad)
        activate delivery
        deactivate delivery
        serv -> delivery: delivery.ChangeTimeUnload(timeUnload) 
        activate delivery
        deactivate delivery
        serv -> ctr: return new DeliveryDto(delivery.data)
        deactivate serv
        ctr -> WM: return OK DeliveryDto
        
        WM -> SPA: 200 OK DeliveryDto
        SPA -> WMR: Delivery updated succefully and persisted!
        deactivate WM
        deactivate SPA
        deactivate ctr
        
        



    else list the delivery
    WMR -> SPA: Starts to list deliveries
    activate SPA
    SPA -> WM: GET
    activate WM
    WM -> ctr: GetAll()
    activate ctr
    ctr -> serv: GetAllAsync()
    activate serv
    serv -> repo: GetAllAsync()
    activate repo
    repo -> serv: list
    deactivate repo
    serv -> ctr: listDTO=convertAll(list)
    deactivate serv
    ctr -> WM: listDTO
    deactivate ctr
    WM -> SPA: 200 OK DeliveryDTOList
    deactivate WM
    SPA -> WMR: Returns all deliveries
    deactivate SPA
    end alt


   deactivate WM
end box
                @enduml

PlantUML version 1.2022.7(Mon Aug 22 18:01:30 WEST 2022)
(GPL source distribution)
Java Runtime: Java(TM) SE Runtime Environment
JVM: Java HotSpot(TM) 64-Bit Server VM
Default Encoding: UTF-8
Language: pt
Country: PT
--></g></svg>