<?xml version="1.0" encoding="UTF-8" standalone="no"?><svg xmlns="http://www.w3.org/2000/svg" xmlns:xlink="http://www.w3.org/1999/xlink" contentStyleType="text/css" height="1607px" preserveAspectRatio="none" style="width:2636px;height:1607px;background:#FFFFFF;" version="1.1" viewBox="0 0 2636 1607" width="2636px" zoomAndPan="magnify"><defs/><g><rect fill="#ADD8E6" height="1595.1523" style="stroke:#181818;stroke-width:0.5;" width="2069" x="554.5" y="6"/><text fill="#000000" font-family="sans-serif" font-size="13" font-weight="bold" lengthAdjust="spacing" textLength="155" x="1511.5" y="18.5684">&lt;&lt;System&gt;&gt; EletricGO</text><rect fill="#FFFFFF" height="1421.1758" style="stroke:#181818;stroke-width:1.0;" width="10" x="95.5" y="91.4883"/><rect fill="#FFFFFF" height="29.3105" style="stroke:#181818;stroke-width:1.0;" width="10" x="573.5" y="137.1094"/><rect fill="#FFFFFF" height="347.4609" style="stroke:#181818;stroke-width:1.0;" width="10" x="573.5" y="195.7305"/><rect fill="#FFFFFF" height="29.3105" style="stroke:#181818;stroke-width:1.0;" width="10" x="573.5" y="587.457"/><rect fill="#FFFFFF" height="542.5254" style="stroke:#181818;stroke-width:1.0;" width="10" x="573.5" y="646.0781"/><rect fill="#FFFFFF" height="263.7949" style="stroke:#181818;stroke-width:1.0;" width="10" x="573.5" y="1232.8691"/><rect fill="#FFFFFF" height="288.8398" style="stroke:#181818;stroke-width:1.0;" width="10" x="798.5" y="225.041"/><rect fill="#FFFFFF" height="513.2148" style="stroke:#181818;stroke-width:1.0;" width="10" x="798.5" y="675.3887"/><rect fill="#FFFFFF" height="205.1738" style="stroke:#181818;stroke-width:1.0;" width="10" x="798.5" y="1262.1797"/><rect fill="#FFFFFF" height="188.7305" style="stroke:#181818;stroke-width:1.0;" width="10" x="1122" y="295.8398"/><rect fill="#FFFFFF" height="442.416" style="stroke:#181818;stroke-width:1.0;" width="10" x="1122" y="746.1875"/><rect fill="#FFFFFF" height="146.5527" style="stroke:#181818;stroke-width:1.0;" width="10" x="1122" y="1291.4902"/><rect fill="#FFFFFF" height="130.1094" style="stroke:#181818;stroke-width:1.0;" width="10" x="1446" y="325.1504"/><rect fill="#FFFFFF" height="325.1738" style="stroke:#181818;stroke-width:1.0;" width="10" x="1446" y="775.498"/><rect fill="#FFFFFF" height="87.9316" style="stroke:#181818;stroke-width:1.0;" width="10" x="1446" y="1320.8008"/><rect fill="#FFFFFF" height="30" style="stroke:#181818;stroke-width:1.0;" width="10" x="1792" y="395.9492"/><rect fill="#FFFFFF" height="29.3105" style="stroke:#181818;stroke-width:1.0;" width="10" x="1792" y="804.8086"/><rect fill="#FFFFFF" height="29.3105" style="stroke:#181818;stroke-width:1.0;" width="10" x="1792" y="1350.1113"/><rect fill="#FFFFFF" height="30" style="stroke:#181818;stroke-width:1.0;" width="10" x="1909.5" y="863.4297"/><rect fill="#FFFFFF" height="30" style="stroke:#181818;stroke-width:1.0;" width="10" x="1909.5" y="922.7402"/><rect fill="#FFFFFF" height="30" style="stroke:#181818;stroke-width:1.0;" width="10" x="1909.5" y="982.0508"/><rect fill="#FFFFFF" height="30" style="stroke:#181818;stroke-width:1.0;" width="10" x="1909.5" y="1041.3613"/><rect fill="none" height="1406.1758" style="stroke:#000000;stroke-width:1.5;" width="2619.5" x="10" y="98.4883"/><line style="stroke:#181818;stroke-width:0.5;stroke-dasharray:5.0,5.0;" x1="100" x2="100" y1="81.4883" y2="1521.6641"/><line style="stroke:#181818;stroke-width:0.5;stroke-dasharray:5.0,5.0;" x1="578.5" x2="578.5" y1="81.4883" y2="1521.6641"/><line style="stroke:#181818;stroke-width:0.5;stroke-dasharray:5.0,5.0;" x1="803" x2="803" y1="81.4883" y2="1521.6641"/><line style="stroke:#181818;stroke-width:0.5;stroke-dasharray:5.0,5.0;" x1="1000" x2="1000" y1="81.4883" y2="1521.6641"/><line style="stroke:#181818;stroke-width:0.5;stroke-dasharray:5.0,5.0;" x1="1127" x2="1127" y1="81.4883" y2="1521.6641"/><line style="stroke:#181818;stroke-width:0.5;stroke-dasharray:5.0,5.0;" x1="1451" x2="1451" y1="81.4883" y2="1521.6641"/><line style="stroke:#181818;stroke-width:0.5;stroke-dasharray:5.0,5.0;" x1="1796.5" x2="1796.5" y1="81.4883" y2="1521.6641"/><line style="stroke:#181818;stroke-width:0.5;stroke-dasharray:5.0,5.0;" x1="1914.5" x2="1914.5" y1="81.4883" y2="1521.6641"/><line style="stroke:#181818;stroke-width:0.5;stroke-dasharray:5.0,5.0;" x1="2044.5" x2="2044.5" y1="81.4883" y2="1521.6641"/><line style="stroke:#181818;stroke-width:0.5;stroke-dasharray:5.0,5.0;" x1="2205.5" x2="2205.5" y1="263.7852" y2="1521.6641"/><line style="stroke:#181818;stroke-width:0.5;stroke-dasharray:5.0,5.0;" x1="2377.5" x2="2377.5" y1="363.8945" y2="1521.6641"/><line style="stroke:#181818;stroke-width:0.5;stroke-dasharray:5.0,5.0;" x1="2546.5" x2="2546.5" y1="714.1328" y2="1521.6641"/><text fill="#000000" font-family="sans-serif" font-size="14" lengthAdjust="spacing" textLength="155" x="20" y="78.5352">WAREHOUSEMANAGER</text><ellipse cx="100.5" cy="13.5" fill="#E2E2F0" rx="8" ry="8" style="stroke:#181818;stroke-width:0.5;"/><path d="M100.5,21.5 L100.5,48.5 M87.5,29.5 L113.5,29.5 M100.5,48.5 L87.5,63.5 M100.5,48.5 L113.5,63.5 " fill="none" style="stroke:#181818;stroke-width:0.5;"/><text fill="#000000" font-family="sans-serif" font-size="14" lengthAdjust="spacing" textLength="155" x="20" y="1534.1992">WAREHOUSEMANAGER</text><ellipse cx="100.5" cy="1545.6523" fill="#E2E2F0" rx="8" ry="8" style="stroke:#181818;stroke-width:0.5;"/><path d="M100.5,1553.6523 L100.5,1580.6523 M87.5,1561.6523 L113.5,1561.6523 M100.5,1580.6523 L87.5,1595.6523 M100.5,1580.6523 L113.5,1595.6523 " fill="none" style="stroke:#181818;stroke-width:0.5;"/><rect fill="#E2E2F0" height="30.4883" rx="2.5" ry="2.5" style="stroke:#181818;stroke-width:0.5;" width="40" x="558.5" y="50"/><text fill="#000000" font-family="sans-serif" font-size="14" lengthAdjust="spacing" textLength="26" x="565.5" y="70.5352">SPA</text><rect fill="#E2E2F0" height="30.4883" rx="2.5" ry="2.5" style="stroke:#181818;stroke-width:0.5;" width="40" x="558.5" y="1520.6641"/><text fill="#000000" font-family="sans-serif" font-size="14" lengthAdjust="spacing" textLength="26" x="565.5" y="1541.1992">SPA</text><rect fill="#E2E2F0" height="30.4883" rx="2.5" ry="2.5" style="stroke:#181818;stroke-width:0.5;" width="299" x="654" y="50"/><text fill="#000000" font-family="sans-serif" font-size="14" lengthAdjust="spacing" textLength="285" x="661" y="70.5352">&lt;&lt;Container&gt;&gt; Warehouse Management</text><rect fill="#E2E2F0" height="30.4883" rx="2.5" ry="2.5" style="stroke:#181818;stroke-width:0.5;" width="299" x="654" y="1520.6641"/><text fill="#000000" font-family="sans-serif" font-size="14" lengthAdjust="spacing" textLength="285" x="661" y="1541.1992">&lt;&lt;Container&gt;&gt; Warehouse Management</text><rect fill="#E2E2F0" height="30.4883" rx="2.5" ry="2.5" style="stroke:#181818;stroke-width:0.5;" width="74" x="963" y="50"/><text fill="#000000" font-family="sans-serif" font-size="14" lengthAdjust="spacing" textLength="60" x="970" y="70.5352">Planning</text><rect fill="#E2E2F0" height="30.4883" rx="2.5" ry="2.5" style="stroke:#181818;stroke-width:0.5;" width="74" x="963" y="1520.6641"/><text fill="#000000" font-family="sans-serif" font-size="14" lengthAdjust="spacing" textLength="60" x="970" y="1541.1992">Planning</text><rect fill="#E2E2F0" height="30.4883" rx="2.5" ry="2.5" style="stroke:#181818;stroke-width:0.5;" width="160" x="1047" y="50"/><text fill="#000000" font-family="sans-serif" font-size="14" lengthAdjust="spacing" textLength="146" x="1054" y="70.5352">WarehouseController</text><rect fill="#E2E2F0" height="30.4883" rx="2.5" ry="2.5" style="stroke:#181818;stroke-width:0.5;" width="160" x="1047" y="1520.6641"/><text fill="#000000" font-family="sans-serif" font-size="14" lengthAdjust="spacing" textLength="146" x="1054" y="1541.1992">WarehouseController</text><rect fill="#E2E2F0" height="30.4883" rx="2.5" ry="2.5" style="stroke:#181818;stroke-width:0.5;" width="138" x="1382" y="50"/><text fill="#000000" font-family="sans-serif" font-size="14" lengthAdjust="spacing" textLength="124" x="1389" y="70.5352">WarehouseService</text><rect fill="#E2E2F0" height="30.4883" rx="2.5" ry="2.5" style="stroke:#181818;stroke-width:0.5;" width="138" x="1382" y="1520.6641"/><text fill="#000000" font-family="sans-serif" font-size="14" lengthAdjust="spacing" textLength="124" x="1389" y="1541.1992">WarehouseService</text><rect fill="#E2E2F0" height="30.4883" rx="2.5" ry="2.5" style="stroke:#181818;stroke-width:0.5;" width="125" x="1734.5" y="50"/><text fill="#000000" font-family="sans-serif" font-size="14" lengthAdjust="spacing" textLength="111" x="1741.5" y="70.5352">WarehouseRepo</text><rect fill="#E2E2F0" height="30.4883" rx="2.5" ry="2.5" style="stroke:#181818;stroke-width:0.5;" width="125" x="1734.5" y="1520.6641"/><text fill="#000000" font-family="sans-serif" font-size="14" lengthAdjust="spacing" textLength="111" x="1741.5" y="1541.1992">WarehouseRepo</text><rect fill="#E2E2F0" height="30.4883" rx="2.5" ry="2.5" style="stroke:#181818;stroke-width:0.5;" width="90" x="1869.5" y="50"/><text fill="#000000" font-family="sans-serif" font-size="14" lengthAdjust="spacing" textLength="76" x="1876.5" y="70.5352">Warehouse</text><rect fill="#E2E2F0" height="30.4883" rx="2.5" ry="2.5" style="stroke:#181818;stroke-width:0.5;" width="90" x="1869.5" y="1520.6641"/><text fill="#000000" font-family="sans-serif" font-size="14" lengthAdjust="spacing" textLength="76" x="1876.5" y="1541.1992">Warehouse</text><rect fill="#E2E2F0" height="30.4883" rx="2.5" ry="2.5" style="stroke:#181818;stroke-width:0.5;" width="151" x="1969.5" y="50"/><text fill="#000000" font-family="sans-serif" font-size="14" lengthAdjust="spacing" textLength="137" x="1976.5" y="70.5352">dto: WarehouseDTO</text><rect fill="#E2E2F0" height="30.4883" rx="2.5" ry="2.5" style="stroke:#181818;stroke-width:0.5;" width="151" x="1969.5" y="1520.6641"/><text fill="#000000" font-family="sans-serif" font-size="14" lengthAdjust="spacing" textLength="137" x="1976.5" y="1541.1992">dto: WarehouseDTO</text><rect fill="#E2E2F0" height="30.4883" rx="2.5" ry="2.5" style="stroke:#181818;stroke-width:0.5;" width="151" x="2130.5" y="1520.6641"/><text fill="#000000" font-family="sans-serif" font-size="14" lengthAdjust="spacing" textLength="137" x="2137.5" y="1541.1992">dto: WarehouseDTO</text><rect fill="#E2E2F0" height="30.4883" rx="2.5" ry="2.5" style="stroke:#181818;stroke-width:0.5;" width="173" x="2291.5" y="1520.6641"/><text fill="#000000" font-family="sans-serif" font-size="14" lengthAdjust="spacing" textLength="159" x="2298.5" y="1541.1992">warehouse: Warehouse</text><rect fill="#E2E2F0" height="30.4883" rx="2.5" ry="2.5" style="stroke:#181818;stroke-width:0.5;" width="145" x="2474.5" y="1520.6641"/><text fill="#000000" font-family="sans-serif" font-size="14" lengthAdjust="spacing" textLength="131" x="2481.5" y="1541.1992">dto: WarehouseDto</text><rect fill="#FFFFFF" height="1421.1758" style="stroke:#181818;stroke-width:1.0;" width="10" x="95.5" y="91.4883"/><rect fill="#FFFFFF" height="29.3105" style="stroke:#181818;stroke-width:1.0;" width="10" x="573.5" y="137.1094"/><rect fill="#FFFFFF" height="347.4609" style="stroke:#181818;stroke-width:1.0;" width="10" x="573.5" y="195.7305"/><rect fill="#FFFFFF" height="29.3105" style="stroke:#181818;stroke-width:1.0;" width="10" x="573.5" y="587.457"/><rect fill="#FFFFFF" height="542.5254" style="stroke:#181818;stroke-width:1.0;" width="10" x="573.5" y="646.0781"/><rect fill="#FFFFFF" height="263.7949" style="stroke:#181818;stroke-width:1.0;" width="10" x="573.5" y="1232.8691"/><rect fill="#FFFFFF" height="288.8398" style="stroke:#181818;stroke-width:1.0;" width="10" x="798.5" y="225.041"/><rect fill="#FFFFFF" height="513.2148" style="stroke:#181818;stroke-width:1.0;" width="10" x="798.5" y="675.3887"/><rect fill="#FFFFFF" height="205.1738" style="stroke:#181818;stroke-width:1.0;" width="10" x="798.5" y="1262.1797"/><rect fill="#FFFFFF" height="188.7305" style="stroke:#181818;stroke-width:1.0;" width="10" x="1122" y="295.8398"/><rect fill="#FFFFFF" height="442.416" style="stroke:#181818;stroke-width:1.0;" width="10" x="1122" y="746.1875"/><rect fill="#FFFFFF" height="146.5527" style="stroke:#181818;stroke-width:1.0;" width="10" x="1122" y="1291.4902"/><rect fill="#FFFFFF" height="130.1094" style="stroke:#181818;stroke-width:1.0;" width="10" x="1446" y="325.1504"/><rect fill="#FFFFFF" height="325.1738" style="stroke:#181818;stroke-width:1.0;" width="10" x="1446" y="775.498"/><rect fill="#FFFFFF" height="87.9316" style="stroke:#181818;stroke-width:1.0;" width="10" x="1446" y="1320.8008"/><rect fill="#FFFFFF" height="30" style="stroke:#181818;stroke-width:1.0;" width="10" x="1792" y="395.9492"/><rect fill="#FFFFFF" height="29.3105" style="stroke:#181818;stroke-width:1.0;" width="10" x="1792" y="804.8086"/><rect fill="#FFFFFF" height="29.3105" style="stroke:#181818;stroke-width:1.0;" width="10" x="1792" y="1350.1113"/><rect fill="#FFFFFF" height="30" style="stroke:#181818;stroke-width:1.0;" width="10" x="1909.5" y="863.4297"/><rect fill="#FFFFFF" height="30" style="stroke:#181818;stroke-width:1.0;" width="10" x="1909.5" y="922.7402"/><rect fill="#FFFFFF" height="30" style="stroke:#181818;stroke-width:1.0;" width="10" x="1909.5" y="982.0508"/><rect fill="#FFFFFF" height="30" style="stroke:#181818;stroke-width:1.0;" width="10" x="1909.5" y="1041.3613"/><path d="M10,98.4883 L72,98.4883 L72,105.7988 L62,115.7988 L10,115.7988 L10,98.4883 " fill="#EEEEEE" style="stroke:#000000;stroke-width:1.5;"/><rect fill="none" height="1406.1758" style="stroke:#000000;stroke-width:1.5;" width="2619.5" x="10" y="98.4883"/><text fill="#000000" font-family="sans-serif" font-size="13" font-weight="bold" lengthAdjust="spacing" textLength="17" x="25" y="112.0566">alt</text><text fill="#000000" font-family="sans-serif" font-size="11" font-weight="bold" lengthAdjust="spacing" textLength="104" x="87" y="111.123">[create warehouse]</text><polygon fill="#181818" points="561.5,133.1094,571.5,137.1094,561.5,141.1094,565.5,137.1094" style="stroke:#181818;stroke-width:1.0;"/><line style="stroke:#181818;stroke-width:1.0;" x1="105.5" x2="567.5" y1="137.1094" y2="137.1094"/><text fill="#000000" font-family="sans-serif" font-size="13" font-weight="bold" lengthAdjust="spacing" textLength="9" x="112.5" y="132.3672">1</text><text fill="#000000" font-family="sans-serif" font-size="13" lengthAdjust="spacing" textLength="177" x="125.5" y="132.3672">Starts to create a warehouse</text><polygon fill="#181818" points="116.5,162.4199,106.5,166.4199,116.5,170.4199,112.5,166.4199" style="stroke:#181818;stroke-width:1.0;"/><line style="stroke:#181818;stroke-width:1.0;stroke-dasharray:2.0,2.0;" x1="110.5" x2="577.5" y1="166.4199" y2="166.4199"/><text fill="#000000" font-family="sans-serif" font-size="13" font-weight="bold" lengthAdjust="spacing" textLength="9" x="122.5" y="161.6777">2</text><text fill="#000000" font-family="sans-serif" font-size="13" lengthAdjust="spacing" textLength="150" x="135.5" y="161.6777">Asks for necessary data</text><polygon fill="#181818" points="561.5,191.7305,571.5,195.7305,561.5,199.7305,565.5,195.7305" style="stroke:#181818;stroke-width:1.0;"/><line style="stroke:#181818;stroke-width:1.0;" x1="105.5" x2="567.5" y1="195.7305" y2="195.7305"/><text fill="#000000" font-family="sans-serif" font-size="13" font-weight="bold" lengthAdjust="spacing" textLength="9" x="112.5" y="190.9883">3</text><text fill="#000000" font-family="sans-serif" font-size="13" lengthAdjust="spacing" textLength="188" x="125.5" y="190.9883">Introduces the requested data</text><polygon fill="#181818" points="786.5,221.041,796.5,225.041,786.5,229.041,790.5,225.041" style="stroke:#181818;stroke-width:1.0;"/><line style="stroke:#181818;stroke-width:1.0;" x1="583.5" x2="792.5" y1="225.041" y2="225.041"/><text fill="#000000" font-family="sans-serif" font-size="13" font-weight="bold" lengthAdjust="spacing" textLength="9" x="590.5" y="220.2988">4</text><text fill="#000000" font-family="sans-serif" font-size="13" lengthAdjust="spacing" textLength="32" x="603.5" y="220.2988">POST</text><polygon fill="#181818" points="2118.5,250.3516,2128.5,254.3516,2118.5,258.3516,2122.5,254.3516" style="stroke:#181818;stroke-width:1.0;"/><line style="stroke:#181818;stroke-width:1.0;" x1="808.5" x2="2124.5" y1="254.3516" y2="254.3516"/><text fill="#000000" font-family="sans-serif" font-size="13" font-weight="bold" lengthAdjust="spacing" textLength="9" x="815.5" y="249.6094">5</text><text fill="#000000" font-family="sans-serif" font-size="13" lengthAdjust="spacing" textLength="73" x="828.5" y="249.6094">create(data)</text><rect fill="#E2E2F0" height="30.4883" rx="2.5" ry="2.5" style="stroke:#181818;stroke-width:0.5;" width="151" x="2130.5" y="233.041"/><text fill="#000000" font-family="sans-serif" font-size="14" lengthAdjust="spacing" textLength="137" x="2137.5" y="253.5762">dto: WarehouseDTO</text><polygon fill="#181818" points="1110,291.8398,1120,295.8398,1110,299.8398,1114,295.8398" style="stroke:#181818;stroke-width:1.0;"/><line style="stroke:#181818;stroke-width:1.0;" x1="808.5" x2="1116" y1="295.8398" y2="295.8398"/><text fill="#000000" font-family="sans-serif" font-size="13" font-weight="bold" lengthAdjust="spacing" textLength="9" x="815.5" y="291.0977">6</text><text fill="#000000" font-family="sans-serif" font-size="13" lengthAdjust="spacing" textLength="67" x="828.5" y="291.0977">create(dto)</text><polygon fill="#181818" points="1434,321.1504,1444,325.1504,1434,329.1504,1438,325.1504" style="stroke:#181818;stroke-width:1.0;"/><line style="stroke:#181818;stroke-width:1.0;" x1="1132" x2="1440" y1="325.1504" y2="325.1504"/><text fill="#000000" font-family="sans-serif" font-size="13" font-weight="bold" lengthAdjust="spacing" textLength="9" x="1139" y="320.4082">7</text><text fill="#000000" font-family="sans-serif" font-size="13" lengthAdjust="spacing" textLength="92" x="1152" y="320.4082">AddAsync(dto)</text><polygon fill="#181818" points="2279.5,350.4609,2289.5,354.4609,2279.5,358.4609,2283.5,354.4609" style="stroke:#181818;stroke-width:1.0;"/><line style="stroke:#181818;stroke-width:1.0;" x1="1456" x2="2285.5" y1="354.4609" y2="354.4609"/><text fill="#000000" font-family="sans-serif" font-size="13" font-weight="bold" lengthAdjust="spacing" textLength="9" x="1463" y="349.7188">8</text><text fill="#000000" font-family="sans-serif" font-size="13" lengthAdjust="spacing" textLength="132" x="1476" y="349.7188">new Warehouse(data)</text><rect fill="#E2E2F0" height="30.4883" rx="2.5" ry="2.5" style="stroke:#181818;stroke-width:0.5;" width="173" x="2291.5" y="333.1504"/><text fill="#000000" font-family="sans-serif" font-size="14" lengthAdjust="spacing" textLength="159" x="2298.5" y="353.6855">warehouse: Warehouse</text><polygon fill="#181818" points="1780,391.9492,1790,395.9492,1780,399.9492,1784,395.9492" style="stroke:#181818;stroke-width:1.0;"/><line style="stroke:#181818;stroke-width:1.0;" x1="1456" x2="1786" y1="395.9492" y2="395.9492"/><text fill="#000000" font-family="sans-serif" font-size="13" font-weight="bold" lengthAdjust="spacing" textLength="9" x="1463" y="391.207">9</text><text fill="#000000" font-family="sans-serif" font-size="13" lengthAdjust="spacing" textLength="136" x="1476" y="391.207">addAsync(warehouse)</text><polygon fill="#181818" points="1143,451.2598,1133,455.2598,1143,459.2598,1139,455.2598" style="stroke:#181818;stroke-width:1.0;"/><line style="stroke:#181818;stroke-width:1.0;" x1="1137" x2="1450" y1="455.2598" y2="455.2598"/><text fill="#000000" font-family="sans-serif" font-size="13" font-weight="bold" lengthAdjust="spacing" textLength="18" x="1149" y="450.5176">10</text><text fill="#000000" font-family="sans-serif" font-size="13" lengthAdjust="spacing" textLength="133" x="1171" y="450.5176">return WarehouseDto</text><polygon fill="#181818" points="819.5,480.5703,809.5,484.5703,819.5,488.5703,815.5,484.5703" style="stroke:#181818;stroke-width:1.0;"/><line style="stroke:#181818;stroke-width:1.0;" x1="813.5" x2="1126" y1="484.5703" y2="484.5703"/><text fill="#000000" font-family="sans-serif" font-size="13" font-weight="bold" lengthAdjust="spacing" textLength="18" x="825.5" y="479.8281">11</text><text fill="#000000" font-family="sans-serif" font-size="13" lengthAdjust="spacing" textLength="133" x="847.5" y="479.8281">return WarehouseDto</text><polygon fill="#181818" points="594.5,509.8809,584.5,513.8809,594.5,517.8809,590.5,513.8809" style="stroke:#181818;stroke-width:1.0;"/><line style="stroke:#181818;stroke-width:1.0;" x1="588.5" x2="802.5" y1="513.8809" y2="513.8809"/><text fill="#000000" font-family="sans-serif" font-size="13" font-weight="bold" lengthAdjust="spacing" textLength="18" x="600.5" y="509.1387">12</text><text fill="#000000" font-family="sans-serif" font-size="13" lengthAdjust="spacing" textLength="133" x="622.5" y="509.1387">return WarehouseDto</text><polygon fill="#181818" points="116.5,539.1914,106.5,543.1914,116.5,547.1914,112.5,543.1914" style="stroke:#181818;stroke-width:1.0;"/><line style="stroke:#181818;stroke-width:1.0;" x1="110.5" x2="577.5" y1="543.1914" y2="543.1914"/><text fill="#000000" font-family="sans-serif" font-size="13" font-weight="bold" lengthAdjust="spacing" textLength="18" x="122.5" y="538.4492">13</text><text fill="#000000" font-family="sans-serif" font-size="13" lengthAdjust="spacing" textLength="422" x="144.5" y="538.4492">New warehouse is saved and persisted returning operation success</text><line style="stroke:#000000;stroke-width:1.0;stroke-dasharray:2.0,2.0;" x1="10" x2="2629.5" y1="552.1914" y2="552.1914"/><text fill="#000000" font-family="sans-serif" font-size="11" font-weight="bold" lengthAdjust="spacing" textLength="113" x="15" y="562.8262">[edit the warehouse]</text><polygon fill="#181818" points="561.5,583.457,571.5,587.457,561.5,591.457,565.5,587.457" style="stroke:#181818;stroke-width:1.0;"/><line style="stroke:#181818;stroke-width:1.0;" x1="105.5" x2="567.5" y1="587.457" y2="587.457"/><text fill="#000000" font-family="sans-serif" font-size="13" font-weight="bold" lengthAdjust="spacing" textLength="18" x="112.5" y="582.7148">14</text><text fill="#000000" font-family="sans-serif" font-size="13" lengthAdjust="spacing" textLength="163" x="134.5" y="582.7148">Starts to edit a warehouse</text><polygon fill="#181818" points="116.5,612.7676,106.5,616.7676,116.5,620.7676,112.5,616.7676" style="stroke:#181818;stroke-width:1.0;"/><line style="stroke:#181818;stroke-width:1.0;stroke-dasharray:2.0,2.0;" x1="110.5" x2="577.5" y1="616.7676" y2="616.7676"/><text fill="#000000" font-family="sans-serif" font-size="13" font-weight="bold" lengthAdjust="spacing" textLength="18" x="122.5" y="612.0254">15</text><text fill="#000000" font-family="sans-serif" font-size="13" lengthAdjust="spacing" textLength="287" x="144.5" y="612.0254">Asks for warehouseId and data to be changed</text><polygon fill="#181818" points="561.5,642.0781,571.5,646.0781,561.5,650.0781,565.5,646.0781" style="stroke:#181818;stroke-width:1.0;"/><line style="stroke:#181818;stroke-width:1.0;" x1="105.5" x2="567.5" y1="646.0781" y2="646.0781"/><text fill="#000000" font-family="sans-serif" font-size="13" font-weight="bold" lengthAdjust="spacing" textLength="18" x="112.5" y="641.3359">16</text><text fill="#000000" font-family="sans-serif" font-size="13" lengthAdjust="spacing" textLength="208" x="134.5" y="641.3359">Introduces warehouseId and data</text><polygon fill="#181818" points="786.5,671.3887,796.5,675.3887,786.5,679.3887,790.5,675.3887" style="stroke:#181818;stroke-width:1.0;"/><line style="stroke:#181818;stroke-width:1.0;" x1="583.5" x2="792.5" y1="675.3887" y2="675.3887"/><text fill="#000000" font-family="sans-serif" font-size="13" font-weight="bold" lengthAdjust="spacing" textLength="18" x="590.5" y="670.6465">17</text><text fill="#000000" font-family="sans-serif" font-size="13" lengthAdjust="spacing" textLength="24" x="612.5" y="670.6465">PUT</text><polygon fill="#181818" points="2462.5,700.6992,2472.5,704.6992,2462.5,708.6992,2466.5,704.6992" style="stroke:#181818;stroke-width:1.0;"/><line style="stroke:#181818;stroke-width:1.0;" x1="808.5" x2="2468.5" y1="704.6992" y2="704.6992"/><text fill="#000000" font-family="sans-serif" font-size="13" font-weight="bold" lengthAdjust="spacing" textLength="18" x="815.5" y="699.957">18</text><text fill="#000000" font-family="sans-serif" font-size="13" lengthAdjust="spacing" textLength="73" x="837.5" y="699.957">create(data)</text><rect fill="#E2E2F0" height="30.4883" rx="2.5" ry="2.5" style="stroke:#181818;stroke-width:0.5;" width="145" x="2474.5" y="683.3887"/><text fill="#000000" font-family="sans-serif" font-size="14" lengthAdjust="spacing" textLength="131" x="2481.5" y="703.9238">dto: WarehouseDto</text><polygon fill="#181818" points="1110,742.1875,1120,746.1875,1110,750.1875,1114,746.1875" style="stroke:#181818;stroke-width:1.0;"/><line style="stroke:#181818;stroke-width:1.0;" x1="808.5" x2="1116" y1="746.1875" y2="746.1875"/><text fill="#000000" font-family="sans-serif" font-size="13" font-weight="bold" lengthAdjust="spacing" textLength="18" x="815.5" y="741.4453">19</text><text fill="#000000" font-family="sans-serif" font-size="13" lengthAdjust="spacing" textLength="160" x="837.5" y="741.4453">Update(warehouseId, dto)</text><polygon fill="#181818" points="1434,771.498,1444,775.498,1434,779.498,1438,775.498" style="stroke:#181818;stroke-width:1.0;"/><line style="stroke:#181818;stroke-width:1.0;" x1="1132" x2="1440" y1="775.498" y2="775.498"/><text fill="#000000" font-family="sans-serif" font-size="13" font-weight="bold" lengthAdjust="spacing" textLength="18" x="1139" y="770.7559">20</text><text fill="#000000" font-family="sans-serif" font-size="13" lengthAdjust="spacing" textLength="111" x="1161" y="770.7559">UpdateAsync(dto)</text><polygon fill="#181818" points="1780,800.8086,1790,804.8086,1780,808.8086,1784,804.8086" style="stroke:#181818;stroke-width:1.0;"/><line style="stroke:#181818;stroke-width:1.0;" x1="1456" x2="1786" y1="804.8086" y2="804.8086"/><text fill="#000000" font-family="sans-serif" font-size="13" font-weight="bold" lengthAdjust="spacing" textLength="18" x="1463" y="800.0664">21</text><text fill="#000000" font-family="sans-serif" font-size="13" lengthAdjust="spacing" textLength="295" x="1485" y="800.0664">warehouse = GetByWarehouseId( warehouseid )</text><polygon fill="#181818" points="1467,830.1191,1457,834.1191,1467,838.1191,1463,834.1191" style="stroke:#181818;stroke-width:1.0;"/><line style="stroke:#181818;stroke-width:1.0;" x1="1461" x2="1796" y1="834.1191" y2="834.1191"/><text fill="#000000" font-family="sans-serif" font-size="13" font-weight="bold" lengthAdjust="spacing" textLength="18" x="1473" y="829.377">22</text><text fill="#000000" font-family="sans-serif" font-size="13" lengthAdjust="spacing" textLength="109" x="1495" y="829.377">return warehouse</text><polygon fill="#181818" points="1897.5,859.4297,1907.5,863.4297,1897.5,867.4297,1901.5,863.4297" style="stroke:#181818;stroke-width:1.0;"/><line style="stroke:#181818;stroke-width:1.0;" x1="1456" x2="1903.5" y1="863.4297" y2="863.4297"/><text fill="#000000" font-family="sans-serif" font-size="13" font-weight="bold" lengthAdjust="spacing" textLength="18" x="1463" y="858.6875">23</text><text fill="#000000" font-family="sans-serif" font-size="13" lengthAdjust="spacing" textLength="276" x="1485" y="858.6875">warehouse.ChangeDesignation(designation)</text><polygon fill="#181818" points="1897.5,918.7402,1907.5,922.7402,1897.5,926.7402,1901.5,922.7402" style="stroke:#181818;stroke-width:1.0;"/><line style="stroke:#181818;stroke-width:1.0;" x1="1456" x2="1903.5" y1="922.7402" y2="922.7402"/><text fill="#000000" font-family="sans-serif" font-size="13" font-weight="bold" lengthAdjust="spacing" textLength="18" x="1463" y="917.998">24</text><text fill="#000000" font-family="sans-serif" font-size="13" lengthAdjust="spacing" textLength="378" x="1485" y="917.998">warehouse.ChangeAddress(street,city,doorNumber,zipCode)</text><polygon fill="#181818" points="1897.5,978.0508,1907.5,982.0508,1897.5,986.0508,1901.5,982.0508" style="stroke:#181818;stroke-width:1.0;"/><line style="stroke:#181818;stroke-width:1.0;" x1="1456" x2="1903.5" y1="982.0508" y2="982.0508"/><text fill="#000000" font-family="sans-serif" font-size="13" font-weight="bold" lengthAdjust="spacing" textLength="18" x="1463" y="977.3086">25</text><text fill="#000000" font-family="sans-serif" font-size="13" lengthAdjust="spacing" textLength="307" x="1485" y="977.3086">warehouse.ChangeCoordinate(latitude,longitude)</text><polygon fill="#181818" points="1897.5,1037.3613,1907.5,1041.3613,1897.5,1045.3613,1901.5,1041.3613" style="stroke:#181818;stroke-width:1.0;"/><line style="stroke:#181818;stroke-width:1.0;" x1="1456" x2="1903.5" y1="1041.3613" y2="1041.3613"/><text fill="#000000" font-family="sans-serif" font-size="13" font-weight="bold" lengthAdjust="spacing" textLength="18" x="1463" y="1036.6191">26</text><text fill="#000000" font-family="sans-serif" font-size="13" lengthAdjust="spacing" textLength="225" x="1485" y="1036.6191">warehouse.ChangeLatitude(altitude)</text><polygon fill="#181818" points="1143,1096.6719,1133,1100.6719,1143,1104.6719,1139,1100.6719" style="stroke:#181818;stroke-width:1.0;"/><line style="stroke:#181818;stroke-width:1.0;" x1="1137" x2="1450" y1="1100.6719" y2="1100.6719"/><text fill="#000000" font-family="sans-serif" font-size="13" font-weight="bold" lengthAdjust="spacing" textLength="18" x="1149" y="1095.9297">27</text><text fill="#000000" font-family="sans-serif" font-size="13" lengthAdjust="spacing" textLength="268" x="1171" y="1095.9297">return new WarehouseDto(warehouse.data)</text><polygon fill="#181818" points="819.5,1125.9824,809.5,1129.9824,819.5,1133.9824,815.5,1129.9824" style="stroke:#181818;stroke-width:1.0;"/><line style="stroke:#181818;stroke-width:1.0;" x1="813.5" x2="1121" y1="1129.9824" y2="1129.9824"/><text fill="#000000" font-family="sans-serif" font-size="13" font-weight="bold" lengthAdjust="spacing" textLength="18" x="825.5" y="1125.2402">28</text><text fill="#000000" font-family="sans-serif" font-size="13" lengthAdjust="spacing" textLength="155" x="847.5" y="1125.2402">return OK WarehouseDto</text><polygon fill="#181818" points="594.5,1155.293,584.5,1159.293,594.5,1163.293,590.5,1159.293" style="stroke:#181818;stroke-width:1.0;"/><line style="stroke:#181818;stroke-width:1.0;" x1="588.5" x2="797.5" y1="1159.293" y2="1159.293"/><text fill="#000000" font-family="sans-serif" font-size="13" font-weight="bold" lengthAdjust="spacing" textLength="18" x="600.5" y="1154.5508">29</text><text fill="#000000" font-family="sans-serif" font-size="13" lengthAdjust="spacing" textLength="141" x="622.5" y="1154.5508">200 OK WarehouseDto</text><polygon fill="#181818" points="116.5,1184.6035,106.5,1188.6035,116.5,1192.6035,112.5,1188.6035" style="stroke:#181818;stroke-width:1.0;"/><line style="stroke:#181818;stroke-width:1.0;" x1="110.5" x2="577.5" y1="1188.6035" y2="1188.6035"/><text fill="#000000" font-family="sans-serif" font-size="13" font-weight="bold" lengthAdjust="spacing" textLength="18" x="122.5" y="1183.8613">30</text><text fill="#000000" font-family="sans-serif" font-size="13" lengthAdjust="spacing" textLength="284" x="144.5" y="1183.8613">Warehouse updated succefully and persisted!</text><line style="stroke:#000000;stroke-width:1.0;stroke-dasharray:2.0,2.0;" x1="10" x2="2629.5" y1="1197.6035" y2="1197.6035"/><text fill="#000000" font-family="sans-serif" font-size="11" font-weight="bold" lengthAdjust="spacing" textLength="110" x="15" y="1208.2383">[list the warehouse]</text><polygon fill="#181818" points="561.5,1228.8691,571.5,1232.8691,561.5,1236.8691,565.5,1232.8691" style="stroke:#181818;stroke-width:1.0;"/><line style="stroke:#181818;stroke-width:1.0;" x1="105.5" x2="567.5" y1="1232.8691" y2="1232.8691"/><text fill="#000000" font-family="sans-serif" font-size="13" font-weight="bold" lengthAdjust="spacing" textLength="18" x="112.5" y="1228.127">31</text><text fill="#000000" font-family="sans-serif" font-size="13" lengthAdjust="spacing" textLength="155" x="134.5" y="1228.127">Starts to list warehouses</text><polygon fill="#181818" points="786.5,1258.1797,796.5,1262.1797,786.5,1266.1797,790.5,1262.1797" style="stroke:#181818;stroke-width:1.0;"/><line style="stroke:#181818;stroke-width:1.0;" x1="583.5" x2="792.5" y1="1262.1797" y2="1262.1797"/><text fill="#000000" font-family="sans-serif" font-size="13" font-weight="bold" lengthAdjust="spacing" textLength="18" x="590.5" y="1257.4375">32</text><text fill="#000000" font-family="sans-serif" font-size="13" lengthAdjust="spacing" textLength="24" x="612.5" y="1257.4375">GET</text><polygon fill="#181818" points="1110,1287.4902,1120,1291.4902,1110,1295.4902,1114,1291.4902" style="stroke:#181818;stroke-width:1.0;"/><line style="stroke:#181818;stroke-width:1.0;" x1="808.5" x2="1116" y1="1291.4902" y2="1291.4902"/><text fill="#000000" font-family="sans-serif" font-size="13" font-weight="bold" lengthAdjust="spacing" textLength="18" x="815.5" y="1286.748">33</text><text fill="#000000" font-family="sans-serif" font-size="13" lengthAdjust="spacing" textLength="46" x="837.5" y="1286.748">GetAll()</text><polygon fill="#181818" points="1434,1316.8008,1444,1320.8008,1434,1324.8008,1438,1320.8008" style="stroke:#181818;stroke-width:1.0;"/><line style="stroke:#181818;stroke-width:1.0;" x1="1132" x2="1440" y1="1320.8008" y2="1320.8008"/><text fill="#000000" font-family="sans-serif" font-size="13" font-weight="bold" lengthAdjust="spacing" textLength="18" x="1139" y="1316.0586">34</text><text fill="#000000" font-family="sans-serif" font-size="13" lengthAdjust="spacing" textLength="84" x="1161" y="1316.0586">GetAllAsync()</text><polygon fill="#181818" points="1780,1346.1113,1790,1350.1113,1780,1354.1113,1784,1350.1113" style="stroke:#181818;stroke-width:1.0;"/><line style="stroke:#181818;stroke-width:1.0;" x1="1456" x2="1786" y1="1350.1113" y2="1350.1113"/><text fill="#000000" font-family="sans-serif" font-size="13" font-weight="bold" lengthAdjust="spacing" textLength="18" x="1463" y="1345.3691">35</text><text fill="#000000" font-family="sans-serif" font-size="13" lengthAdjust="spacing" textLength="84" x="1485" y="1345.3691">GetAllAsync()</text><polygon fill="#181818" points="1467,1375.4219,1457,1379.4219,1467,1383.4219,1463,1379.4219" style="stroke:#181818;stroke-width:1.0;"/><line style="stroke:#181818;stroke-width:1.0;" x1="1461" x2="1796" y1="1379.4219" y2="1379.4219"/><text fill="#000000" font-family="sans-serif" font-size="13" font-weight="bold" lengthAdjust="spacing" textLength="18" x="1473" y="1374.6797">36</text><text fill="#000000" font-family="sans-serif" font-size="13" lengthAdjust="spacing" textLength="20" x="1495" y="1374.6797">list</text><polygon fill="#181818" points="1143,1404.7324,1133,1408.7324,1143,1412.7324,1139,1408.7324" style="stroke:#181818;stroke-width:1.0;"/><line style="stroke:#181818;stroke-width:1.0;" x1="1137" x2="1450" y1="1408.7324" y2="1408.7324"/><text fill="#000000" font-family="sans-serif" font-size="13" font-weight="bold" lengthAdjust="spacing" textLength="18" x="1149" y="1403.9902">37</text><text fill="#000000" font-family="sans-serif" font-size="13" lengthAdjust="spacing" textLength="150" x="1171" y="1403.9902">listDTO=convertAll(list)</text><polygon fill="#181818" points="819.5,1434.043,809.5,1438.043,819.5,1442.043,815.5,1438.043" style="stroke:#181818;stroke-width:1.0;"/><line style="stroke:#181818;stroke-width:1.0;" x1="813.5" x2="1126" y1="1438.043" y2="1438.043"/><text fill="#000000" font-family="sans-serif" font-size="13" font-weight="bold" lengthAdjust="spacing" textLength="18" x="825.5" y="1433.3008">38</text><text fill="#000000" font-family="sans-serif" font-size="13" lengthAdjust="spacing" textLength="48" x="847.5" y="1433.3008">listDTO</text><polygon fill="#181818" points="594.5,1463.3535,584.5,1467.3535,594.5,1471.3535,590.5,1467.3535" style="stroke:#181818;stroke-width:1.0;"/><line style="stroke:#181818;stroke-width:1.0;" x1="588.5" x2="802.5" y1="1467.3535" y2="1467.3535"/><text fill="#000000" font-family="sans-serif" font-size="13" font-weight="bold" lengthAdjust="spacing" textLength="18" x="600.5" y="1462.6113">39</text><text fill="#000000" font-family="sans-serif" font-size="13" lengthAdjust="spacing" textLength="169" x="622.5" y="1462.6113">200 OK WarehouseDTOList</text><polygon fill="#181818" points="116.5,1492.6641,106.5,1496.6641,116.5,1500.6641,112.5,1496.6641" style="stroke:#181818;stroke-width:1.0;"/><line style="stroke:#181818;stroke-width:1.0;" x1="110.5" x2="577.5" y1="1496.6641" y2="1496.6641"/><text fill="#000000" font-family="sans-serif" font-size="13" font-weight="bold" lengthAdjust="spacing" textLength="18" x="122.5" y="1491.9219">40</text><text fill="#000000" font-family="sans-serif" font-size="13" lengthAdjust="spacing" textLength="145" x="144.5" y="1491.9219">Returns all warehouses</text><!--MD5=[534d8beff58afeaa79b9fa650795e6ad]
@startuml Sequence Diagram
autonumber

actor WAREHOUSEMANAGER as WMR

activate WMR
box "<<System>> EletricGO" #LightBlue
'participant "<<System>> EletricGO" as E
participant "SPA" as SPA
participant "<<Container>> Warehouse Management" as WM
participant "Planning" as PLAN
participant "WarehouseController" as ctr
participant "WarehouseService" as serv
participant "WarehouseRepo" as repo
participant "Warehouse" as warehouse
participant "dto: WarehouseDTO" as dto



alt create warehouse
    WMR -> SPA: Starts to create a warehouse
    activate SPA
    SPA - -> WMR: Asks for necessary data
    deactivate SPA
    WMR-> SPA: Introduces the requested data
    activate SPA

    SPA -> WM: POST
    
    activate WM
    create "dto: WarehouseDTO"
    WM -> "dto: WarehouseDTO": create(data)
    
    WM -> ctr : create(dto)
    activate ctr
    ctr -> serv: AddAsync(dto)
    activate serv
    create "warehouse: Warehouse"
    serv -> "warehouse: Warehouse": new Warehouse(data)
    serv -> repo: addAsync(warehouse)
    activate repo
    deactivate repo
    serv -> ctr: return WarehouseDto
    deactivate serv
    ctr -> WM: return WarehouseDto
    deactivate ctr
    WM -> SPA: return WarehouseDto
    deactivate ctr
    deactivate WM
    SPA -> WMR: New warehouse is saved and persisted returning operation success
    deactivate SPA
    
    
    
    

     





    else edit the warehouse

        WMR -> SPA: Starts to edit a warehouse
        activate SPA
        SPA - -> WMR: Asks for warehouseId and data to be changed
        deactivate SPA
        WMR -> SPA: Introduces warehouseId and data
        activate SPA
        SPA -> WM: PUT
        activate WM
        create "dto: WarehouseDto"
        WM -> "dto: WarehouseDto": create(data)
        
        WM -> ctr: Update(warehouseId, dto)
        activate ctr
        ctr -> serv: UpdateAsync(dto)
        
        activate serv
        serv -> repo: warehouse = GetByWarehouseId( warehouseid )
        activate repo
        repo -> serv: return warehouse
        deactivate repo
        serv -> warehouse: warehouse.ChangeDesignation(designation)
        activate warehouse
        deactivate warehouse
        serv -> warehouse: warehouse.ChangeAddress(street,city,doorNumber,zipCode)
        activate warehouse
        deactivate warehouse
        serv -> warehouse: warehouse.ChangeCoordinate(latitude,longitude)
        activate warehouse
        deactivate warehouse
        serv -> warehouse: warehouse.ChangeLatitude(altitude) 
        activate warehouse
        deactivate warehouse
        serv -> ctr: return new WarehouseDto(warehouse.data)
        deactivate serv
        ctr -> WM: return OK WarehouseDto
        
        WM -> SPA: 200 OK WarehouseDto
        SPA -> WMR: Warehouse updated succefully and persisted!
        deactivate WM
        deactivate SPA
        deactivate ctr
        
        



    else list the warehouse
    WMR -> SPA: Starts to list warehouses
    activate SPA
    SPA -> WM: GET
    activate WM
    WM -> ctr: GetAll()
    activate ctr
    ctr -> serv: GetAllAsync()
    activate serv
    serv -> repo: GetAllAsync()
    activate repo
    repo -> serv: list
    deactivate repo
    serv -> ctr: listDTO=convertAll(list)
    deactivate serv
    ctr -> WM: listDTO
    deactivate ctr
    WM -> SPA: 200 OK WarehouseDTOList
    deactivate WM
    SPA -> WMR: Returns all warehouses
    deactivate SPA
    end alt


                deactivate WM
end box
                @enduml

@startuml Sequence Diagram
autonumber

actor WAREHOUSEMANAGER as WMR

activate WMR
box "<<System>> EletricGO" #LightBlue
participant "SPA" as SPA
participant "<<Container>> Warehouse Management" as WM
participant "Planning" as PLAN
participant "WarehouseController" as ctr
participant "WarehouseService" as serv
participant "WarehouseRepo" as repo
participant "Warehouse" as warehouse
participant "dto: WarehouseDTO" as dto



alt create warehouse
    WMR -> SPA: Starts to create a warehouse
    activate SPA
    SPA - -> WMR: Asks for necessary data
    deactivate SPA
    WMR-> SPA: Introduces the requested data
    activate SPA

    SPA -> WM: POST
    
    activate WM
    create "dto: WarehouseDTO"
    WM -> "dto: WarehouseDTO": create(data)
    
    WM -> ctr : create(dto)
    activate ctr
    ctr -> serv: AddAsync(dto)
    activate serv
    create "warehouse: Warehouse"
    serv -> "warehouse: Warehouse": new Warehouse(data)
    serv -> repo: addAsync(warehouse)
    activate repo
    deactivate repo
    serv -> ctr: return WarehouseDto
    deactivate serv
    ctr -> WM: return WarehouseDto
    deactivate ctr
    WM -> SPA: return WarehouseDto
    deactivate ctr
    deactivate WM
    SPA -> WMR: New warehouse is saved and persisted returning operation success
    deactivate SPA
    
    
    
    

     





    else edit the warehouse

        WMR -> SPA: Starts to edit a warehouse
        activate SPA
        SPA - -> WMR: Asks for warehouseId and data to be changed
        deactivate SPA
        WMR -> SPA: Introduces warehouseId and data
        activate SPA
        SPA -> WM: PUT
        activate WM
        create "dto: WarehouseDto"
        WM -> "dto: WarehouseDto": create(data)
        
        WM -> ctr: Update(warehouseId, dto)
        activate ctr
        ctr -> serv: UpdateAsync(dto)
        
        activate serv
        serv -> repo: warehouse = GetByWarehouseId( warehouseid )
        activate repo
        repo -> serv: return warehouse
        deactivate repo
        serv -> warehouse: warehouse.ChangeDesignation(designation)
        activate warehouse
        deactivate warehouse
        serv -> warehouse: warehouse.ChangeAddress(street,city,doorNumber,zipCode)
        activate warehouse
        deactivate warehouse
        serv -> warehouse: warehouse.ChangeCoordinate(latitude,longitude)
        activate warehouse
        deactivate warehouse
        serv -> warehouse: warehouse.ChangeLatitude(altitude) 
        activate warehouse
        deactivate warehouse
        serv -> ctr: return new WarehouseDto(warehouse.data)
        deactivate serv
        ctr -> WM: return OK WarehouseDto
        
        WM -> SPA: 200 OK WarehouseDto
        SPA -> WMR: Warehouse updated succefully and persisted!
        deactivate WM
        deactivate SPA
        deactivate ctr
        
        



    else list the warehouse
    WMR -> SPA: Starts to list warehouses
    activate SPA
    SPA -> WM: GET
    activate WM
    WM -> ctr: GetAll()
    activate ctr
    ctr -> serv: GetAllAsync()
    activate serv
    serv -> repo: GetAllAsync()
    activate repo
    repo -> serv: list
    deactivate repo
    serv -> ctr: listDTO=convertAll(list)
    deactivate serv
    ctr -> WM: listDTO
    deactivate ctr
    WM -> SPA: 200 OK WarehouseDTOList
    deactivate WM
    SPA -> WMR: Returns all warehouses
    deactivate SPA
    end alt


                deactivate WM
end box
                @enduml

PlantUML version 1.2022.12(Sun Oct 23 19:12:26 WEST 2022)
(GPL source distribution)
Java Runtime: OpenJDK Runtime Environment
JVM: OpenJDK 64-Bit Server VM
Default Encoding: UTF-8
Language: pt
Country: PT
--></g></svg>