<?xml version="1.0" encoding="UTF-8" standalone="no"?><svg xmlns="http://www.w3.org/2000/svg" xmlns:xlink="http://www.w3.org/1999/xlink" contentStyleType="text/css" height="561px" preserveAspectRatio="none" style="width:719px;height:561px;background:#FFFFFF;" version="1.1" viewBox="0 0 719 561" width="719px" zoomAndPan="magnify"><defs/><g><!--MD5=[1072d8b82a80feedab35993bd1d405cc]
cluster <<Component>> <<Container(C4)>> MDL --><g id="cluster_&lt;&lt;Component&gt;&gt; &lt;&lt;Container(C4)&gt;&gt; MDL "><rect fill="none" height="514" rx="2.5" ry="2.5" style="stroke:#181818;stroke-width:1.0;" width="706" x="7" y="41.9414"/><rect fill="none" height="10" style="stroke:#181818;stroke-width:1.0;" width="15" x="693" y="46.9414"/><rect fill="none" height="2" style="stroke:#181818;stroke-width:1.0;" width="4" x="691" y="48.9414"/><rect fill="none" height="2" style="stroke:#181818;stroke-width:1.0;" width="4" x="691" y="52.9414"/><text fill="#000000" font-family="sans-serif" font-size="14" font-weight="bold" lengthAdjust="spacing" textLength="312" x="201.5" y="68.4766">&lt;&lt;Component&gt;&gt; &lt;&lt;Container(C4)&gt;&gt; MDL</text></g><text fill="#000000" font-family="sans-serif" font-size="14" lengthAdjust="spacing" textLength="49" x="505.5" y="20.9883">SSOAPI</text><rect fill="#F1F1F1" height="12" style="stroke:#181818;stroke-width:1.5;" width="12" x="524" y="35.9414"/><!--MD5=[4e260e4024c27e03c495c33059d2b5ff]
entity Repository--><g id="elem_Repository"><rect fill="#F1F1F1" height="62.9766" rx="2.5" ry="2.5" style="stroke:#181818;stroke-width:0.5;" width="135" x="179.5" y="476.9414"/><rect fill="#F1F1F1" height="10" style="stroke:#181818;stroke-width:0.5;" width="15" x="294.5" y="481.9414"/><rect fill="#F1F1F1" height="2" style="stroke:#181818;stroke-width:0.5;" width="4" x="292.5" y="483.9414"/><rect fill="#F1F1F1" height="2" style="stroke:#181818;stroke-width:0.5;" width="4" x="292.5" y="487.9414"/><text fill="#000000" font-family="sans-serif" font-size="14" font-style="italic" lengthAdjust="spacing" textLength="95" x="194.5" y="510.4766">«Component»</text><text fill="#000000" font-family="sans-serif" font-size="14" lengthAdjust="spacing" textLength="73" x="205.5" y="526.9648">Repository</text></g><!--MD5=[17737e49c286898813382e12d6080e03]
entity Service--><g id="elem_Service"><rect fill="#F1F1F1" height="62.9766" rx="2.5" ry="2.5" style="stroke:#181818;stroke-width:0.5;" width="135" x="231.5" y="353.9414"/><rect fill="#F1F1F1" height="10" style="stroke:#181818;stroke-width:0.5;" width="15" x="346.5" y="358.9414"/><rect fill="#F1F1F1" height="2" style="stroke:#181818;stroke-width:0.5;" width="4" x="344.5" y="360.9414"/><rect fill="#F1F1F1" height="2" style="stroke:#181818;stroke-width:0.5;" width="4" x="344.5" y="364.9414"/><text fill="#000000" font-family="sans-serif" font-size="14" font-style="italic" lengthAdjust="spacing" textLength="95" x="246.5" y="387.4766">«Component»</text><text fill="#000000" font-family="sans-serif" font-size="14" lengthAdjust="spacing" textLength="48" x="270" y="403.9648">Service</text></g><!--MD5=[f855680bc6c989572ebb25245d27968d]
entity Controller--><g id="elem_Controller"><rect fill="#F1F1F1" height="62.9766" rx="2.5" ry="2.5" style="stroke:#181818;stroke-width:0.5;" width="135" x="305.5" y="230.9414"/><rect fill="#F1F1F1" height="10" style="stroke:#181818;stroke-width:0.5;" width="15" x="420.5" y="235.9414"/><rect fill="#F1F1F1" height="2" style="stroke:#181818;stroke-width:0.5;" width="4" x="418.5" y="237.9414"/><rect fill="#F1F1F1" height="2" style="stroke:#181818;stroke-width:0.5;" width="4" x="418.5" y="241.9414"/><text fill="#000000" font-family="sans-serif" font-size="14" font-style="italic" lengthAdjust="spacing" textLength="95" x="320.5" y="264.4766">«Component»</text><text fill="#000000" font-family="sans-serif" font-size="14" lengthAdjust="spacing" textLength="70" x="333" y="280.9648">Controller</text></g><!--MD5=[97de1061a0ab8445a0a4bfc3e13b8318]
entity DTO--><g id="elem_DTO"><rect fill="#F1F1F1" height="62.9766" rx="2.5" ry="2.5" style="stroke:#181818;stroke-width:0.5;" width="135" x="193.5" y="107.9414"/><rect fill="#F1F1F1" height="10" style="stroke:#181818;stroke-width:0.5;" width="15" x="308.5" y="112.9414"/><rect fill="#F1F1F1" height="2" style="stroke:#181818;stroke-width:0.5;" width="4" x="306.5" y="114.9414"/><rect fill="#F1F1F1" height="2" style="stroke:#181818;stroke-width:0.5;" width="4" x="306.5" y="118.9414"/><text fill="#000000" font-family="sans-serif" font-size="14" font-style="italic" lengthAdjust="spacing" textLength="95" x="208.5" y="141.4766">«Component»</text><text fill="#000000" font-family="sans-serif" font-size="14" lengthAdjust="spacing" textLength="30" x="241" y="157.9648">DTO</text></g><!--MD5=[a82aa0c5dd60519413b8c4e8d393f04f]
entity EF--><g id="elem_EF"><rect fill="#F1F1F1" height="62.9766" rx="2.5" ry="2.5" style="stroke:#181818;stroke-width:0.5;" width="135" x="401.5" y="353.9414"/><rect fill="#F1F1F1" height="10" style="stroke:#181818;stroke-width:0.5;" width="15" x="516.5" y="358.9414"/><rect fill="#F1F1F1" height="2" style="stroke:#181818;stroke-width:0.5;" width="4" x="514.5" y="360.9414"/><rect fill="#F1F1F1" height="2" style="stroke:#181818;stroke-width:0.5;" width="4" x="514.5" y="364.9414"/><text fill="#000000" font-family="sans-serif" font-size="14" font-style="italic" lengthAdjust="spacing" textLength="95" x="416.5" y="387.4766">«Component»</text><text fill="#000000" font-family="sans-serif" font-size="14" lengthAdjust="spacing" textLength="16" x="456" y="403.9648">EF</text></g><!--MD5=[011f23f7f1bed0f9bae3b452416523b4]
entity DomainModel--><g id="elem_DomainModel"><rect fill="#F1F1F1" height="62.9766" rx="2.5" ry="2.5" style="stroke:#181818;stroke-width:0.5;" width="135" x="23.5" y="107.9414"/><rect fill="#F1F1F1" height="10" style="stroke:#181818;stroke-width:0.5;" width="15" x="138.5" y="112.9414"/><rect fill="#F1F1F1" height="2" style="stroke:#181818;stroke-width:0.5;" width="4" x="136.5" y="114.9414"/><rect fill="#F1F1F1" height="2" style="stroke:#181818;stroke-width:0.5;" width="4" x="136.5" y="118.9414"/><text fill="#000000" font-family="sans-serif" font-size="14" font-style="italic" lengthAdjust="spacing" textLength="95" x="38.5" y="141.4766">«Component»</text><text fill="#000000" font-family="sans-serif" font-size="14" lengthAdjust="spacing" textLength="95" x="38.5" y="157.9648">DomainModel</text></g><!--MD5=[e7b4ba715b9378c57f39440bbe1913bc]
entity Persistence--><g id="elem_Persistence"><rect fill="#F1F1F1" height="62.9766" rx="2.5" ry="2.5" style="stroke:#181818;stroke-width:0.5;" width="135" x="23.5" y="353.9414"/><rect fill="#F1F1F1" height="10" style="stroke:#181818;stroke-width:0.5;" width="15" x="138.5" y="358.9414"/><rect fill="#F1F1F1" height="2" style="stroke:#181818;stroke-width:0.5;" width="4" x="136.5" y="360.9414"/><rect fill="#F1F1F1" height="2" style="stroke:#181818;stroke-width:0.5;" width="4" x="136.5" y="364.9414"/><text fill="#000000" font-family="sans-serif" font-size="14" font-style="italic" lengthAdjust="spacing" textLength="95" x="38.5" y="387.4766">«Component»</text><text fill="#000000" font-family="sans-serif" font-size="14" lengthAdjust="spacing" textLength="77" x="47.5" y="403.9648">Persistence</text></g><!--MD5=[1510ba322e1288ede95b24bc423207ba]
link DomainModel to Repository--><g id="link_DomainModel_Repository"><path d="M104.03,171.1014 C133.43,240.2714 204.64,407.7814 234.01,476.8714 " fill="none" id="DomainModel-Repository" style="stroke:#181818;stroke-width:1.0;"/><path d="M165.2901,333.2902 A10,10 0 0 0 178.3051 327.7576" fill="none" style="stroke:#181818;stroke-width:1.5;"/><ellipse cx="169.0313" cy="324.0164" fill="#FFFFFF" rx="6" ry="6" style="stroke:#181818;stroke-width:1.5;"/></g><!--MD5=[8bc546f5256a5be3563b89cae222b45f]
link DomainModel to Service--><g id="link_DomainModel_Service"><path d="M136.13,171.0114 C158.14,187.2414 184.09,208.4614 204,230.9414 C237.97,269.3014 267.3,321.2714 284.06,353.8214 " fill="none" id="DomainModel-Service" style="stroke:#181818;stroke-width:1.0;"/><path d="M203.3948,240.9231 A10,10 0 0 0 213.9817 231.5466" fill="none" style="stroke:#181818;stroke-width:1.5;"/><ellipse cx="204" cy="230.9414" fill="#FFFFFF" rx="6" ry="6" style="stroke:#181818;stroke-width:1.5;"/></g><!--MD5=[4e1b9a9b98e648975b9905c2241227b1]
link EF to Repository--><g id="link_EF_Repository"><path d="M412.98,416.9714 C379.33,435.3214 336.65,458.5814 303,476.9214 " fill="none" id="EF-Repository" style="stroke:#181818;stroke-width:1.0;"/><path d="M348.3972,444.1256 A10,10 0 0 0 355.1655 456.543" fill="none" style="stroke:#181818;stroke-width:1.5;"/><ellipse cx="357.99" cy="446.9502" fill="#FFFFFF" rx="6" ry="6" style="stroke:#181818;stroke-width:1.5;"/></g><!--MD5=[6ee88e067ac5b020ca91296d15764b13]
link Controller to Service--><g id="link_Controller_Service"><path d="M354.33,293.9714 C343.11,312.3214 328.88,335.5814 317.67,353.9214 " fill="none" id="Controller-Service" style="stroke:#181818;stroke-width:1.0;"/><path d="M345.7179,321.6071 A10,10 0 0 0 333.6532 314.2285" fill="none" style="stroke:#181818;stroke-width:1.5;"/><ellipse cx="335.9963" cy="323.9502" fill="#FFFFFF" rx="6" ry="6" style="stroke:#181818;stroke-width:1.5;"/></g><!--MD5=[81f86c4a65986ff24d640374da06d0c2]
link Service to Repository--><g id="link_Service_Repository"><path d="M285.88,416.9714 C278,435.3214 268,458.5814 260.12,476.9214 " fill="none" id="Service-Repository" style="stroke:#181818;stroke-width:1.0;"/><path d="M282.2885,443.2455 A10,10 0 0 0 269.2954 437.6617" fill="none" style="stroke:#181818;stroke-width:1.5;"/><ellipse cx="273" cy="446.9502" fill="#FFFFFF" rx="6" ry="6" style="stroke:#181818;stroke-width:1.5;"/></g><!--MD5=[c427f7e98bd19af5661cff5f5f693974]
link DTO to Service--><g id="link_DTO_Service"><path d="M265.81,171.3414 C273.12,218.2814 286.94,307.0014 294.23,353.7914 " fill="none" id="DTO-Service" style="stroke:#181818;stroke-width:1.0;"/><path d="M274.129,270.6978 A10,10 0 0 0 288.1026 268.5211" fill="none" style="stroke:#181818;stroke-width:1.5;"/><ellipse cx="280.0275" cy="262.6227" fill="#FFFFFF" rx="6" ry="6" style="stroke:#181818;stroke-width:1.5;"/></g><!--MD5=[38928f8d8474cd11b5402fd6b0ba460d]
link DTO to Controller--><g id="link_DTO_Controller"><path d="M289.26,170.9714 C306.24,189.3214 327.77,212.5814 344.75,230.9214 " fill="none" id="DTO-Controller" style="stroke:#181818;stroke-width:1.0;"/><path d="M316.619,210.9427 A10,10 0 0 0 326.9975 201.3362" fill="none" style="stroke:#181818;stroke-width:1.5;"/><ellipse cx="317.005" cy="200.9502" fill="#FFFFFF" rx="6" ry="6" style="stroke:#181818;stroke-width:1.5;"/></g><!--MD5=[2d5cab53a93eaf011e26d6563f27127b]
link Persistence to Repository--><g id="link_Persistence_Repository"><path d="M130.37,416.9714 C154.01,435.3214 184,458.5814 207.65,476.9214 " fill="none" id="Persistence-Repository" style="stroke:#181818;stroke-width:1.0;"/><path d="M170.2594,456.8713 A10,10 0 0 0 178.9274 445.697" fill="none" style="stroke:#181818;stroke-width:1.5;"/><ellipse cx="169.0063" cy="446.9502" fill="#FFFFFF" rx="6" ry="6" style="stroke:#181818;stroke-width:1.5;"/></g><!--MD5=[aae4fd2d110bb51312bdc7d05f72bc4d]
@startuml Diagram

component "<<Component>> <<Container(C4)>> MDL " {
port SSOAPI

component Repository <<Component>> {
}
component Service <<Component>> {
}
component Controller <<Component>> {
}
component DTO <<Component>> {
}
component EF <<Component>> {
}
component DomainModel <<Component>> {
}

component Persistence <<Component>> {
}

DomainModel -0)- Repository
DomainModel - -0)- Service
EF -0)- Repository
Controller -(0- Service
Service -(0- Repository
DTO  -0)- Service
DTO -0)- Controller
Persistence -0)- Repository
}
@enduml

PlantUML version 1.2022.7(Mon Aug 22 18:01:30 WEST 2022)
(GPL source distribution)
Java Runtime: Java(TM) SE Runtime Environment
JVM: Java HotSpot(TM) 64-Bit Server VM
Default Encoding: UTF-8
Language: pt
Country: PT
--></g></svg>