<?xml version="1.0" encoding="UTF-8" standalone="no"?><svg xmlns="http://www.w3.org/2000/svg" xmlns:xlink="http://www.w3.org/1999/xlink" contentStyleType="text/css" height="512px" preserveAspectRatio="none" style="width:513px;height:512px;background:#FFFFFF;" version="1.1" viewBox="0 0 513 512" width="513px" zoomAndPan="magnify"><defs/><g><!--MD5=[7182e694078569a0ce23b26c42f7aac9]
cluster EletricGO MDL--><g id="cluster_EletricGO MDL"><path d="M8.5,6 L113.5,6 A3.75,3.75 0 0 1 116,8.5 L123,28.4883 L503.5,28.4883 A2.5,2.5 0 0 1 506,30.9883 L506,502.5 A2.5,2.5 0 0 1 503.5,505 L8.5,505 A2.5,2.5 0 0 1 6,502.5 L6,8.5 A2.5,2.5 0 0 1 8.5,6 " fill="none" style="stroke:#000000;stroke-width:1.5;"/><line style="stroke:#000000;stroke-width:1.5;" x1="6" x2="123" y1="28.4883" y2="28.4883"/><text fill="#000000" font-family="sans-serif" font-size="14" font-weight="bold" lengthAdjust="spacing" textLength="104" x="10" y="21.5352">EletricGO MDL</text></g><!--MD5=[9ddaf8ee8bcae11a9a9232f969198262]
cluster Infrastructure--><g id="cluster_Infrastructure"><path d="M125.5,49 L225.5,49 A3.75,3.75 0 0 1 228,51.5 L235,71.4883 L396.5,71.4883 A2.5,2.5 0 0 1 399,73.9883 L399,136.5 A2.5,2.5 0 0 1 396.5,139 L125.5,139 A2.5,2.5 0 0 1 123,136.5 L123,51.5 A2.5,2.5 0 0 1 125.5,49 " fill="none" style="stroke:#000000;stroke-width:1.5;"/><line style="stroke:#000000;stroke-width:1.5;" x1="123" x2="235" y1="71.4883" y2="71.4883"/><text fill="#000000" font-family="sans-serif" font-size="14" font-weight="bold" lengthAdjust="spacing" textLength="99" x="127" y="64.5352">Infrastructure</text></g><!--MD5=[1a79add8e979d124e6f695a10b210dad]
cluster InterfaceAdapters--><g id="cluster_InterfaceAdapters"><path d="M101.5,163 L229.5,163 A3.75,3.75 0 0 1 232,165.5 L239,185.4883 L410.5,185.4883 A2.5,2.5 0 0 1 413,187.9883 L413,250.5 A2.5,2.5 0 0 1 410.5,253 L101.5,253 A2.5,2.5 0 0 1 99,250.5 L99,165.5 A2.5,2.5 0 0 1 101.5,163 " fill="none" style="stroke:#000000;stroke-width:1.5;"/><line style="stroke:#000000;stroke-width:1.5;" x1="99" x2="239" y1="185.4883" y2="185.4883"/><text fill="#000000" font-family="sans-serif" font-size="14" font-weight="bold" lengthAdjust="spacing" textLength="127" x="103" y="178.5352">InterfaceAdapters</text></g><!--MD5=[5dee16b94abb3112d0bd6fc93e25f250]
cluster ApplicationServices/UseCaseServices--><g id="cluster_ApplicationServices/UseCaseServices"><path d="M105.5,277 L372.5,277 A3.75,3.75 0 0 1 375,279.5 L382,299.4883 L382.5,299.4883 A2.5,2.5 0 0 1 385,301.9883 L385,364.5 A2.5,2.5 0 0 1 382.5,367 L105.5,367 A2.5,2.5 0 0 1 103,364.5 L103,279.5 A2.5,2.5 0 0 1 105.5,277 " fill="none" style="stroke:#000000;stroke-width:1.5;"/><line style="stroke:#000000;stroke-width:1.5;" x1="103" x2="382" y1="299.4883" y2="299.4883"/><text fill="#000000" font-family="sans-serif" font-size="14" font-weight="bold" lengthAdjust="spacing" textLength="266" x="107" y="292.5352">ApplicationServices/UseCaseServices</text></g><!--MD5=[eccf9336c2fcf13201cf91926ab8c439]
cluster Entities/Core/Domain--><g id="cluster_Entities/Core/Domain"><path d="M32.5,391 L193.5,391 A3.75,3.75 0 0 1 196,393.5 L203,413.4883 L479.5,413.4883 A2.5,2.5 0 0 1 482,415.9883 L482,478.5 A2.5,2.5 0 0 1 479.5,481 L32.5,481 A2.5,2.5 0 0 1 30,478.5 L30,393.5 A2.5,2.5 0 0 1 32.5,391 " fill="none" style="stroke:#000000;stroke-width:1.5;"/><line style="stroke:#000000;stroke-width:1.5;" x1="30" x2="203" y1="413.4883" y2="413.4883"/><text fill="#000000" font-family="sans-serif" font-size="14" font-weight="bold" lengthAdjust="spacing" textLength="160" x="34" y="406.5352">Entities/Core/Domain</text></g><!--MD5=[e7b4ba715b9378c57f39440bbe1913bc]
entity Persistence--><g id="elem_Persistence"><path d="M266,84 L356,84 A3.75,3.75 0 0 1 358.5,86.5 L365.5,106.4883 L380,106.4883 A2.5,2.5 0 0 1 382.5,108.9883 L382.5,120.9883 A2.5,2.5 0 0 1 380,123.4883 L266,123.4883 A2.5,2.5 0 0 1 263.5,120.9883 L263.5,86.5 A2.5,2.5 0 0 1 266,84 " fill="#F1F1F1" style="stroke:#181818;stroke-width:0.5;"/><line style="stroke:#181818;stroke-width:0.5;" x1="263.5" x2="365.5" y1="106.4883" y2="106.4883"/><text fill="#000000" font-family="sans-serif" font-size="14" lengthAdjust="spacing" textLength="77" x="273.5" y="100.5352">Persistence</text></g><!--MD5=[7a43269fac721b1ccfb3b5f042acc3e7]
entity Routes--><g id="elem_Routes"><path d="M142,84 L202,84 A3.75,3.75 0 0 1 204.5,86.5 L211.5,106.4883 L226,106.4883 A2.5,2.5 0 0 1 228.5,108.9883 L228.5,120.9883 A2.5,2.5 0 0 1 226,123.4883 L142,123.4883 A2.5,2.5 0 0 1 139.5,120.9883 L139.5,86.5 A2.5,2.5 0 0 1 142,84 " fill="#F1F1F1" style="stroke:#181818;stroke-width:0.5;"/><line style="stroke:#181818;stroke-width:0.5;" x1="139.5" x2="211.5" y1="106.4883" y2="106.4883"/><text fill="#000000" font-family="sans-serif" font-size="14" lengthAdjust="spacing" textLength="47" x="149.5" y="100.5352">Routes</text></g><!--MD5=[1b9dce2ce56fb0e0072eca4d439af425]
entity Controllers--><g id="elem_Controllers"><path d="M118,198 L208,198 A3.75,3.75 0 0 1 210.5,200.5 L217.5,220.4883 L232,220.4883 A2.5,2.5 0 0 1 234.5,222.9883 L234.5,234.9883 A2.5,2.5 0 0 1 232,237.4883 L118,237.4883 A2.5,2.5 0 0 1 115.5,234.9883 L115.5,200.5 A2.5,2.5 0 0 1 118,198 " fill="#F1F1F1" style="stroke:#181818;stroke-width:0.5;"/><line style="stroke:#181818;stroke-width:0.5;" x1="115.5" x2="217.5" y1="220.4883" y2="220.4883"/><text fill="#000000" font-family="sans-serif" font-size="14" lengthAdjust="spacing" textLength="77" x="125.5" y="214.5352">Controllers</text></g><!--MD5=[ca90e29f08732e1f8975e741fe954bc8]
entity Repositories--><g id="elem_Repositories"><path d="M272,198 L370,198 A3.75,3.75 0 0 1 372.5,200.5 L379.5,220.4883 L394,220.4883 A2.5,2.5 0 0 1 396.5,222.9883 L396.5,234.9883 A2.5,2.5 0 0 1 394,237.4883 L272,237.4883 A2.5,2.5 0 0 1 269.5,234.9883 L269.5,200.5 A2.5,2.5 0 0 1 272,198 " fill="#F1F1F1" style="stroke:#181818;stroke-width:0.5;"/><line style="stroke:#181818;stroke-width:0.5;" x1="269.5" x2="379.5" y1="220.4883" y2="220.4883"/><text fill="#000000" font-family="sans-serif" font-size="14" lengthAdjust="spacing" textLength="85" x="279.5" y="214.5352">Repositories</text></g><!--MD5=[8143bb6655ee3f2bac3d6b04ab84062e]
entity AppServices--><g id="elem_AppServices"><path d="M184,312 L280,312 A3.75,3.75 0 0 1 282.5,314.5 L289.5,334.4883 L304,334.4883 A2.5,2.5 0 0 1 306.5,336.9883 L306.5,348.9883 A2.5,2.5 0 0 1 304,351.4883 L184,351.4883 A2.5,2.5 0 0 1 181.5,348.9883 L181.5,314.5 A2.5,2.5 0 0 1 184,312 " fill="#F1F1F1" style="stroke:#181818;stroke-width:0.5;"/><line style="stroke:#181818;stroke-width:0.5;" x1="181.5" x2="289.5" y1="334.4883" y2="334.4883"/><text fill="#000000" font-family="sans-serif" font-size="14" lengthAdjust="spacing" textLength="83" x="191.5" y="328.5352">AppServices</text></g><!--MD5=[2926a3d40dfbaae06bdd43e1c6b0088b]
entity Aggregates--><g id="elem_Aggregates"><path d="M347,426 L439,426 A3.75,3.75 0 0 1 441.5,428.5 L448.5,448.4883 L463,448.4883 A2.5,2.5 0 0 1 465.5,450.9883 L465.5,462.9883 A2.5,2.5 0 0 1 463,465.4883 L347,465.4883 A2.5,2.5 0 0 1 344.5,462.9883 L344.5,428.5 A2.5,2.5 0 0 1 347,426 " fill="#F1F1F1" style="stroke:#181818;stroke-width:0.5;"/><line style="stroke:#181818;stroke-width:0.5;" x1="344.5" x2="448.5" y1="448.4883" y2="448.4883"/><text fill="#000000" font-family="sans-serif" font-size="14" lengthAdjust="spacing" textLength="79" x="354.5" y="442.5352">Aggregates</text></g><!--MD5=[d4431bf3c75bf55908c281f839c556ae]
entity ValueObjects--><g id="elem_ValueObjects"><path d="M181,426 L283,426 A3.75,3.75 0 0 1 285.5,428.5 L292.5,448.4883 L307,448.4883 A2.5,2.5 0 0 1 309.5,450.9883 L309.5,462.9883 A2.5,2.5 0 0 1 307,465.4883 L181,465.4883 A2.5,2.5 0 0 1 178.5,462.9883 L178.5,428.5 A2.5,2.5 0 0 1 181,426 " fill="#F1F1F1" style="stroke:#181818;stroke-width:0.5;"/><line style="stroke:#181818;stroke-width:0.5;" x1="178.5" x2="292.5" y1="448.4883" y2="448.4883"/><text fill="#000000" font-family="sans-serif" font-size="14" lengthAdjust="spacing" textLength="89" x="188.5" y="442.5352">ValueObjects</text></g><!--MD5=[3ab6bc66408bc465e62c4c0dcccb802d]
entity Services--><g id="elem_Services"><path d="M49,426 L117,426 A3.75,3.75 0 0 1 119.5,428.5 L126.5,448.4883 L141,448.4883 A2.5,2.5 0 0 1 143.5,450.9883 L143.5,462.9883 A2.5,2.5 0 0 1 141,465.4883 L49,465.4883 A2.5,2.5 0 0 1 46.5,462.9883 L46.5,428.5 A2.5,2.5 0 0 1 49,426 " fill="#F1F1F1" style="stroke:#181818;stroke-width:0.5;"/><line style="stroke:#181818;stroke-width:0.5;" x1="46.5" x2="126.5" y1="448.4883" y2="448.4883"/><text fill="#000000" font-family="sans-serif" font-size="14" lengthAdjust="spacing" textLength="55" x="56.5" y="442.5352">Services</text></g><!--MD5=[a32e7e5129de4441fee76968e15aeef6]
link Routes to Controllers--><g id="link_Routes_Controllers"><path d="M182.49,123.25 C180.96,142.31 178.58,171.9 176.92,192.63 " fill="none" id="Routes-to-Controllers" style="stroke:#181818;stroke-width:1.0;"/><polygon fill="#181818" points="176.51,197.69,181.2169,189.0387,176.9099,192.706,173.2426,188.3989,176.51,197.69" style="stroke:#181818;stroke-width:1.0;"/></g><!--MD5=[041312c57a680f8319b6e351b2f0e389]
link Controllers to AppServices--><g id="link_Controllers_AppServices"><path d="M186.55,237.25 C198.44,256.55 216.99,286.66 229.78,307.41 " fill="none" id="Controllers-to-AppServices" style="stroke:#181818;stroke-width:1.0;"/><polygon fill="#181818" points="232.41,311.69,231.1089,301.9275,229.7935,307.4293,224.2917,306.1139,232.41,311.69" style="stroke:#181818;stroke-width:1.0;"/></g><!--MD5=[d48d5f06fa055005f57b3b6a594caeca]
reverse link Persistence to Repositories--><g id="link_Persistence_Repositories"><path d="M325.13,128.31 C326.97,149.01 329.62,178.61 331.32,197.69 " fill="none" id="Persistence-backto-Repositories" style="stroke:#181818;stroke-width:1.0;"/><polygon fill="#181818" points="324.67,123.25,321.4843,132.5694,325.1136,128.2303,329.4528,131.8596,324.67,123.25" style="stroke:#181818;stroke-width:1.0;"/></g><!--MD5=[a65b61deb44ec7734a0f7c498efc31df]
reverse link AppServices to Repositories--><g id="link_AppServices_Repositories"><path d="M262.14,307.67 C278.64,286.91 302.7,256.63 318.1,237.25 " fill="none" id="AppServices-backto-Repositories" style="stroke:#181818;stroke-width:1.0;"/><polygon fill="#181818" points="258.95,311.69,267.6836,307.1376,262.063,307.7773,261.4233,302.1567,258.95,311.69" style="stroke:#181818;stroke-width:1.0;"/></g><!--MD5=[159efa18973dceb578460409bee86a93]
link AppServices to Aggregates--><g id="link_AppServices_Aggregates"><path d="M276.5,351.04 C292.06,360.23 310.79,371.74 327,383 C344.87,395.41 364.06,410.52 378.94,422.66 " fill="none" id="AppServices-to-Aggregates" style="stroke:#181818;stroke-width:1.0;"/><polygon fill="#181818" points="383.02,426,378.5926,417.2024,379.1521,422.8315,373.523,423.391,383.02,426" style="stroke:#181818;stroke-width:1.0;"/></g><!--MD5=[ac685190a2f1d5de97630eeedacf9c0f]
link AppServices to ValueObjects--><g id="link_AppServices_ValueObjects"><path d="M244,351.25 C244,370.31 244,399.9 244,420.63 " fill="none" id="AppServices-to-ValueObjects" style="stroke:#181818;stroke-width:1.0;"/><polygon fill="#181818" points="244,425.69,248,416.69,244,420.69,240,416.69,244,425.69" style="stroke:#181818;stroke-width:1.0;"/></g><!--MD5=[1393ca4ffc150e603712918082cca2ad]
link AppServices to Services--><g id="link_AppServices_Services"><path d="M209.87,351.16 C194.46,360.1 176.33,371.39 161,383 C145.27,394.91 129.04,409.99 116.61,422.24 " fill="none" id="AppServices-to-Services" style="stroke:#181818;stroke-width:1.0;"/><polygon fill="#181818" points="112.88,425.94,122.0866,422.4417,116.4298,422.4188,116.4527,416.762,112.88,425.94" style="stroke:#181818;stroke-width:1.0;"/></g><!--MD5=[2528c0f0e31fe479ceeb4672661a9ee8]
@startuml Diagram

top to bottom direction

package "EletricGO MDL"{

package Infrastructure{
    package Persistence
    
    package Routes
    
}
package InterfaceAdapters{
    package Controllers 
    
    package Repositories
    
}

package ApplicationServices/UseCaseServices {
    package AppServices
    
}

package Entities/Core/Domain {
    package Aggregates 
    
    package ValueObjects 
    
    package Services 
    
}
}

Routes - -> Controllers
Controllers - -> AppServices
Persistence <- - Repositories
AppServices <- - Repositories
AppServices - -> Aggregates
AppServices - -> ValueObjects
AppServices - -> Services

@enduml

PlantUML version 1.2022.7(Mon Aug 22 18:01:30 WEST 2022)
(GPL source distribution)
Java Runtime: Java(TM) SE Runtime Environment
JVM: Java HotSpot(TM) 64-Bit Server VM
Default Encoding: UTF-8
Language: pt
Country: PT
--></g></svg>